<svg id="Layer_1" data-name="Layer 1" xmlns="http://www.w3.org/2000/svg" viewBox="0 0 537.13 799.99"><g id="Group_4408" data-name="Group 4408"><g id="Group_4406" data-name="Group 4406"><g id="Group_4306" data-name="Group 4306"><g id="Group_4305" data-name="Group 4305"><g id="Group_4304" data-name="Group 4304"><path id="Path_1586" data-name="Path 1586" d="M277.12,88.72a70.39,70.39,0,0,0-18.77-12.5L248.23,86.34a52.85,52.85,0,0,0-6.14,12A27,27,0,0,0,277.12,88.72Z" transform="translate(-131.46 -0.06)" fill="#b3b3b3"/></g></g></g><g id="Group_4309" data-name="Group 4309"><g id="Group_4308" data-name="Group 4308"><g id="Group_4307" data-name="Group 4307"><path id="Path_1587" data-name="Path 1587" d="M268.45,147.07c23.74,24.08,40.49,0,40.49,0a114.57,114.57,0,0,0-13.09-35.19A77.06,77.06,0,0,1,268.45,147.07Z" transform="translate(-131.46 -0.06)" fill="#b3b3b3"/></g></g></g><g id="Group_4312" data-name="Group 4312"><g id="Group_4311" data-name="Group 4311"><g id="Group_4310" data-name="Group 4310"><path id="Path_1588" data-name="Path 1588" d="M238.08,126.82c0,36,40.49,50.62,40.49,50.62a29.13,29.13,0,0,1-10.12-30.37,77,77,0,0,0,27.39-35.19,95.63,95.63,0,0,0-18.75-23.16,27,27,0,0,1-35,9.64A72.3,72.3,0,0,0,238.08,126.82Z" transform="translate(-131.46 -0.06)" fill="#b3b3b3"/></g></g></g><g id="Group_4315" data-name="Group 4315"><g id="Group_4314" data-name="Group 4314"><g id="Group_4313" data-name="Group 4313"><path id="Path_1589" data-name="Path 1589" d="M288.94,86.09l-7.14,7.15a105.7,105.7,0,0,1,27.14,53.83c15.13,0,20.24,30.37,20.24,30.37a75.29,75.29,0,0,0,70.86,0c47.76,15.17,70.85-20.25,70.85-20.25a51.62,51.62,0,0,0,50.62-40.49l10.12-10.12L511.38,96.46l10.13-10.12a252.75,252.75,0,0,0-127.28-76,90.58,90.58,0,0,1-44.8,15.24V61a35.44,35.44,0,0,1-60.49,25.06Z" transform="translate(-131.46 -0.06)" fill="#94d056"/></g></g></g><g id="Group_4318" data-name="Group 4318"><g id="Group_4317" data-name="Group 4317"><g id="Group_4316" data-name="Group 4316"><path id="Path_1590" data-name="Path 1590" d="M281.81,93.21,289,86.07A35.42,35.42,0,0,1,314,25.6h35.43a90.58,90.58,0,0,0,44.8-15.24,204,204,0,0,0-44.8-5c-104.85,0-114.76,62.5-111.34,70.86a16.79,16.79,0,0,0,10.12,10.12l10.12-10.12A75.16,75.16,0,0,1,281.81,93.21Z" transform="translate(-131.46 -0.06)" fill="#80cdbb"/></g></g></g><g id="Group_4321" data-name="Group 4321"><g id="Group_4320" data-name="Group 4320"><g id="Group_4319" data-name="Group 4319"><path id="Path_1591" data-name="Path 1591" d="M278.58,61a35.43,35.43,0,0,0,70.85,0V25.6H314A35.43,35.43,0,0,0,278.58,61Z" transform="translate(-131.46 -0.06)" fill="#ffff40"/></g></g></g><g id="Group_4324" data-name="Group 4324"><g id="Group_4323" data-name="Group 4323"><g id="Group_4322" data-name="Group 4322"><path id="Path_1592" data-name="Path 1592" d="M298.81,491.23c0-1.8.08-3.5.08-5.27A51.44,51.44,0,0,0,298.81,491.23Z" transform="translate(-131.46 -0.06)" fill="none"/></g></g></g><g id="Group_4327" data-name="Group 4327"><g id="Group_4326" data-name="Group 4326"><g id="Group_4325" data-name="Group 4325"><path id="Path_1593" data-name="Path 1593" d="M319.09,430.53c22-31.25,60.7-77.75,60.7-172.12,0,0-79.36,46.73-80.9,227.55A108.2,108.2,0,0,1,319.09,430.53Z" transform="translate(-131.46 -0.06)" fill="#5cb755"/></g></g></g><g id="Group_4330" data-name="Group 4330"><g id="Group_4329" data-name="Group 4329"><g id="Group_4328" data-name="Group 4328"><path id="Path_1594" data-name="Path 1594" d="M251,465c7.51,107.26,27.56,147.68,27.56,147.68l20.24-121.46a51.44,51.44,0,0,1,.08-5.27,450.73,450.73,0,0,1,16-121.81C306.6,390.94,285.66,446.75,251,465Z" transform="translate(-131.46 -0.06)" fill="#f95b67"/></g></g></g><g id="Group_4333" data-name="Group 4333"><g id="Group_4332" data-name="Group 4332"><g id="Group_4331" data-name="Group 4331"><path id="Path_1595" data-name="Path 1595" d="M491.14,217.92" transform="translate(-131.46 -0.06)" fill="none" stroke="#1a1a1a" stroke-linecap="round" stroke-linejoin="round" stroke-width="21.43"/></g></g></g><g id="Group_4336" data-name="Group 4336"><g id="Group_4335" data-name="Group 4335"><g id="Group_4334" data-name="Group 4334"><path id="Path_1596" data-name="Path 1596" d="M298.78,491.21l40.5,91.1L541.72,481.08a442.3,442.3,0,0,0,38.81-108.8,472.9,472.9,0,0,0,11.8-103.76c0-122.26-70.85-151.83-70.85-151.83a51.64,51.64,0,0,1-50.61,40.49s-23.1,35.41-70.86,20.24a75.23,75.23,0,0,1-70.86,0c0,43.29,50.61,81,50.61,81,0,94.4-38.64,140.9-60.7,172.11-1.24,1.77-2.39,3.52-3.49,5.26l-.94,1.54c-.82,1.3-1.53,2.59-2.25,3.87-.27.45-.55.95-.8,1.42-.91,1.7-1.78,3.39-2.57,5l-.08.2c-.77,1.61-1.45,3.19-2.1,4.75-.2.5-.38,1-.57,1.43-.48,1.2-.94,2.39-1.36,3.57-.16.42-.32.84-.46,1.27-.54,1.53-1,3.07-1.46,4.5l-.1.37c-.37,1.34-.75,2.65-1.08,3.92-.11.42-.2.83-.31,1.25-.24,1-.46,2-.66,2.93-.08.4-.16.75-.24,1.11-.24,1.25-.46,2.44-.65,3.57,0,.22-.06.41-.09.63-.14.92-.27,1.81-.38,2.65-.05.41-.09.75-.14,1.12-.08.65-.14,1.27-.19,1.86,0,.35-.1.68-.1,1-.06.75-.14,1.44-.14,2.08A53.08,53.08,0,0,0,298.78,491.21Z" transform="translate(-131.46 -0.06)" fill="#94d056"/></g></g></g><g id="Group_4339" data-name="Group 4339"><g id="Group_4338" data-name="Group 4338"><g id="Group_4337" data-name="Group 4337"><path id="Path_1597" data-name="Path 1597" d="M279.75,703,258.33,754.4l2.56,10.26a24.62,24.62,0,0,0,1.9,5.12A25,25,0,0,0,296.33,781l12.61-6.3,12.72-55.12A160.85,160.85,0,0,1,279.75,703Z" transform="translate(-131.46 -0.06)" fill="#ffff40"/></g></g></g><g id="Group_4342" data-name="Group 4342"><g id="Group_4341" data-name="Group 4341"><g id="Group_4340" data-name="Group 4340"><path id="Path_1598" data-name="Path 1598" d="M321.66,719.53l-12.72,55.12,12.68,12.68h0a25,25,0,0,0,35.35,0l12.69-12.68,3.94-51.26c-4.64.4-9.32.64-14.06.64A161.71,161.71,0,0,1,321.66,719.53Z" transform="translate(-131.46 -0.06)" fill="#ffff40"/></g></g></g><g id="Group_4345" data-name="Group 4345"><g id="Group_4344" data-name="Group 4344"><g id="Group_4343" data-name="Group 4343"><path id="Path_1599" data-name="Path 1599" d="M373.62,723.38l-3.95,51.26,8.8,8.8a25.45,25.45,0,0,0,3.82,3.13A25,25,0,0,0,417,779.63l3.33-5-4.34-60.7A161.2,161.2,0,0,1,373.62,723.38Z" transform="translate(-131.46 -0.06)" fill="#ffff40"/></g></g></g><g id="Group_4348" data-name="Group 4348"><g id="Group_4347" data-name="Group 4347"><g id="Group_4346" data-name="Group 4346"><path id="Path_1600" data-name="Path 1600" d="M415.94,713.93l4.34,60.71.85.56a24.71,24.71,0,0,0,7.82,3.46,25,25,0,0,0,30.3-18.2l1.52-6.07-13-56.5A160.4,160.4,0,0,1,415.94,713.93Z" transform="translate(-131.46 -0.06)" fill="#ffff40"/></g></g></g><g id="Group_4351" data-name="Group 4351"><g id="Group_4350" data-name="Group 4350"><g id="Group_4349" data-name="Group 4349"><path id="Path_1601" data-name="Path 1601" d="M328.51,690l-6.82,29.59a161.89,161.89,0,0,0,37.85,4.49c4.78,0,9.43-.24,14.07-.64L376,692.63A130.08,130.08,0,0,1,328.51,690Z" transform="translate(-131.46 -0.06)" fill="#5cb755"/></g></g></g><g id="Group_4354" data-name="Group 4354"><g id="Group_4353" data-name="Group 4353"><g id="Group_4352" data-name="Group 4352"><path id="Path_1602" data-name="Path 1602" d="M376,692.61l-2.37,30.78a161.2,161.2,0,0,0,42.33-9.46L413.67,682A130.87,130.87,0,0,1,376,692.61Z" transform="translate(-131.46 -0.06)" fill="#5cb755"/></g></g></g><g id="Group_4357" data-name="Group 4357"><g id="Group_4356" data-name="Group 4356"><g id="Group_4355" data-name="Group 4355"><path id="Path_1603" data-name="Path 1603" d="M410.16,632.93l20.25-10.12Q447.11,607,460.86,592.4L359.55,643.06h20.24Z" transform="translate(-131.46 -0.06)" fill="#5cb755"/></g></g></g><g id="Group_4360" data-name="Group 4360"><g id="Group_4359" data-name="Group 4359"><g id="Group_4358" data-name="Group 4358"><path id="Path_1604" data-name="Path 1604" d="M278.6,612.69l60.71-30.36-40.49-91.1L278.57,612.69Z" transform="translate(-131.46 -0.06)" fill="#5cb755"/></g></g></g><g id="Group_4363" data-name="Group 4363"><g id="Group_4362" data-name="Group 4362"><g id="Group_4361" data-name="Group 4361"><path id="Path_1605" data-name="Path 1605" d="M262.44,691.63l-31.08,15.54-13.5,27h0A25,25,0,0,0,254,756.53l4.29-2.14L279.75,703A163.55,163.55,0,0,1,262.44,691.63Z" transform="translate(-131.46 -0.06)" fill="#ffff40"/></g></g></g><g id="Group_4366" data-name="Group 4366"><g id="Group_4365" data-name="Group 4365"><g id="Group_4364" data-name="Group 4364"><path id="Path_1606" data-name="Path 1606" d="M262.42,691.62A161,161,0,0,0,279.75,703l10.54-25.31Z" transform="translate(-131.46 -0.06)" fill="#5cb755"/></g></g></g><g id="Group_4369" data-name="Group 4369"><g id="Group_4368" data-name="Group 4368"><g id="Group_4367" data-name="Group 4367"><path id="Path_1607" data-name="Path 1607" d="M290.29,677.68,279.75,703a161,161,0,0,0,41.91,16.54L328.49,690a130.72,130.72,0,0,1-34.76-14Z" transform="translate(-131.46 -0.06)" fill="#5cb755"/></g></g></g><g id="Group_4372" data-name="Group 4372"><g id="Group_4371" data-name="Group 4371"><g id="Group_4370" data-name="Group 4370"><path id="Path_1608" data-name="Path 1608" d="M440.35,665.9A131.71,131.71,0,0,1,413.67,682l2.27,31.91a161.48,161.48,0,0,0,31.79-16Z" transform="translate(-131.46 -0.06)" fill="#5cb755"/></g></g></g><g id="Group_4375" data-name="Group 4375"><g id="Group_4374" data-name="Group 4374"><g id="Group_4373" data-name="Group 4373"><path id="Path_1609" data-name="Path 1609" d="M293.73,676a130.72,130.72,0,0,0,34.76,14l8.17-35.45Z" transform="translate(-131.46 -0.06)" fill="#f95b67"/></g></g></g><g id="Group_4378" data-name="Group 4378"><g id="Group_4377" data-name="Group 4377"><g id="Group_4376" data-name="Group 4376"><path id="Path_1610" data-name="Path 1610" d="M336.66,654.5,328.49,690A130.46,130.46,0,0,0,376,692.61l3.81-49.55H359.55Z" transform="translate(-131.46 -0.06)" fill="#f95b67"/></g></g></g><g id="Group_4381" data-name="Group 4381"><g id="Group_4380" data-name="Group 4380"><g id="Group_4379" data-name="Group 4379"><path id="Path_1611" data-name="Path 1611" d="M379.79,643.06,376,692.61A130.87,130.87,0,0,0,413.67,682l-3.51-49.09Z" transform="translate(-131.46 -0.06)" fill="#f95b67"/></g></g></g><g id="Group_4384" data-name="Group 4384"><g id="Group_4383" data-name="Group 4383"><g id="Group_4382" data-name="Group 4382"><path id="Path_1612" data-name="Path 1612" d="M410.16,632.93,413.67,682a131.71,131.71,0,0,0,26.68-16.12l-9.94-43.09Z" transform="translate(-131.46 -0.06)" fill="#f95b67"/></g></g></g><g id="Group_4387" data-name="Group 4387"><g id="Group_4386" data-name="Group 4386"><g id="Group_4385" data-name="Group 4385"><path id="Path_1613" data-name="Path 1613" d="M663.21,491.22,136.87,754.39V683.55L663.21,420.37Z" transform="translate(-131.46 -0.06)" fill="#be8a66"/></g></g></g><g id="Group_4390" data-name="Group 4390"><g id="Group_4389" data-name="Group 4389"><g id="Group_4388" data-name="Group 4388"><path id="Path_1614" data-name="Path 1614" d="M339.27,212.5c-.69,87.6-20.21,137-20.21,137h.51c24-69.67,60.22-91.1,60.22-91.1A165.54,165.54,0,0,1,339.27,212.5Z" transform="translate(-131.46 -0.06)" fill="#f95b67"/></g></g></g><g id="Group_4393" data-name="Group 4393"><g id="Group_4392" data-name="Group 4392"><g id="Group_4391" data-name="Group 4391"><path id="Path_1615" data-name="Path 1615" d="M248.21,379.88c0,32.14,1.06,60.42,2.8,85.13,34.63-18.26,55.59-74.07,63.91-100.86.4-1.38.81-2.7,1.23-4,1.94-6.55,2.91-10.59,2.91-10.59s19.5-49.41,20.21-137a73.19,73.19,0,0,1-10.09-35.06S248.21,208.27,248.21,379.88Z" transform="translate(-131.46 -0.06)" fill="#5cb755"/></g></g></g><g id="Group_4396" data-name="Group 4396"><g id="Group_4395" data-name="Group 4395"><g id="Group_4394" data-name="Group 4394"><path id="Path_1616" data-name="Path 1616" d="M583.35,199.91a243.72,243.72,0,0,1,9,68.63,472.29,472.29,0,0,1-11.81,103.75L592.36,390a171.36,171.36,0,0,0,35.55-101Z" transform="translate(-131.46 -0.06)" fill="#5cb755"/></g></g></g><g id="Group_4399" data-name="Group 4399"><g id="Group_4398" data-name="Group 4398"><g id="Group_4397" data-name="Group 4397"><path id="Path_1617" data-name="Path 1617" d="M583.38,199.91,627.93,289a193.44,193.44,0,0,0-5.18-50.86A175.07,175.07,0,0,0,521.5,116.7S564.28,134.58,583.38,199.91Z" transform="translate(-131.46 -0.06)" fill="#f95b67"/></g></g></g><g id="Group_4402" data-name="Group 4402"><g id="Group_4401" data-name="Group 4401"><g id="Group_4400" data-name="Group 4400"><path id="Path_1618" data-name="Path 1618" d="M298.81,491.23c0-1.8.08-3.5.08-5.27A51.44,51.44,0,0,0,298.81,491.23Z" transform="translate(-131.46 -0.06)" fill="none"/></g></g></g><g id="Group_4405" data-name="Group 4405"><g id="Group_4404" data-name="Group 4404"><g id="Group_4403" data-name="Group 4403"><path id="Path_1619" data-name="Path 1619" d="M491.14,217.92" transform="translate(-131.46 -0.06)" fill="none" stroke="#1a1a1a" stroke-linecap="round" stroke-linejoin="round" stroke-width="21.43"/></g></g></g></g><g id="Group_4407" data-name="Group 4407"><circle id="Ellipse_146" data-name="Ellipse 146" cx="182.53" cy="60.97" r="15.18" fill="#1a1a1a"/><path id="Path_1620" data-name="Path 1620" d="M134.42,749.66a5.36,5.36,0,1,0,4.8,9.58l80.09-40L213,731.81a5.3,5.3,0,0,0-.57,2.4,30.3,30.3,0,0,0,42.24,27.91l1,3.89a30.7,30.7,0,0,0,2.3,6.21,30.37,30.37,0,0,0,40.73,13.58l9.16-4.58,10,9.95a30.38,30.38,0,0,0,42.93,0l8.9-8.9,5,5a30.28,30.28,0,0,0,21.43,8.89c1,0,2,0,3-.15a30.23,30.23,0,0,0,22.27-13.37l.54-.79a29.85,29.85,0,0,0,13,3,30.55,30.55,0,0,0,11-2.09,30,30,0,0,0,18.52-21l1.51-6.07a5.28,5.28,0,0,0,0-2.5l-13.05-56.51-7.38-32-9.28-40.15c9.62-9.19,18.95-18.48,27.75-27.76l98.84-49.42.5.72a10.71,10.71,0,0,0,18.62-10.25l83.6-41.79h0a5.36,5.36,0,0,0-4.79-9.59L575.89,528.9l-31-43.38,120.6-60.31a1.34,1.34,0,0,0,.24-.12,5.36,5.36,0,1,0-5-9.45L553.59,469.2a475.11,475.11,0,0,0,29.21-83.64l5,7.48a5.33,5.33,0,0,0,4.1,2.37h.35a5.34,5.34,0,0,0,4-1.83,175.2,175.2,0,0,0,36.88-104.32A199.44,199.44,0,0,0,627.83,237a179.9,179.9,0,0,0-97.07-122l4.55-4.54a5.44,5.44,0,0,0,1-1.38,5.35,5.35,0,0,0-2.39-7.19l-13.57-6.8,4.87-4.87a5.36,5.36,0,0,0,.34-7.21A255.75,255.75,0,0,0,395.34,5.2h0a211.65,211.65,0,0,0-46-5.14c-64.75,0-93.86,23.13-106.88,42.52-10.19,15.15-11.64,30.27-9.42,35.71a23.39,23.39,0,0,0,7.65,10.11A62.74,62.74,0,0,0,237,96.57a78,78,0,0,0-4.28,30.53c.16,39.12,42.23,54.77,44,55.42a5.36,5.36,0,0,0,5.16-9.22A23,23,0,0,1,273,157.68a30,30,0,0,0,16.43,5.5c.73,0,1.49,0,2.21-.1A30.61,30.61,0,0,0,311,152.93c5.77,2.3,10.09,13.6,12,21.52-17.2,9-80.22,52.54-80.22,205.47,0,30.15.94,58.92,2.82,85.51,6.14,87.86,20.55,131.12,26,144.77L134.44,678.76a5.36,5.36,0,1,0,4.79,9.59l141.71-70.86h0l60.7-30.34h.06l48.21-24.1,7.82-3.91,38.92,13c3.13,1.52,7.84,5.81,3.91,16.75a10.68,10.68,0,0,0,.2,7.63L348.2,642.77l-13.94,7-42.92,21.43-1.53.76-51.69,25.85-9.18,4.59h0l-94.47,47.24ZM293,703.77c-.87-.42-1.76-.87-2.64-1.33-1.26-.62-2.49-1.29-3.73-1.94l7.58-18.17c1.37.76,2.72,1.42,4.15,2.14.64.32,1.28.67,1.93,1q4,1.93,8.11,3.6c.57.24,1.16.44,1.74.67,2.18.85,4.39,1.64,6.6,2.38.91.3,1.84.58,2.73.86s1.78.58,2.67.84l-.87,3.84-3.52,15.24c-1.17-.32-2.33-.62-3.48-1-1-.3-2-.58-2.94-.9q-4.2-1.35-8.33-3c-.32-.12-.67-.23-1-.37-3-1.2-6-2.49-9-3.92Zm50,14c-4.55-.48-9.07-1.2-13.6-2.11l-1.22-.25,4.41-19.09c.42.09.86.14,1.28.22,1.73.33,3.47.6,5.21.87,1.22.18,2.44.39,3.67.55,1.83.23,3.67.38,5.52.53,1.22.1,2.45.23,3.68.3,2.56.15,5.11.23,7.67.23h.53c.93,0,1.9-.09,2.86-.09,2-.06,4.09-.12,6.17-.28a8.7,8.7,0,0,1,1,0l-1.52,19.76-1,.06c-2.8.16-5.52.26-8.11.26-4.74,0-9.51-.27-14.28-.71-.78-.07-1.55-.12-2.32-.21Zm51.76-3.07c-4.53,1-9.13,1.82-13.77,2.46-.45.07-.94.11-1.43.18l1.54-20c.65-.1,1.27-.29,1.92-.4q5.28-.92,10.45-2.22c.79-.2,1.59-.36,2.37-.57,4.12-1.12,8.18-2.47,12.18-4,.31-.13.64-.2.94-.31l1.43,20.32-1.9.64c-3.93,1.26-7.91,2.43-11.95,3.41-.6.15-1.18.32-1.78.46Zm36.08-13.13q-4.65,2.38-9.51,4.45l-.53.22-1.32-18.35-.17-2.56c.5-.24,1-.53,1.47-.78q3-1.49,5.82-3.1c.85-.48,1.7-.94,2.53-1.43,2.58-1.52,5.11-3.11,7.58-4.8l.28-.17,4.69,20.32-1.43.89c-2.39,1.45-4.81,2.82-7.27,4.13-.71.38-1.43.8-2.14,1.17Zm-157.19-8.6c-.24-.17-.47-.35-.72-.51l4.22-2.14,2.75-1.37-2.6,6.25c-.93-.58-1.87-1.11-2.79-1.71Zm40.29-13.25c-2-.79-4-1.66-5.93-2.56-.79-.35-1.6-.68-2.39-1.06l23.39-11.69-1.86,8.06-2.51,10.83c-.51-.15-1-.27-1.53-.43-1.88-.57-3.74-1.21-5.6-1.87-1.21-.42-2.4-.82-3.57-1.28Zm43.26-29.42,3.7-1.84H374l-3,39.28-1.23.11c-3.47.3-6.86.49-10.21.49-3.7,0-7.4-.22-11.1-.55-.71-.06-1.43-.11-2.14-.19q-5.35-.55-10.65-1.57l-.72-.17,6.38-27.67Zm37.5,33c-3.85,1.1-7.77,2-11.72,2.76-.33.07-.7.11-1.05.16l3-39.21,20.45-6.82,2.74,38.33-1.73.71q-4.76,1.9-9.65,3.42c-.69.2-1.34.46-2.06.65Zm39.7-71.62q-3.46,3.36-7,6.69l-19.2,9.6-14.24,4.75-5,1.66,11.6-5.8Zm.05,52-1.32,1c-1.61,1.16-3.25,2.27-4.92,3.35-.77.51-1.53,1-2.32,1.51q-3.27,2-6.64,3.83c-.26.13-.48.27-.72.39L417,653.07l-1.21-16.94,10.95-5.48ZM586.5,252.38c.3,5.3.5,10.66.51,16.17a466,466,0,0,1-11.68,102.58,454,454,0,0,1-37,105l-8.11-11.36-.05-.06a10.71,10.71,0,1,0-17.39,12.52l6.53,9.12-2.77,1.38-5.71-11.43h0a10.72,10.72,0,0,0-19.17,9.58l5.71,11.43-86.91,43.5-24.88-8.29-18-18c8.69-9.67,17.61-26.2,17.61-53.57a5.36,5.36,0,0,0-10.71,0c0,31.11-12.65,45.73-20.64,51.88a9.48,9.48,0,0,0-1,.57c-.19.15-.27.37-.44.53a26.77,26.77,0,0,1-4.85,2.77,5.36,5.36,0,0,0,2,10.34,5.24,5.24,0,0,0,.88-.16c.14.21.17.48.32.71l13.55,20.25-9.39,4.69a10.63,10.63,0,0,0-2.51,17.37L342,575,304.2,490v-1.61c0-.55,0-1.21.07-1.93v-.22h0c.05-1,.15-2.18.28-3.52l.05-.39a94.29,94.29,0,0,1,1.73-10.44v0a104.92,104.92,0,0,1,4.09-13.68l.18-.45a107.73,107.73,0,0,1,7-14.94l.95-1.63c1.48-2.51,3.06-5,4.86-7.58,1.56-2.21,3.2-4.48,4.91-6.86C351,395.3,385.17,347.8,385.17,258.42a254.62,254.62,0,0,1-.55-2.32,1.64,1.64,0,0,0-.14-.22L383,254.13l-.47-.36-.15-.13c-.29-.2-.69-.54-1.15-.91l-.25-.2c-1.18-1-2.81-2.32-4.79-4.05l0,0c-.95-.82-2-1.74-3-2.73l-.39-.35c-3.38-3.13-7.3-7-11.33-11.48l-.56-.64c-1.16-1.3-2.32-2.61-3.48-4-.2-.23-.4-.46-.6-.71-2.65-3.2-5.21-6.62-7.65-10.22-.27-.4-.52-.8-.78-1.19q-1.37-2.06-2.64-4.2c-.33-.55-.65-1.1-1-1.65-.51-.87-1-1.76-1.43-2.64q-1.51-2.85-2.77-5.67c-.33-.74-.67-1.5-1-2.21-.86-2.15-1.64-4.29-2.29-6.43-.13-.4-.29-.79-.4-1.19a60.41,60.41,0,0,1-1.58-7.15l.81.27c1.29.48,2.56.91,3.83,1.32.59.18,1.18.39,1.76.56,1.65.49,3.27.92,4.88,1.3.18,0,.36.09.53.13,1.79.41,3.54.74,5.26,1l1.52.2c1.22.17,2.41.33,3.57.45l1.81.14c1.06.08,2.1.14,3.13.18.59.05,1.18.05,1.76.05h1.19c.38,0,.72-.05,1.1-.05,1.43,0,2.82-.07,4.18-.16l1.6-.1c1.8-.16,3.55-.36,5.22-.61l.72-.13c1.44-.23,2.82-.5,4.15-.79l1.47-.33c1.08-.26,2.13-.53,3.13-.81l1.23-.34c1.32-.4,2.58-.8,3.74-1.21l.35-.14c1-.41,2-.75,2.94-1.13l.93-.39c.69-.29,1.33-.58,1.91-.85l.72-.33c.73-.35,1.41-.68,2-1a81.29,81.29,0,0,0,8.57,2c.88.17,1.73.26,2.59.39,1.88.28,3.68.51,5.45.65.95.08,1.9.12,2.86.16,1.54,0,3,0,4.53,0,1,0,2-.06,3-.13,1.21-.09,2.37-.22,3.54-.37s2.32-.27,3.43-.47c.52-.1,1-.22,1.5-.33a64.35,64.35,0,0,0,19.91-7.54,65.49,65.49,0,0,0,17.57-15.18c2.3-.12,4.45-.39,6.59-.71.66-.11,1.28-.26,1.92-.38,1.41-.27,2.81-.56,4.14-.91.72-.19,1.43-.41,2.14-.62,1.19-.36,2.34-.74,3.45-1.16.69-.26,1.35-.52,2-.8,1.07-.43,2.11-.92,3.11-1.43.59-.29,1.19-.58,1.75-.88,1.08-.6,2.1-1.22,3.1-1.86.41-.26.85-.51,1.25-.78,1.37-.93,2.65-1.9,3.87-2.9.26-.22.49-.45.75-.67.94-.81,1.85-1.62,2.7-2.46.44-.4.78-.8,1.15-1.2.67-.65,1.31-1.37,1.92-2.08.38-.44.73-.88,1.1-1.31.55-.69,1.09-1.35,1.6-2.06.33-.44.64-.87.95-1.31.49-.71,1-1.43,1.43-2.14.22-.38.48-.76.71-1.14.54-.88,1-1.75,1.49-2.6.12-.2.25-.4.35-.61.57-1,1.07-2.08,1.54-3.07l.34-.78c.32-.71.64-1.41.91-2.08.13-.33.24-.63.37-1s.27-.66.38-1a117.64,117.64,0,0,1,41.26,46.29l.46.9c1.2,2.31,2.36,4.74,3.49,7.24.4.89.79,1.77,1.18,2.69.92,2.12,1.8,4.33,2.66,6.6.57,1.49,1.14,3.09,1.66,4.59s1,3.06,1.52,4.61c.62,2,1.22,4,1.81,6.06q1.51,5.43,2.75,11.11c.23,1.09.48,2.12.71,3.24.88,4.35,1.62,8.84,2.25,13.4.16,1.12.32,2.24.47,3.39q.93,7.13,1.43,14.53c.07,1.05.12,2.12.17,3.19Zm-243-7.87c.05-1,.12-1.93.17-2.9.21-3.79.4-7.66.55-11.64A178.77,178.77,0,0,0,371,258.17a151,151,0,0,0-33.47,39.53c.23-1.34.45-2.71.68-4.14.08-.57.18-1.12.27-1.7.5-3.13,1-6.39,1.43-9.75.1-.77.2-1.57.3-2.35q.57-4.35,1.08-8.94c.09-.76.17-1.5.25-2.27.38-3.66.76-7.44,1.09-11.33.08-.83.14-1.69.2-2.53.27-3.3.5-6.69.72-10.16Zm-57.92,358.7,15.57-93.49,31.17,70.11-39.72,19.86Zm25.19-169.78c-.64,1-1.21,2-1.79,3-.42.71-.86,1.42-1.26,2.14L307,440c-.13.25-.3.51-.44.77a9.3,9.3,0,0,0,.09-1.05c10-106.77,50-154.1,67.59-170-.05,1.15-.06,2.34-.11,3.48q-.16,3.48-.4,6.85c-.17,2.59-.38,5.1-.62,7.59-.2,2.14-.43,4.28-.67,6.42-.3,2.4-.61,4.8-.95,7.14-.3,2.05-.61,4.08-.95,6.07-.38,2.28-.8,4.52-1.23,6.73-.38,1.92-.77,3.84-1.18,5.72-.47,2.15-1,4.25-1.5,6.33-.45,1.79-.9,3.61-1.38,5.36q-.84,3-1.74,6c-.51,1.68-1,3.37-1.55,5-.63,1.92-1.29,3.79-1.94,5.64-.57,1.57-1.12,3.15-1.7,4.67-.72,1.82-1.43,3.58-2.15,5.32-.6,1.49-1.19,2.92-1.8,4.35-.75,1.69-1.51,3.35-2.27,5-.63,1.35-1.25,2.72-1.89,4-.79,1.63-1.6,3.19-2.41,4.76-.63,1.24-1.27,2.51-1.92,3.72-.82,1.55-1.67,3-2.51,4.53-.64,1.14-1.28,2.3-1.92,3.4-.87,1.47-1.74,2.9-2.61,4.33-.63,1-1.25,2.09-1.88,3.1-.9,1.43-1.8,2.8-2.7,4.18-.59.91-1.19,1.86-1.78,2.76-1,1.44-1.92,2.82-2.86,4.2-.52.76-1.05,1.58-1.56,2.29-1.05,1.55-2.08,3-3.1,4.4l-1.19,1.7q-2.1,3-4.08,5.72c-1.72,2.39-3.38,4.7-4.95,6.92-1.31,1.85-2.51,3.67-3.65,5.5ZM276.66,591.56a583.65,583.65,0,0,1-20.05-123.49c.61-.37,1.19-.82,1.79-1.2,1-.66,2-1.28,3-2.05s2.25-1.65,3.2-2.42,1.84-1.49,2.86-2.38,2.1-1.87,3-2.75,1.76-1.68,2.73-2.67,2-2.1,2.85-3.06,1.66-1.84,2.58-2.92,1.87-2.29,2.69-3.32,1.57-2,2.43-3.13,1.76-2.42,2.52-3.51,1.47-2.1,2.28-3.31,1.65-2.54,2.37-3.68,1.37-2.18,2.14-3.44,1.52-2.58,2.2-3.79,1.35-2.37,2-3.57c.21-.44.48-.87.71-1.31-.68,5.1-1.3,10.38-1.84,15.81v.1q-.75,7.61-1.31,15.63c0,.3-.07.58-.07.87q-.5,7.47-.8,15.31c0,.51-.07,1-.07,1.51q-.32,8.35-.39,17.14v.15c0,.94-.09,1.74-.09,2.45v2.37L289.75,513,276.66,591.6Zm-23.1-211.68c0-136.72,52.09-182,70.81-193.81.16,1.12.45,2.32.65,3.42s.37,2.21.63,3.3c.12.52.31,1.05.44,1.57a89.62,89.62,0,0,0,7.75,19.5c0,2.3-.1,4.49-.15,6.74-.06,2.74-.09,5.53-.19,8.19-.08,2.13-.2,4.15-.3,6.23-.14,2.85-.25,5.75-.42,8.5-.09,1.55-.22,2.92-.33,4.41-.22,3.2-.44,6.42-.71,9.48-.06.64-.13,1.23-.19,1.86A358.92,358.92,0,0,1,314,347.56a5.48,5.48,0,0,0-.22.72s-.44,1.77-1.21,4.57c-1.3,4-2.55,8.25-3.75,12.59-.21.65-.39,1.2-.61,1.91v.07c-.54,1.6-1.12,3.35-1.74,5.17-.13.38-.28.78-.42,1.16-.51,1.49-1.06,3-1.63,4.6-.21.56-.44,1.16-.65,1.74-.55,1.46-1.1,2.94-1.7,4.46-.27.71-.56,1.43-.85,2.14-.57,1.44-1.15,2.89-1.76,4.37-.34.82-.7,1.66-1.06,2.49-.6,1.43-1.21,2.86-1.85,4.29-.4.9-.81,1.81-1.23,2.72-.63,1.39-1.3,2.78-2,4.21q-.67,1.43-1.38,2.85-1.06,2.08-2.14,4.16c-.5.94-1,1.9-1.52,2.86-.74,1.38-1.5,2.74-2.28,4.1-.54.95-1.07,1.91-1.63,2.85q-1.21,2.06-2.49,4.06c-.56.91-1.12,1.82-1.7,2.71-.91,1.4-1.86,2.75-2.81,4.11-.55.79-1.09,1.61-1.66,2.39-1.14,1.59-2.35,3.12-3.57,4.64-.38.48-.76,1-1.15,1.48-1.62,1.95-3.28,3.83-5,5.62-.48.51-1,.95-1.47,1.43-1.26,1.26-2.52,2.5-3.83,3.65-.71.61-1.42,1.14-2.14,1.72-.92.77-1.88,1.55-2.86,2.26-1.47-23.8-2.19-49.24-2.19-75.77Zm23.25-232.5c.2-.16.45-.41.65-.58.87-.74,1.77-1.57,2.75-2.48l1.48-1.43c1.21-1.18,2.45-2.47,3.73-3.9.3-.33.59-.6.89-1,1.54-1.75,3.09-3.69,4.61-5.77.43-.58.82-1.2,1.24-1.81,1.1-1.6,2.17-3.27,3.2-5,.24-.41.52-.76.76-1.18l.13.28q2.1,4.76,3.77,9.8c.1.33.19.67.3,1,.93,2.92,1.74,5.92,2.46,9,.1.45.22.9.32,1.35a17.74,17.74,0,0,1-26.29,1.72Zm-33.4-21.07a68.24,68.24,0,0,1,2.13-21.06c.23.06.46.08.72.14a36.78,36.78,0,0,0,4.54.89,2.46,2.46,0,0,0,.46.08,33.65,33.65,0,0,0,3.62.22c.25,0,.46-.07.71-.07,1,0,2-.13,3-.27.67-.08,1.34-.13,2-.25a28.14,28.14,0,0,0,3-.81c.45-.15,1-.25,1.43-.42A31.1,31.1,0,0,0,269,103c.29-.16.52-.33.8-.49.94-.54,1.84-1.09,2.68-1.69.41-.28.74-.58,1.12-.86.64-.5,1.28-1,1.85-1.49.35-.33.64-.62,1-.94s.71-.64,1-1l.18.17a87.47,87.47,0,0,1,6,6.81c.34.43.66.87,1,1.3a89.85,89.85,0,0,1,5.22,7.51v.05c0,.13-.1.28-.16.42a55.42,55.42,0,0,1-2.81,5.87q-.21.41-.45.81c-1,1.82-2.14,3.56-3.28,5.2l-.52.71c-1.16,1.6-2.34,3.08-3.53,4.51l-.51.6c-1.19,1.37-2.37,2.65-3.51,3.8l-.45.45c-1.14,1.12-2.24,2.17-3.25,3.07l-.33.29c-1,.86-1.93,1.66-2.72,2.28l-.2.17L266.24,142l-.07.05-.72.51a5.56,5.56,0,0,0-1.48,1.54q-.15.27-.27.54a4.64,4.64,0,0,0-.41.8,35.61,35.61,0,0,0-.39,16.89,45.11,45.11,0,0,1-19.51-35.54,4.51,4.51,0,0,0,0-.52ZM344.07,61A30.07,30.07,0,1,1,314,30.93h30.07ZM267.65,87.94c.58.4,1.22,1,1.82,1.42-.16.17-.3.34-.47.5l-.55.51a21.61,21.61,0,0,1-5.36,3.57,7.65,7.65,0,0,1-.71.32,19.27,19.27,0,0,1-3.23,1l-.24.07a21.64,21.64,0,0,1-3.85.37h-1a24.2,24.2,0,0,1-3.79-.45c-.22,0-.46-.07-.71-.12l-.26-.09a44,44,0,0,1,3.08-5.32l7.09-7.08c.88.47,2,1.12,3.17,1.84l.5.31c1.22.77,2.6,1.68,4,2.72ZM253,46.34c12-16.25,38.42-35.63,96.43-35.65A197.46,197.46,0,0,1,379,13l-.37.16a84.36,84.36,0,0,1-10.45,3.73h0a96.1,96.1,0,0,1-18.28,3.33h-.08l-.63,0H314a40,40,0,0,0-7.88.72,40.51,40.51,0,0,0-32.18,47.41c.13.79.35,1.5.53,2.22a39.1,39.1,0,0,0,1.47,4.84,22.13,22.13,0,0,0,1,2.36,39,39,0,0,0,2.36,4.42c.41.67.79,1.35,1.24,2,.19.28.32.58.52.85l-.22-.2-.16-.15h0c-.59-.52-1.16-1-1.74-1.46s-1.41-1.22-2.08-1.76-1.34-1-1.94-1.48-1.17-.9-1.81-1.37-1.31-.88-1.84-1.25-1-.72-1.6-1.09-1.17-.72-1.63-1-.85-.55-1.39-.85-1-.52-1.43-.78L264.06,73,263,72.47,262.1,72l-.94-.43-.35-.15a3,3,0,0,0-.56-.24,5.35,5.35,0,0,0-5.71,1.19l-7.36,7.37A13.18,13.18,0,0,1,243,74.16,42.46,42.46,0,0,1,253,46.31Zm269.59,61.77L517.67,113v0a2.5,2.5,0,0,0-.18.23s-.07.11-.11.17a2.67,2.67,0,0,0-.32.43,4.68,4.68,0,0,0-.43.75c0,.08-.13.13-.13.21a2.25,2.25,0,0,0-.06.36,3,3,0,0,0-.21.6,46,46,0,0,1-45.49,36.12,5.33,5.33,0,0,0-4.35,2.43c-.85,1.29-21.64,31.77-64.74,18.07a5.33,5.33,0,0,0-1.63-.25c-.15,0-.3.05-.45.06a3.81,3.81,0,0,1-.47.07,5.34,5.34,0,0,0-1.94.71l-1,.57-.62.35-.8.39c-.28.14-.53.28-.86.43l-1.09.49-1.12.51-1.3.51-1.43.55c-.49.19-1.05.36-1.58.54s-1,.37-1.61.55l-1.85.52c-.6.16-1.13.33-1.8.49s-1.45.32-2.1.46-1.25.29-2,.43-1.61.25-2.32.36-1.33.21-2.15.31-1.74.16-2.52.23-1.49.12-2.36.17-1.83,0-2.68,0-1.61,0-2.56,0-1.95-.1-2.85-.16-1.78-.11-2.75-.22-2-.26-2.94-.41-1.95-.25-2.94-.47l-3-.72c-1-.24-2.1-.52-3.12-.78s-2-.61-3.12-1-2.28-.75-3.3-1.13-2.1-.85-3.17-1.29c-.76-.31-1.54-.67-2.32-1-1.7-7.83-7.26-27.64-20.51-31.35-.16-.69-.41-1.29-.58-2q-1.18-4.8-2.71-9.38c-.4-1.14-.72-2.3-1.12-3.42q-2-5.43-4.42-10.54c-.64-1.32-1.34-2.57-2-3.87s-1.35-2.64-2.06-3.9c-.61-1.09-1.33-2.15-2-3.23s-1.15-1.89-1.77-2.79A101,101,0,0,0,290,94.45c-.26-.29-.46-.63-.71-.92.4.3.85.51,1.25.81.73.5,1.48,1,2.25,1.42A38.09,38.09,0,0,0,297,98c.82.35,1.62.74,2.47,1.06a38.13,38.13,0,0,0,4.82,1.43c.76.19,1.5.43,2.28.57a41.81,41.81,0,0,0,7.41.72A40.84,40.84,0,0,0,354.75,61V30.49l1.69-.24.93-.13,2-.31,1.87-.33c.61-.11,1.19-.21,1.83-.34,1.23-.25,2.52-.54,3.85-.86l1.62-.41c1.09-.27,2.14-.57,3.24-.88.51-.15,1-.29,1.54-.46q2.36-.72,4.77-1.6l1.11-.43c1.35-.52,2.69-1.07,4-1.67.5-.21,1-.43,1.48-.66,1.7-.79,3.39-1.62,5.07-2.56l.23-.13c1.6-.9,3.17-1.9,4.71-2.94.22-.15.46-.26.67-.41a250.31,250.31,0,0,1,118.73,70l-6.53,6.53a5.46,5.46,0,0,0-1,1.39,5.37,5.37,0,0,0,2.43,7.18Zm95,131.29a195.22,195.22,0,0,1,4.27,25.31l-33.15-66.3a168.94,168.94,0,0,0-19.08-43.31,168.68,168.68,0,0,1,48,84.27ZM586.37,371.28c1-4.54,1.75-9.06,2.62-13.57.73-3.83,1.56-7.63,2.2-11.43.86-5.15,1.48-10.3,2.19-15.44.48-3.53,1.07-7.07,1.47-10.6.65-5.71,1-11.38,1.47-17.09.19-2.95.54-5.92.71-8.86q.72-12.94.72-25.76c0-5-.16-9.84-.38-14.57,0-.94-.1-1.88-.16-2.81-.26-4.74-.62-9.36-1.1-13.8l26.42,52.85a172.26,172.26,0,0,1-29.86,90.58ZM556.59,538.54l-93.4,46.7a31.78,31.78,0,0,0-18.61-33.09c-.23-.08-.44-.17-.67-.24l-19.09-6.36,77.35-38.68,9.75,19.51.09.16a10.71,10.71,0,1,0,19.07-9.75l-9.74-19.5,4.28-2.14ZM442.06,772.73a19.37,19.37,0,0,1-16.65-1.2l-3.86-54.07c.56-.21,1.09-.49,1.64-.72q4.13-1.69,8.15-3.63c.78-.38,1.56-.71,2.32-1.09q5-2.49,9.92-5.34l.6-.33,11.07,48-1.2,4.83a19.46,19.46,0,0,1-12,13.57Zm-66.85-.18,3.4-44.32c1.67-.21,3.33-.47,5-.71.77-.11,1.53-.2,2.3-.32,3.32-.52,6.63-1.14,9.9-1.86l2.1-.51q3.93-.92,7.79-2c1-.28,1.94-.56,2.9-.86s1.67-.45,2.49-.71l.9,12.66,2.8,39.28-2.31,3.47a19.35,19.35,0,0,1-2.44,3,19.66,19.66,0,0,1-27.8,0Zm-60.37.38,10.85-47c.85.17,1.7.29,2.55.46,1.2.23,2.41.45,3.62.65,1.88.32,3.79.6,5.71.85,1.16.15,2.34.32,3.5.45,2.09.23,4.17.4,6.26.56,1,.07,2,.17,3,.23,3.08.17,6.16.27,9.23.27,2.5,0,5.08-.08,7.74-.21h.51l-3.31,43.1-11.29,11.28a19.66,19.66,0,0,1-27.78,0ZM264,754.8l18.45-44.28c1.09.57,2.21,1.07,3.31,1.61s1.95,1,2.93,1.43q4.31,2,8.71,3.8c.33.12.64.27,1,.4,3.26,1.28,6.56,2.44,9.89,3.51.93.31,1.9.58,2.86.88,1.39.41,2.73.88,4.16,1.25l-2.7,11.75L304.28,771l-10.36,5.18a19.9,19.9,0,0,1-4,1.49,19.65,19.65,0,0,1-23.82-14.31Zm-28.65-43.62,7.86-3.94,18.69-9.34c.71.49,1.47.92,2.18,1.43q3.45,2.4,7,4.65c.65.4,1.27.87,1.92,1.26L254.14,750.5l-2.53,1.26a19.64,19.64,0,0,1-28.39-16.42Z" transform="translate(-131.46 -0.06)" fill="#1a1a1a"/></g></g></svg>