<svg id="Layer_1" data-name="Layer 1" xmlns="http://www.w3.org/2000/svg" viewBox="0 0 699.98 573.44"><path d="M603.38,620.08l-.24-46.64-11.87,46.64Zm-45.24,15.54c.63-.7,30.39-119.76,30.39-119.68-2.26-3.36-17.11-26.88-21.56-34.85-3.75,1.8-7.5,3.52-11.33,5.08a94.8,94.8,0,0,1,9.14,54.61L555,613.67A14.17,14.17,0,0,1,541,625.94H513.53a15.33,15.33,0,0,0-14.29,9.69h58.9ZM396.81,530.47c6.25-1.09,12-5,17-11.8a67.57,67.57,0,0,0,10.15-21.33,213.21,213.21,0,0,1-31.79-9.68,163.06,163.06,0,0,1-7.43,41.17A21.61,21.61,0,0,0,396.81,530.47Zm-28.28,65.39,10.39-.94-8.28-36.87c-.86,1.17-1.64,2.34-2.5,3.43l-.08,34.46Zm-.47,38.28,51.72-4.61-6.48-74.69c-8.13,3.6-13.6,3.83-13.6,3.83l10.24,45.86a14.17,14.17,0,0,1-12.5,17.27s-28.44,2.65-29.38,2.89v9.45Zm-28.36,24,.08-74.93c-4,1.33-13.36,2.58-13.9,2.58l6.17,46.64a14.25,14.25,0,0,1-3.36,11.17,13.9,13.9,0,0,1-10.63,4.85H291.42a15.33,15.33,0,0,0-14.29,9.69ZM100,178.36a12.78,12.78,0,0,1,0,25.55H80.64A27.61,27.61,0,0,0,105,218.67h15a14.27,14.27,0,0,1,11.79,6.25,13.63,13.63,0,0,1,2.43,7.89v70.86a219.07,219.07,0,0,0,8,54.14c19.46,71,70.24,121.64,110.86,110.55a33.91,33.91,0,0,1,6.18-1.72A14.17,14.17,0,0,1,275,479c2.89,23.44,10.31,44.61,21.09,59.61,5.31,7.43,16.25,19.77,29.38,18.83,21.17-1.48,42.1-40.15,38.28-93.12a172.64,172.64,0,0,0-4.22-27.11,14.15,14.15,0,1,1,27.5-6.72,181.81,181.81,0,0,1,4.45,26.09,191.33,191.33,0,0,0,129.38,11.49,191.39,191.39,0,0,0,35.93-13.6c3-1.48,6.1-3.12,9.07-4.84A14.12,14.12,0,0,1,577,448.36a14.41,14.41,0,0,1,8.52,7.19,379.76,379.76,0,0,0,20.39,35.15c2.65,4.22,12,18.13,13.2,20.39a95.09,95.09,0,0,1,12.26,46.25l.4,76.8a14.15,14.15,0,0,1-14.22,14.22H590.09a15.48,15.48,0,0,0-14.29,9.76h62.58s.07-18.75.15-19.37l10.94-81.88a65.58,65.58,0,0,0-2-27.18,154.24,154.24,0,0,1-5.47-41.57c0-25.7,5.94-50.07,16.25-66.79a60.28,60.28,0,0,0,7.34-45.39c0-.08-.08-.16-.08-.24s-.07-.23-.07-.31c-9.07-36.41-25.55-69.06-45.08-89.61a304.91,304.91,0,0,1-46.33-62.89L559,195.31c-8.44-15.31-19.22-24.06-29.53-24.06s-21.09,8.83-29.53,24.06l-7.89,14.46a42.53,42.53,0,0,1-74.53,0l-8-14.38c-8.44-15.31-19.22-24.06-29.53-24.06s-21.1,8.75-29.53,24.06c0,0-59.61,108.52-60.63,111a14.36,14.36,0,0,1-7.73,7.81,14.15,14.15,0,0,1-11-.16,75.79,75.79,0,0,1-45.62-69.53V203.2a52.19,52.19,0,0,1-13.6,2h-.31a14.18,14.18,0,0,1-.24-28.35,27.9,27.9,0,0,0,26.72-33.83,28,28,0,0,0-14,11.33,14.15,14.15,0,0,1-13.28,9.21H105a27.53,27.53,0,0,0-24.38,14.77Zm5-43.05a1.06,1.06,0,0,0,.39-.08H203a56.48,56.48,0,0,1,43.59-22.18A14.21,14.21,0,0,1,259,119.92a56.5,56.5,0,0,1,1.09,56.25,55.62,55.62,0,0,1-6.25,9.06v59.3A47.45,47.45,0,0,0,271,281l54.85-99.38C344.31,148,367.75,143,380.09,143s35.71,5,54.3,38.67l8,14.38a14.18,14.18,0,0,0,24.84,0l8-14.46c9.3-16.79,19.85-26.48,29.53-31.95a50.7,50.7,0,0,1,24.85-6.72c12.34,0,35.7,5,54.29,38.67L599,209.14a273.82,273.82,0,0,0,42,57c20.71,21.72,37.66,53,48.44,89.06a53.84,53.84,0,0,1,46.09,53.13v44.06l12.82,36.8a14.3,14.3,0,0,1-1.88,12.89,14.11,14.11,0,0,1-11.56,5.94H707.75a14.1,14.1,0,0,1-11.56-5.94,14.3,14.3,0,0,1-1.8-12.89l12.81-36.8V408.36a25.33,25.33,0,0,0-11.56-21.25,88.68,88.68,0,0,1-13.12,49c-7.58,12.19-12,31.57-12,51.88a125.7,125.7,0,0,0,4.45,33.83,95.69,95.69,0,0,1,2.81,38.75l-10.86,80.93v16.88a28.08,28.08,0,0,1-28,28h-69.6a22.43,22.43,0,0,1-9.54-2.11,22.78,22.78,0,0,1-13.12-20.39h-54a22.67,22.67,0,0,1-22.65-22.82,43.76,43.76,0,0,1,43.67-43.51h15L536.74,537a66,66,0,0,0-8.29-41.56c-.15,0-.23.08-.39.08a218.68,218.68,0,0,1-56.17,7.26c-6.56,0-13.2-.31-19.76-.93a106.34,106.34,0,0,1-12.43,29.14l8.44,96.4a28.08,28.08,0,0,1-25.47,30.39l-55,4.85A28,28,0,0,1,340,686.48H270.33a22.4,22.4,0,0,1-16-6.64,22.63,22.63,0,0,1-6.64-16.17,43.76,43.76,0,0,1,43.67-43.51h10.47l-5.62-42.58c-8.36-5.16-16.17-12.66-23.13-22.35C262.13,539.92,253.92,520,249.39,498a68.93,68.93,0,0,1-8,.47c-23,0-46.71-10.71-68.51-31.17-26.09-24.46-46.72-60.63-58-101.8a246.71,246.71,0,0,1-9-61.25V247H105a55.86,55.86,0,0,1,0-111.72Z" transform="translate(-49.16 -113.05)" fill="#633"/><path d="M80.64,178.36a27.08,27.08,0,0,1,24.14-14.61H210.56a14.25,14.25,0,0,0,13.28-9.22,27.73,27.73,0,0,1,14-11.33A27.89,27.89,0,0,1,211.11,177a14.18,14.18,0,0,0,.23,28.36h.32a60.43,60.43,0,0,0,13.59-2v41.25a75.71,75.71,0,0,0,45.63,69.53,14,14,0,0,0,18.75-7.66c1-2.57,60.62-111,60.62-111,8.44-15.31,19.22-24.06,29.53-24.06s21.1,8.75,29.53,24.06l8,14.37a42.53,42.53,0,0,0,74.53,0l8-14.45c8.44-15.31,19.22-24.06,29.53-24.06s21.1,8.75,29.53,24.06L574,223a302,302,0,0,0,46.33,62.89c19.53,20.55,35.94,53.2,45.08,89.61,0,.08.08.23.08.31s.07.16.07.24a60.24,60.24,0,0,1-7.34,45.39C647.91,438.2,642,462.5,642,488.2a154.3,154.3,0,0,0,5.47,41.57A66.68,66.68,0,0,1,649.39,557l-10.94,81.88c-.07.62-.15,19.37-.15,19.37H575.72a15.45,15.45,0,0,1,6.72-7.73,15,15,0,0,1,7.58-2h27.42a14.21,14.21,0,0,0,10.08-4.14,14.49,14.49,0,0,0,4.14-10.08l-.39-76.8A95,95,0,0,0,619,511.17c-1.25-2.26-10.47-16.17-13.2-20.39a389.22,389.22,0,0,1-20.39-35.16,14.16,14.16,0,0,0-8.52-7.18,14.38,14.38,0,0,0-11.09,1.25c-3,1.72-6,3.36-9.06,4.84a187,187,0,0,1-35.94,13.59,190.45,190.45,0,0,1-48.91,6.33,188.47,188.47,0,0,1-80.47-17.81A200.62,200.62,0,0,0,387,430.55a14.15,14.15,0,0,0-27.5,6.72,171.54,171.54,0,0,1,4.22,27.1c3.83,53-17.11,91.57-38.28,93.13-13.13.94-24.07-11.41-29.38-18.83-10.78-15-18.28-36.17-21.09-59.61a14.21,14.21,0,0,0-15.78-12.34,35,35,0,0,0-6.17,1.72c-40.63,11.09-91.41-39.53-110.79-110.55a219.14,219.14,0,0,1-8-54.14v-71a14.44,14.44,0,0,0-2.43-7.89A14.27,14.27,0,0,0,120,218.59H105a27.52,27.52,0,0,1-24.38-14.76H100a12.74,12.74,0,0,0,0-25.47Z" transform="translate(-49.16 -113.05)" fill="#fc6"/><path d="M182,187.89a12.89,12.89,0,1,1-12.89-12.81A12.9,12.9,0,0,1,182,187.89Z" transform="translate(-49.16 -113.05)" fill="#633"/><path d="M277.13,658.13a15.53,15.53,0,0,1,14.29-9.77h26.64a14.14,14.14,0,0,0,14-16l-6.17-46.64c.54,0,9.92-1.25,13.9-2.57l-.08,75ZM397.52,621.8A14.31,14.31,0,0,0,407.67,616,14.63,14.63,0,0,0,410,604.53l-10.16-45.94s5.39-.23,13.59-3.82l6.49,74.68-51.88,4.61v-9.45C369,624.38,397.44,621.8,397.52,621.8Zm26.4-124.46a71.22,71.22,0,0,1-10.15,21.33c-5,6.88-10.71,10.78-17,11.8a22.41,22.41,0,0,1-12.11-1.64,166.69,166.69,0,0,0,7.43-41.17A216.12,216.12,0,0,0,423.92,497.34Z" transform="translate(-49.16 -113.05)" fill="#fc6"/><path d="M420.8,416a14.11,14.11,0,0,1,17.42-9.85A124.62,124.62,0,0,0,472,410.7a126.46,126.46,0,0,0,32.58-4.22,123.4,123.4,0,0,0,29.84-12.18,14.15,14.15,0,0,1,14,24.61,155.78,155.78,0,0,1-117.66,14.53A14.13,14.13,0,0,1,420.8,416Z" transform="translate(-49.16 -113.05)" fill="#633"/><path d="M499.24,635.63a15.46,15.46,0,0,1,14.21-9.77h27.43a14.16,14.16,0,0,0,14.06-12.27l9.76-72.89a94.69,94.69,0,0,0-9.14-54.61c3.83-1.64,7.58-3.28,11.33-5.07,4.45,8,19.3,31.48,21.56,34.84,0,0-29.76,119.06-30.31,119.76h-58.9Z" transform="translate(-49.16 -113.05)" fill="#fc6"/></svg>