<?xml version="1.0" encoding="iso-8859-1"?>
<!-- Uploaded to: SVG Repo, www.svgrepo.com, Generator: SVG Repo Mixer Tools -->
<svg height="800px" width="800px" version="1.1" id="Layer_1" xmlns="http://www.w3.org/2000/svg" xmlns:xlink="http://www.w3.org/1999/xlink" 
	 viewBox="0 0 512.001 512.001" xml:space="preserve">
<path style="fill:#D4CABF;" d="M311.696,200.459c-8.808-5.565-19.104-9.408-30.813-11.58c4.292-19.596,10.981-41.505,19.896-64.108
	C328.628,54.23,367.714,3.553,388.08,11.601c20.378,8.038,14.331,71.75-13.517,142.291c-11.409,28.929-24.712,54.508-37.844,74.072
	C330.629,216.266,322.238,207.126,311.696,200.459z"/>
<path style="fill:#B3B3B3;" d="M336.719,227.964c13.111,25.237,15.465,62.407,5.351,112.484
	c-5.49,27.185-12.394,49.724-20.656,67.704c-4.185-32.675-31.765-58.029-65.414-58.725c0.482-0.021,0.953-0.021,1.434-0.021h-2.868
	c0.482,0,0.953,0,1.434,0.021c-33.649,0.696-61.229,26.05-65.414,58.725c-8.262-17.98-15.166-40.52-20.656-67.704
	c-10.114-50.077-7.759-87.247,5.351-112.484c6.09-11.698,14.481-20.838,25.023-27.495c8.808-5.576,19.104-9.418,30.813-11.591
	c7.695-1.434,16-2.141,24.883-2.141c8.883,0,17.188,0.706,24.883,2.141c11.709,2.173,22.004,6.015,30.813,11.58
	C322.238,207.126,330.629,216.266,336.719,227.964z"/>
<path style="fill:#FFF3E6;" d="M314.425,444.595c-10.97,16.857-32.814,24.37-58.115,24.702c-0.096,0-0.203,0-0.31,0
	c-0.107,0-0.214,0-0.31,0c-25.301-0.332-47.145-7.845-58.115-24.702c-4.827-7.406-7.545-16.61-7.545-27.795
	c0-2.922,0.182-5.811,0.557-8.637v-0.011c4.185-32.675,31.765-58.029,65.414-58.725c33.649,0.696,61.229,26.05,65.414,58.725v0.011
	c0.375,2.826,0.557,5.715,0.557,8.637C321.971,427.985,319.252,437.189,314.425,444.595z"/>
<path style="fill:#CCC2B8;" d="M256.311,469.296c25.301-0.332,47.145-7.845,58.115-24.702
	c-0.396,39.557-26.221,56.178-58.329,56.691c-0.064,0-0.128,0-0.193,0c-32.108-0.514-57.944-17.145-58.329-56.691
	c10.97,16.857,32.814,24.37,58.115,24.702c0.096,0,0.203,0,0.31,0C256.107,469.296,256.214,469.296,256.311,469.296z"/>
<path style="fill:#D4CABF;" d="M200.304,200.469c-10.542,6.657-18.933,15.797-25.023,27.495
	c-13.132-19.564-26.435-45.143-37.844-74.072C109.589,83.351,103.542,19.639,123.92,11.601
	c20.367-8.048,59.453,42.628,87.301,113.169c8.915,22.604,15.604,44.501,19.896,64.098v0.011
	C219.408,191.051,209.112,194.893,200.304,200.469z"/>
<path d="M410.061,60.32c3.132-32.974-2.943-52.714-18.047-58.671c-15.105-5.971-33.022,4.304-53.253,30.529
	c-17.085,22.148-34.109,53.636-47.938,88.666c-7.462,18.919-13.638,38.089-18.108,56.05c-5.348-0.568-10.936-0.858-16.715-0.858
	c-5.78,0-11.367,0.291-16.713,0.858c-4.467-17.952-10.645-37.123-18.112-56.054c-13.828-35.027-30.852-66.514-47.937-88.663
	C153.007,5.95,135.09-4.32,119.993,1.646c-15.111,5.96-21.185,25.701-18.054,58.675c2.646,27.851,11.717,62.478,25.542,97.499
	c10.441,26.477,22.674,50.869,35.561,70.983c-12.049,27.682-13.269,65.904-3.602,113.766c5.335,26.418,12.128,49.039,20.198,67.32
	c-0.202,2.269-0.31,4.581-0.31,6.913c0,11.666,2.575,22.05,7.638,30.926c0.832,20.197,7.997,36.726,20.849,47.921
	c11.392,9.926,27.05,15.513,45.391,16.256c0.447,0.057,0.899,0.096,1.361,0.096c0.488,0,0.975-0.001,1.453-0.011h0.077
	c0.021,0,0.044,0,0.066,0c0.421,0.006,0.844,0.011,1.271,0.011c0.462,0,0.915-0.04,1.361-0.096
	c18.342-0.744,33.998-6.331,45.387-16.252c12.848-11.193,20.015-27.723,20.852-47.925c5.064-8.88,7.638-19.264,7.638-30.927
	c0-2.332-0.108-4.644-0.31-6.913c8.07-18.281,14.863-40.903,20.198-67.32c9.665-47.858,8.446-86.078-3.604-113.765
	c12.886-20.112,25.119-44.504,35.56-70.979C398.344,122.799,407.416,88.172,410.061,60.32z M123.249,58.297
	c-2.654-27.951,2.951-36.09,4.604-36.742c1.64-0.643,11.289,1.466,28.438,23.698c15.892,20.601,31.864,50.238,44.973,83.446
	c6.975,17.685,12.753,35.538,16.971,52.264c-3.853,1.121-7.556,2.426-11.092,3.926c-4.561-15.525-11.081-34.258-18.632-53.397
	c-17.84-45.2-34.3-74.718-42.699-83.919c-3.984-4.367-10.752-4.673-15.12-0.69c-4.366,3.985-4.675,10.754-0.689,15.12
	c3.955,4.333,18.598,26.675,38.597,77.346c8.198,20.779,15.111,40.944,19.463,56.66c-4.62,3.601-8.802,7.693-12.54,12.241
	c-10.115-17.089-19.711-36.935-28.132-58.285C134.284,116.756,125.709,84.202,123.249,58.297z M256,360.138
	c27.686,0.683,51.189,21.791,54.779,49.223c0.007,0.07,0.017,0.14,0.026,0.21c0.308,2.32,0.463,4.752,0.463,7.23
	c0,8.651-1.954,16.036-5.814,21.958c-8.116,12.468-25.594,19.512-49.217,19.835h-0.441c-23.625-0.317-41.106-7.351-49.236-19.816
	c-0.028-0.043-0.052-0.089-0.081-0.132c-3.811-5.898-5.747-13.245-5.747-21.846c0-2.477,0.156-4.909,0.463-7.23
	c0.01-0.067,0.018-0.137,0.026-0.205C204.809,381.931,228.312,360.821,256,360.138z M256.023,490.584
	c-14.635-0.243-31.186-4.144-40.454-18.281c10.704,4.624,23.472,7.237,37.857,7.645c0.375,0.04,0.755,0.062,1.14,0.062
	c0.422,0,0.844-0.001,1.267-0.012h0.477c0.026,0,0.05,0,0.076,0c0.349,0.006,0.699,0.012,1.048,0.012
	c0.385,0,0.765-0.022,1.14-0.062c14.382-0.408,27.148-3.021,37.85-7.642C287.165,486.427,270.641,490.333,256.023,490.584z
	 M331.579,338.33c-2.859,14.156-6.137,27.086-9.797,38.714c-3.978-6.718-8.963-12.864-14.848-18.186
	c-13.205-11.938-30.076-18.974-47.789-20.005c-0.559-0.09-1.127-0.15-1.711-0.15h-2.868c-0.584,0-1.153,0.06-1.711,0.15
	c-17.712,1.033-34.584,8.068-47.788,20.005c-5.885,5.321-10.87,11.468-14.848,18.186c-3.66-11.628-6.938-24.558-9.797-38.714
	c-9.358-46.337-7.9-81.792,4.33-105.377c0.009-0.017,0.017-0.034,0.027-0.052c5.132-9.855,12.278-17.722,21.25-23.388
	c7.552-4.781,16.65-8.183,27.049-10.112c6.977-1.3,14.689-1.96,22.923-1.96c8.233,0,15.946,0.659,22.93,1.961
	c10.387,1.928,19.487,5.328,27.045,10.102c8.97,5.673,16.12,13.546,21.246,23.395c0.001,0.002,0.002,0.004,0.003,0.006
	c0.007,0.014,0.013,0.028,0.02,0.041C339.479,256.538,340.938,291.993,331.579,338.33z M336.477,208.248
	c-3.737-4.548-7.92-8.641-12.541-12.247c4.353-15.722,11.267-35.885,19.464-56.652c7.584-19.214,15.484-36.956,22.848-51.309
	c2.698-5.259,0.622-11.71-4.637-14.408c-5.26-2.698-11.71-0.622-14.408,4.637c-7.786,15.178-15.765,33.084-23.713,53.222
	c-7.551,19.132-14.072,37.865-18.634,53.394c-3.536-1.499-7.238-2.804-11.088-3.922c4.22-16.735,9.997-34.587,16.968-52.262
	c13.111-33.21,29.083-62.848,44.975-83.449c17.149-22.232,26.795-24.349,28.444-23.694c1.647,0.649,7.252,8.788,4.598,36.739
	c-2.461,25.906-11.035,58.46-24.145,91.669C356.188,171.315,346.591,191.159,336.477,208.248z"/>
<path d="M366.187,47.571c-1.114,1.22-2.29,2.688-3.596,4.489c-3.471,4.784-2.407,11.477,2.378,14.948
	c1.899,1.376,4.097,2.04,6.276,2.04c3.312,0,6.578-1.534,8.672-4.419c1.021-1.407,1.695-2.207,2.081-2.629
	c3.985-4.366,3.675-11.135-0.69-15.121C376.941,42.897,370.172,43.206,366.187,47.571z"/>
<path d="M210.621,270.047c-16.229,0-29.432,13.198-29.432,29.421c0,5.91,4.792,10.703,10.703,10.703s10.703-4.793,10.703-10.703
	c0-4.42,3.6-8.016,8.027-8.016c4.42,0,8.016,3.596,8.016,8.016c0,5.91,4.792,10.703,10.703,10.703
	c5.911,0,10.703-4.793,10.703-10.703C240.043,283.245,226.844,270.047,210.621,270.047z"/>
<path d="M218.344,418.112l9.365,15.604c2.007,3.345,5.551,5.197,9.186,5.197c1.874,0,3.774-0.493,5.498-1.528
	c5.068-3.042,6.712-9.615,3.669-14.684l-9.365-15.604c-3.042-5.069-9.617-6.713-14.684-3.67
	C216.945,406.47,215.303,413.044,218.344,418.112z"/>
<path d="M301.379,270.047c-16.223,0-29.421,13.198-29.421,29.421c0,5.91,4.792,10.703,10.703,10.703s10.703-4.793,10.703-10.703
	c0-4.42,3.596-8.016,8.016-8.016c4.427,0,8.027,3.596,8.027,8.016c0,5.91,4.792,10.703,10.703,10.703s10.703-4.793,10.703-10.703
	C330.811,283.245,317.608,270.047,301.379,270.047z"/>
<path d="M269.607,437.386c1.724,1.035,3.623,1.528,5.498,1.528c3.635,0,7.179-1.853,9.186-5.197l9.365-15.604
	c3.042-5.068,1.399-11.642-3.669-14.684c-5.068-3.04-11.642-1.4-14.684,3.67l-9.365,15.604
	C262.896,427.77,264.54,434.345,269.607,437.386z"/>
</svg>