<svg id="Layer_1" data-name="Layer 1" xmlns="http://www.w3.org/2000/svg" xmlns:xlink="http://www.w3.org/1999/xlink" viewBox="0 0 663.56 750.01"><defs><linearGradient id="linear-gradient" x1="-17.94" y1="576.97" x2="-17.94" y2="603.82" gradientTransform="matrix(6.25, 0, 0, -6.25, 582.75, 4332.79)" gradientUnits="userSpaceOnUse"><stop offset="0" stop-color="#484d51"/><stop offset="0.35" stop-color="#424548"/><stop offset="0.85" stop-color="#343434"/></linearGradient><linearGradient id="linear-gradient-2" x1="-65.75" y1="575.05" x2="-65.75" y2="638.29" xlink:href="#linear-gradient"/><linearGradient id="linear-gradient-3" x1="-22.23" y1="694.72" x2="-22.61" y2="676.52" gradientTransform="matrix(6.25, 0, 0, -6.25, 582.75, 4332.79)" gradientUnits="userSpaceOnUse"><stop offset="0.16" stop-color="#a9a9a9"/><stop offset="0.28" stop-color="#929394"/><stop offset="0.43" stop-color="#7b7e7f"/><stop offset="0.59" stop-color="#6a6e71"/><stop offset="0.77" stop-color="#606568"/><stop offset="1" stop-color="#5d6265"/></linearGradient><linearGradient id="linear-gradient-4" x1="3.5" y1="642.08" x2="7.96" y2="589.29" gradientTransform="matrix(6.25, 0, 0, -6.25, 582.75, 4332.79)" gradientUnits="userSpaceOnUse"><stop offset="0.16" stop-color="#a9a9a9"/><stop offset="0.33" stop-color="#a2a3a3"/><stop offset="0.57" stop-color="#8f9192"/><stop offset="0.85" stop-color="#707476"/><stop offset="1" stop-color="#5d6265"/></linearGradient><linearGradient id="linear-gradient-5" x1="-50.81" y1="625.62" x2="-44.21" y2="641.5" gradientTransform="matrix(6.25, 0, 0, -6.25, 582.75, 4332.79)" gradientUnits="userSpaceOnUse"><stop offset="0" stop-color="#484d51"/><stop offset="0.42" stop-color="#424548"/><stop offset="1" stop-color="#343434"/></linearGradient><linearGradient id="linear-gradient-6" x1="-35.78" y1="672.61" x2="-41.31" y2="659.46" xlink:href="#linear-gradient-5"/></defs><path d="M532.19,517.69l-126,36.87s12.5,69.57,17.25,94.5,7.12,46.94,4.75,54.69-24.94,23.19-20.81,38.06,39.25,18.44,76.06,13.69,43.37-17.81,44-37.44-13.06-55.25-11.31-64.75,16.62-30.87,18.43-54.06-2.37-81.56-2.37-81.56Z" transform="translate(-80.72 -25)" fill="url(#linear-gradient)"/><path d="M258.19,383.63,141.44,228.56S94.19,247.31,91.5,315s15.12,106.06,13.37,133.69S79,503.06,80.81,546.75s25.88,107.88,25.88,118.56-3.57,70.75,10.25,83.5c12.56,11.63,41.43,14.57,66.43,12.75S236,754.44,236,734.81s-32.94-17.12-35.69-27.62c-1.31-5.19,3.81-7.63,6.81-19.94,1.75-6.94-.31-17.25-.31-17.25s44.75-61.81,54.06-105.06S245.25,479.81,243.5,466s14.69-82.37,14.69-82.37Z" transform="translate(-80.72 -25)" fill="url(#linear-gradient-2)"/><path d="M185.13,335.69c-6.32-9.94-31.19-8.94-49-37s-15.13-58.38-5.82-75.31c7.75-13.94,17.38-18.75,17.38-18.75l.44-13.38a37.94,37.94,0,0,1-16.07-29c-1.37-20.06,5.38-29.44,24.07-44.56a422,422,0,0,1,35.68-25.88S190,73.56,194.94,61.94,222.13,25,261.31,25s69.75,24.06,93.38,49,25.87,47.25,25.37,53.06-19.81,34.75-19.81,34.75l45.94,58.44,101.87,59,76.44,100.5,92.69,77.12,26.06,120.32s26.5,28.06,35,66.87,8.94,95.38-4.44,104.75S691,775.12,637.56,772.87c-42-1.75-41-11.12-40.12-18.75,1.12-9.37,28.06-35.18,31.18-39.25s2.25-45.43-7.56-51.25-28.06-8.43-50.37-35.68-28.07-65.5-28.07-65.5a166.27,166.27,0,0,1-48.12,8.43c-36.56.75-88.25-16.5-88.25-16.5S297.5,506.81,272.06,473.69c-18.44-24-26.75-38.32-26.75-38.32s-24.06-11.12-41.44-45.93c-17.43-34.63-12.5-43.94-18.75-53.75Z" transform="translate(-80.72 -25)" fill="url(#linear-gradient-3)"/><path d="M276.5,167.63c1.31-9.82,6.25-16.94-5.81-24.07s-55.69-4.87-74-4-53.06,0-49.94,14.69c.75,3.69,1.44,10.5,6.69,15.38,15.75,14.62,46.37,16.68,46.37,16.68Z" transform="translate(-80.72 -25)" fill="#44494e"/><path d="M197.13,173.44c5.81,1.12,12.06-26.75,49.93-25.38s46.13,24.07,46.13,24.07-30.56,43.68-42.57,72.18S227,308.5,220.31,310.75,179,310,156.56,292c-18.06-14.5-24.94-32.75-21.37-53.94,1.81-10.87,8.25-18.06,10.93-20.93,2.13-2.32,13.38,12.06,20.07,9.37s5.81-6.94,3.31-9.81-13.81-10.5-13.81-10.5,5.37-8.25,13.12-4.69c6.63,3,13.38,13.13,13.38,13.13s12.25-12.88,17.62-13.82c8.69-1.56,14.69,6.94,14.69,6.94s-18.5,6-20.75,11.38,1.81,12.25,14.69,7.56,18.5-7.38,18.5-7.38.68-20.25-18.94-25.62c-13.81-3.81-25.38,10-25.38,10s-8.43-8.44-13.12-9.81a19.71,19.71,0,0,0-8.69-.44s-6.44-13.63-8.68-20.06-4.88-16.07-4.88-16.07,13.81-5.56,26.75-.43,17.38,15.43,23.13,16.56Z" transform="translate(-80.72 -25)" fill="#aeaeaf"/><path d="M229.44,172.31c-5.69,5.5-6.94,15.38-1.13,19.82s14.25,2.68,19.63-3.32,6.25-15.37,1.56-18.94-13.13-4.25-20.06,2.44Z" transform="translate(-80.72 -25)"/><path d="M181.31,188.81c-5.56,5-13.12.25-15.81-3.31-3.88-5.19-5.13-13.13-2.87-16.25s10.24-4.44,15.81.69S186,184.56,181.31,188.81Z" transform="translate(-80.72 -25)"/><path d="M178.44,256.75c21.62.69,30.06-.25,35.87-.69,2.57-.18,8-3.56,14.5.25s4.94,13.82-3.81,14.07-10.5-1.32-10.5-1.32-13,2.82-36.31.88c-21.63-1.81-29.44-6.69-29.44-6.69s-10,4.13-12.06-3.31,4.62-12.13,10.5-9.56c5.75,2.37,12.25,5.81,31.25,6.37Z" transform="translate(-80.72 -25)"/><path d="M533.69,439.06c7.93,16.38,27.62,34.75,41.43,31.19s16.07-9.81,26.75-15.12a41.35,41.35,0,0,1,20.5-4.44s-16.93,20.5-20.93,41.43-12.94,78,25.87,103.38,76.19-17.81,76.19-17.81,10.69-69.56,3.12-117.69-33-92.31-55.68-105.63c-15.13-8.93-23.19-6.25-43.25-12.93-16.57-5.5-41.88-17.38-59.75-30.32s-37-27.62-37-27.62c.69-3.63,18.68,48.75,17.81,81.56C528.19,386.5,526.06,423.5,533.69,439.06Z" transform="translate(-80.72 -25)" fill="url(#linear-gradient-4)"/><path d="M514.25,286.75s8.87,56.44,5.63,96.13c-3.38,41.81-29.38,67.81-30.5,78-1.88,16.87-11.32,104-29.38,108.56-25.06,6.25-76.87-151.5-76.87-151.5L514.25,286.75Z" transform="translate(-80.72 -25)" fill="#44494e"/><path d="M348.56,180.69s8.25-3.13,17.06-7.5c7.13-3.56,12.5-10.94,12.5-10.94s39.94-7.12,79.82,29.12S521.5,272.19,512,342.31s-38.62,111.75-38.62,111.75,3.56,58.25-8.32,98.63-60.62,124.18-62.37,146.18,25.12,26.5,32.56,45.25c6.56,16.57-5.37,29.94-44.56,30.57s-80.25,2.06-82-15.63c-3-29.87,18.56-35.19,17.37-71.44s-26.75-74.31-30.31-131.31S303.5,482,303.5,482s-3.56-80.25,7.13-133.69,49.31-95.69,47.56-122.44c-1.94-26.75-9.63-45.18-9.63-45.18Z" transform="translate(-80.72 -25)" fill="#5d6265"/><path d="M338.19,290.63c.12-.38.25-.75.37-1.07,1.69-4.81,3.5-9.87,2.63-14.87a4.21,4.21,0,0,0-1.82-3.19c-1.18-.62-2.68-.12-3.87.56-7.31,4.25-9.63,13.94-14.37,20.44-6.82,9.25-14.57,18.38-24.44,24.44-16.75,10.37-38.88,15.37-58.13,18.31-1.81.25-3.81.63-4.93,2.06-6.69,8.13,31.93,15.63,64.93,9.75-5.75,17.63,6.88,40.75,12.94,58.19,4.06,11.63,2.94,24.31,1.13,36.25-.38,2.5-5.07,19.44.56,19.25,2.18-.06,5.06-9.5,6-11.19,3.37-6.12,7.12-11.68,9.62-18.25a87.64,87.64,0,0,0,5.69-38.87c-1.12-13.19-5.25-25.94-6.56-39.13-2.13-21.18,3.25-42.5,10.25-62.68Z" transform="translate(-80.72 -25)" fill="url(#linear-gradient-5)"/><path d="M358.63,191c2.25-5.81,4.31-9.87,6.81-12.81,4.87-8.25,19.06-15.06,19.06-37.5,0-18.56-10.88-39.44-10.88-39.44s-4.87,35.75-14.68,44.13-21.69,11.31-34.44,11.75c-25.81.81-9.81,19.06.62,31.75,11.32,13.68,18.07,29.62,22.25,46.75,6.69-13.38,5.19-30.5,11.25-44.63Z" transform="translate(-80.72 -25)" fill="url(#linear-gradient-6)"/><path d="M133.25,719.94c-2.69-22.13,11.44-38.81,2.44-60.88-5-12.18-13.13-22.81-19.07-34.56-16-31.94-11-66.12-.56-98.87,6.75-21.13,16.25-43.5,9.57-64.57,4.68,9.82,9.43,19.57,14.12,29.38a197.55,197.55,0,0,0-8.19-103.81c-8.25-22.88-20.75-44.19-26.75-67.75-3.93-15.63-3.31-43.44,4.82-62.57C100.44,269.63,92.56,288.5,91.5,315c-2.69,67.75,15.13,106.06,13.38,133.69S79,503.06,80.81,546.75s25.88,107.88,25.88,118.56-3.57,70.75,10.25,83.5c9.43,8.75,28.06,12.57,47.31,13.13C151.25,754.94,135,734.69,133.25,719.94Z" transform="translate(-80.72 -25)" fill="#5d6265"/></svg>