<svg id="Layer_1" data-name="Layer 1" xmlns="http://www.w3.org/2000/svg" xmlns:xlink="http://www.w3.org/1999/xlink" viewBox="0 0 1025.8 549.58"><defs><linearGradient id="linear-gradient" x1="444.73" y1="-178.15" x2="442.98" y2="-164.17" gradientTransform="matrix(6.23, -0.46, 0.46, 6.23, -2166.97, 1671.65)" gradientUnits="userSpaceOnUse"><stop offset="0.31" stop-color="#b3885d"/><stop offset="0.57" stop-color="#a87c5b"/><stop offset="0.93" stop-color="#926757"/></linearGradient><linearGradient id="linear-gradient-2" x1="468" y1="-183.54" x2="466.17" y2="-163.39" gradientTransform="matrix(6.23, -0.46, 0.46, 6.23, -2166.97, 1671.65)" gradientUnits="userSpaceOnUse"><stop offset="0.48" stop-color="#b3885d"/><stop offset="0.73" stop-color="#a4785b"/><stop offset="0.98" stop-color="#926757"/></linearGradient><linearGradient id="linear-gradient-3" x1="452.46" y1="-159.82" x2="454.54" y2="-178.24" gradientTransform="matrix(6.23, -0.46, 0.46, 6.23, -2166.97, 1671.65)" gradientUnits="userSpaceOnUse"><stop offset="0" stop-color="#875c53"/><stop offset="0.55" stop-color="#fbae61"/></linearGradient><linearGradient id="linear-gradient-4" x1="461.66" y1="-157.06" x2="477" y2="-178.96" gradientTransform="matrix(6.23, -0.46, 0.46, 6.23, -2166.97, 1671.65)" gradientUnits="userSpaceOnUse"><stop offset="0" stop-color="#875c53"/><stop offset="0.14" stop-color="#a06d56"/><stop offset="0.42" stop-color="#df995c"/><stop offset="0.56" stop-color="#fbae61"/></linearGradient><radialGradient id="radial-gradient" cx="434.12" cy="-178.24" r="22.89" gradientTransform="matrix(6.23, -0.46, 0.46, 6.23, -2166.97, 1671.65)" gradientUnits="userSpaceOnUse"><stop offset="0.23" stop-color="#875c53"/><stop offset="0.28" stop-color="#8a5e53"/><stop offset="0.34" stop-color="#956655"/><stop offset="0.39" stop-color="#a77356"/><stop offset="0.43" stop-color="#c08358"/><stop offset="0.48" stop-color="#e19b5d"/><stop offset="0.51" stop-color="#fbae61"/></radialGradient><linearGradient id="linear-gradient-5" x1="501.06" y1="-204" x2="503.45" y2="-196.74" gradientTransform="translate(-2257.5 1431.72) scale(6.25)" gradientUnits="userSpaceOnUse"><stop offset="0.21" stop-color="#ac8979"/><stop offset="0.31" stop-color="#b59483"/><stop offset="0.48" stop-color="#cdb099"/><stop offset="0.71" stop-color="#f4ddbe"/><stop offset="0.77" stop-color="#ffeac8"/></linearGradient><linearGradient id="linear-gradient-6" x1="485.67" y1="-152.31" x2="485.67" y2="-164.46" gradientTransform="translate(-2261.73 1419.3) rotate(0.22) scale(6.25)" gradientUnits="userSpaceOnUse"><stop offset="0" stop-color="#494e52"/><stop offset="0.35" stop-color="#434649"/><stop offset="0.85" stop-color="#343434"/></linearGradient><linearGradient id="linear-gradient-7" x1="464.05" y1="-151.45" x2="464.05" y2="-180.05" xlink:href="#linear-gradient-6"/><linearGradient id="linear-gradient-8" x1="483.75" y1="-205.56" x2="483.57" y2="-197.33" gradientTransform="translate(-2261.73 1419.3) rotate(0.22) scale(6.25)" gradientUnits="userSpaceOnUse"><stop offset="0.16" stop-color="#aaa"/><stop offset="0.28" stop-color="#929394"/><stop offset="0.43" stop-color="#7c7f7f"/><stop offset="0.59" stop-color="#6b6f72"/><stop offset="0.77" stop-color="#606669"/><stop offset="1" stop-color="#5f6366"/></linearGradient><linearGradient id="linear-gradient-9" x1="495.38" y1="-181.76" x2="497.39" y2="-157.89" gradientTransform="translate(-2261.73 1419.3) rotate(0.22) scale(6.25)" gradientUnits="userSpaceOnUse"><stop offset="0.16" stop-color="#aaa"/><stop offset="0.33" stop-color="#a2a2a2"/><stop offset="0.57" stop-color="#8f9192"/><stop offset="0.85" stop-color="#717577"/><stop offset="1" stop-color="#5f6366"/></linearGradient><linearGradient id="linear-gradient-10" x1="470.8" y1="-174.32" x2="473.79" y2="-181.5" gradientTransform="translate(-2261.73 1419.3) rotate(0.22) scale(6.25)" gradientUnits="userSpaceOnUse"><stop offset="0" stop-color="#494e52"/><stop offset="0.42" stop-color="#434649"/><stop offset="1" stop-color="#343434"/></linearGradient><linearGradient id="linear-gradient-11" x1="477.6" y1="-195.56" x2="475.1" y2="-189.62" xlink:href="#linear-gradient-10"/></defs><path d="M1025,347.21v202.3l-58.8-.2L396.45,547h-.2l-78.6-.3-81.6-.3h-14.6l-221-1H-.85V351.21c18.2-4.4,58.1-14.2,73.3-19.1,14.5-4.7,34.4-3.7,58.8,5h.1a191.82,191.82,0,0,1,17.8,7.3c.4.2.9.4,1.4.6a.1.1,0,0,1,.1.1q5.1,2.4,10.2,5.1a148.36,148.36,0,0,0,26.4,10.3h.2a6.89,6.89,0,0,1,.8.3h0l4.2,1.2c.3.1.6.1.9.2a19.45,19.45,0,0,0,2,.5h0c.3.1.5.1.8.2.9.3,1.8.5,2.6.7s1.8.4,2.8.6c39.3,9.2,87.4,11.5,113.7,6.1,36.7-7.5,76.8-11.7,94.4-2.1s152.8-23.4,194.6-43.7,95.2-3.2,143.6-3.2c4.7,0,9.4-.2,13.9-.6h0c8-.6,15.7-1.8,23.4-3,4.2-.7,8.4-1.5,12.6-2.3h0c5.3-1,10.5-1.9,16-2.8,3.3-.5,6.6-1.1,9.9-1.5h0c2.9-.4,5.9-.8,9-1.1l3.1-.3h.3a1.27,1.27,0,0,0,.6-.1h.5l1.5-.1h0c5.1-.4,10.4-.7,16-.7a229.3,229.3,0,0,1,44.3,4.1c4.6.9,9.1,1.8,13.4,2.8h0c1.6.3,3.1.7,4.6,1,.9.2,1.9.5,2.8.7l1.3.3,2.4.6a.37.37,0,0,1,.3.1c2.2.5,4.3,1.1,6.4,1.6h0q11,2.85,21,6c6.1,1.8,11.9,3.7,17.6,5.5,7.2,2.3,14.1,4.6,20.6,6.6C1002.45,342.11,1014.05,345.51,1025,347.21Z" transform="translate(0.85 -0.24)" fill="#fcdcb4"/><path d="M829.45,372.41s-6.7-16,4.9-23.2,14.4,19.2,14.4,19.2-.9-5.3,1-7.5,3.2,2.5,3,5.9c-.1-7.1,1.3-21.6,12.6-18s3.8,18.9,3.8,18.9,3.7-3.9,4.6-.5-3,5.2-3,5.2,11.9-3.6,12.4.3-7.7,5.7-7.7,5.7Z" transform="translate(0.85 -0.24)" fill="#436731"/><path d="M520.55,396.41s5.3-16.2,19.1-15.5a12.8,12.8,0,0,1,10.5,7.7s-.2-3.9,3.3-4.9,4.8,4.7,4.8,4.7-.7-19.9,10.2-21.9,13.5,13.5,13.3,16.3c.8-5.3,3.3-3.9,4-2.8,0-4.5.8-10.3,4.5-11.5s5.9,4.9,6.4,8.3-.8,8.5-3,12.1-22.5,10-22.5,10L558,403s-24.8,3.2-25,3.3S520.55,396.41,520.55,396.41Z" transform="translate(0.85 -0.24)" fill="#436731"/><path d="M1025,365.31v47l-80.2-14.4h0l-1.5-.3-56.9-10.3-13.4-2.4h0l-10.4-1.9-1.6-.3s1.5-2.9,6.6-5.4h0a31.53,31.53,0,0,1,6.2-2.2h0a14.19,14.19,0,0,1,2.2-.5,14.6,14.6,0,0,1,6.6.1,17.49,17.49,0,0,1,7.8,4,31.79,31.79,0,0,1,2.6,2.6,19.56,19.56,0,0,1,1.7,2.3,11.68,11.68,0,0,1,.7-2.5,4.88,4.88,0,0,1,.6-1.3,2.51,2.51,0,0,1,.4-.7c1.3-2.3,5.1-2,7.5,2.2a20.92,20.92,0,0,1,1,2.1c.2-.6.5-1.2.7-1.8,4.3-9.4,14.2-13.8,24.6-13.2,6.6.4,11.4,7.4,14.2,13.2h0a38,38,0,0,1,1.7,3.8h0c.3.8.6,1.5.8,2h0a9.35,9.35,0,0,1,.4,1.3,9.4,9.4,0,0,1,.1-1.2,7.62,7.62,0,0,1,.9-2.5h0a4.94,4.94,0,0,1,1.9-1.9,5.87,5.87,0,0,1,2-.6c4.9-.6,6,5.8,6,5.8s8.1-11.1,18.2-18.8,24.9,6.9,26.5,12.1c1.4-2.7,3.8-5.1,6.4-3.4C1013.45,368.71,1020,365.91,1025,365.31Z" transform="translate(0.85 -0.24)" fill="#436731"/><path d="M151.25,395.61c-11.9-4.4-19.8,5.5-19.8,5.5a11.24,11.24,0,0,0-1.2-4.7c-1.2-2.9-6-2.9-8.9,2.7a24.66,24.66,0,0,0-6.2-11.2c11.7,3,35,8.2,35.6,3.9a21.12,21.12,0,0,0,.2-2.6,19.86,19.86,0,0,0-2.8-10.3,18.44,18.44,0,0,0-10.4-8c-4.5-1.5-9.5-2.3-14.1-.9a20.15,20.15,0,0,0-7.8,4.6c-.4.4-2.7,2.3-2.7,3a12.19,12.19,0,0,0-1.6-4.5c-1.5-2.8-6.4-2.2-8.9,3.8-3.5-10.9-14.2-16.4-25.7-16.4-11.3,0-18.3,18.5-18.6,19.3,0-.4-.1-5.7-5-6.5a4,4,0,0,0-1.9.1l-.8-.8c-9.4-9.4-25.8,2.4-27.9,7.2-1.1-2.9-3.3-5.8-6.1-4.6-3.8-12.6-12.5-15.6-17.4-16.2v47.3l166.4.1S163.15,400,151.25,395.61Zm-73.1,1.2s.5-5.7-4.4-7.1-6.7,4.7-6.7,4.7-1.3-2.3-3.5-5.7l21.3-2.5A48.26,48.26,0,0,0,78.15,396.81Z" transform="translate(0.85 -0.24)" fill="#436731"/><path d="M207.55,421.51H204c-2.3-.1-4.9-.2-5.5-.6a3.51,3.51,0,0,0-.8-.5,2.23,2.23,0,0,0-2.6-.3h0c-.1.1-.2.1-.4.2a13,13,0,0,1-1.3.3c-2.1.4-5.2.6-5.2.6a9.11,9.11,0,0,0,2.1-2.9c.9-1.9,1-6.6.3-12.6s-.5-10.4.5-22.7-1.8-15.6-1.8-15.6l1.7-2.1,3.9-4.6.9,2.7,1.9,6,2.6-11.1,2.6,2-1.5,5.4-2.5,8.8s-.9,20.8.1,33.5C200.15,420.71,207.55,421.51,207.55,421.51Z" transform="translate(0.85 -0.24)" fill="#8e6341"/><path d="M193.45,420.51c-2.1.4-5.2.6-5.2.6a9.11,9.11,0,0,0,2.1-2.9c.9-1.9,1-6.6.3-12.6s-.5-10.4.5-22.7-1.8-15.6-1.8-15.6l1.7-2.1c3.8,6.1,1.7,19.2,1.3,22.2s.3,18.8,1.2,23.8A31.2,31.2,0,0,1,193.45,420.51Z" transform="translate(0.85 -0.24)" fill="#533624"/><path d="M204,421.51c-2.3-.1-4.9-.2-5.5-.6a3.51,3.51,0,0,0-.8-.5c-2.5-4.6-1.6-17.9-1.6-17.9a66.38,66.38,0,0,0,3.2,15A6.73,6.73,0,0,0,204,421.51Z" transform="translate(0.85 -0.24)" fill="#533624"/><polygon points="203.9 360.08 202.3 365.38 198.2 372.68 196.7 363.18 198.6 369.18 201.2 358.08 203.9 360.08" fill="#533624"/><path d="M192.75,365.41a58.41,58.41,0,0,1,1.3,16.8c-.8,8.1-1.2,11.9-.2,21a163.08,163.08,0,0,1,.7-20A43.58,43.58,0,0,0,192.75,365.41Z" transform="translate(0.85 -0.24)" fill="#533624"/><path d="M196.55,376.11s-2.4,20.2.1,23.2c1.2,1.1,1.3-6.3,1.3-8.5s-.1-13.9.9-18.1c-.7,2.3-1.1,9.7-1.4,14.2s.3,11-.5,11.2c-.3.1-1.1-1.5-.7-10.1S196.55,376.11,196.55,376.11Z" transform="translate(0.85 -0.24)" fill="#533624"/><path d="M195.05,420c-.1.1-.2.1-.4.2h0a29,29,0,0,0-.1-8.9A28.58,28.58,0,0,1,195.05,420Z" transform="translate(0.85 -0.24)" fill="#533624"/><path d="M255.55,346.91c0,3.2-3.8,6.8-4.4,6.8s0,.7-.2,1.6-2.2-.3-2.2.4a.92.92,0,0,1-1.5.8c-.7-.5-1.1.9-1.5,1.3s-1.3,0-1.9-.5-.8,1.4-1.1,1.5-.8-.7-1.3-.9-.4,1.2-1.3,1.7-1.1-.7-1.7-1.1-1.7,1.7-2.1,1.1c-.2-.3-.3-.3-.5-.3s-.5.3-.9.5c-.8.4-.6-.2-2.7.2s-2.7-.3-3.3-1.3-.9,0-1.9,0-1.1-.8-1.6-1.3-.6.7-1.2.7-.3.9-.6,1.8-1-.5-1.5,1.2-1.2,1.2-2.2,1.6-.3,1.7-1.1,1.8-2.1-.2-2.5.5-4.9-.2-5.1-.5-2.1.6-2.4-.1a1.87,1.87,0,0,0-2.2-1.2c-1.3.1-1-.3-1.3-1s-1.6-.8-3-.8h-.1c-1.4,0-1.5-2-1.9-2.5s-.8.7-1.6,1-.5-.6-1.1-1.2-.3.8-.3.8a7.72,7.72,0,0,1-.2,1.5c-.8,3.1-3.6,5.7-6.4,7.5-3.3,2.1-10.5.3-12.3.1s-2-1.1-3.2-2.1-3.1-.4-4.3-1.2-.6-.9-2-1.1c-3.8,1.6-5.6-.7-7.8-.8s-.5-1.7-1.9-1.4a3.38,3.38,0,0,1-2.8-.8c-.7-.4-2.4.8-3.8.3s-.9-1.7-3-1.8-2.1-3.4-3.7-5.7,3.3-2.9.9-3.7a1.61,1.61,0,0,1-.7-.4c-1.5-1.3-.5-4.5-.6-5.3s-2-.2-2.2-2.1-1.7-.9-2.8-.5-2.6-1.2-2.7-1.6-1.8.1-2.7-1-.9-.9-2.4-1.3-1.4-2.7-1.9-3.7a1.27,1.27,0,0,1,0-1.2,11.37,11.37,0,0,1,1.8-3.2c1.1-1.4-.7-2.3-1.3-3.4s-.8-8.7.7-9.7,1.9-1.2,1.7-3.9,1.3-1,3.9-.6.1-1.1.2-3.1,3.3-1.2,4.2-1.3-1.1-1.1-1.5-2.8,3.2.2,3.7-.6.5-.9,1.7-1.1,3.4-.8,4.6.4c.7.6.9.8,1.3.8a5.4,5.4,0,0,0,1.2-.4c1.5-.5,2.8,1.9,3.4,2.7s.7.9,1.4-.6,1.6-.6,2.2-.1,1.8,2.2,1.5.7-1.4-4-.3-4.9,3.8,2.5,4.2,2.4.1-2.3.6-2.3,1.4,2.7,1.8,2.8.2-1.2.7-1.2,1,1.2,1.7,1.1-.2-2.7.1-3.2,1.8.5,1.5-.5c-.2-.7.5-3.2,1.6-5.2a6.35,6.35,0,0,1,1.8-2.3c1.8-1.3,10.6.5,11.7,1.2s.2-3.2.3-4.2.5-.5,1.3-.7,0-3,.5-3.8.4-.2,2-.8,3.3-4.1,8.5-3.6,7.4,6.7,8.1,7.9.3,4.4.3,5.2,1.4-.8,2.5,0,1.1,1,1.4,2,.7-1,1.3-1,1.5,1.7,1.9,1.9,0-1.1.8-1.5,1.5,1.7,1.9,2.1.3-1.3.8-1.3,1.1,1.5,1.6,1.6.2-1,.7-.8,2,2.5,2.8,3.1a5.79,5.79,0,0,1,1.8,2.9c.5,1.3,1.1,2.2.8,2.7a1.89,1.89,0,0,0-.3,2l.1.1c1,1.4.2,1.8.8,2.7s1.5,0,1.8.5.2,2.9.7,2.2,1.9-.8,2-.2.7,1.7.9.5a1.51,1.51,0,0,1,.6-1.2,1.23,1.23,0,0,1,1.4.5c.8.8,1.1.1,2.2.1s1.1,2.3,1.7,2.2a8.17,8.17,0,0,1,2.3,1.1c.3.2,0,1.4.3,2.4s1.6-.3,1.6.7-.6,2.5.3,3.2,1.1,2.8,1.3,2.9.2.7.4,1.2.8-.1,1.2.3.6,1.8,1,2.1,1.1-.9,1.6-.5.7,2.5,1.1,2,1.6-.7,1.8-.2.5,1.1,1.1.9.9,1.3,1.3,2.2,1.1.6,1.8,2a10.37,10.37,0,0,1,.4,1,35.63,35.63,0,0,1,.7,5.2C256.55,344.51,255.55,343.71,255.55,346.91Z" transform="translate(0.85 -0.24)" fill="#8ba33c"/><path d="M238.15,356.41l-2.3,3c-.2.1-.5.3-.9.5-.8.5-.6-.2-2.7.2s-2.7-.3-3.3-1.3-.9,0-1.9,0-1.1-.8-1.6-1.3-.6.7-1.2.7-.3.9-.6,1.8-1-.4-1.5,1.2-1.2,1.2-2.2,1.6-.3,1.7-1.1,1.8-2.1-.2-2.5.5-4.9-.2-5.1-.5-2.1.6-2.4-.1a1.87,1.87,0,0,0-2.2-1.2c-1.3.1-1-.3-1.3-1s-1.6-.8-3-.8h-.1c-1.4,0-1.5-2-1.9-2.5s-.8.7-1.6,1-.5-.6-1.1-1.2-.3.8-.3.8a7.72,7.72,0,0,1-.2,1.5c-.8,3.1-3.6,5.7-6.4,7.5-3.3,2.1-10.5.3-12.3.1s-2-1.1-3.2-2.1-3.1-.4-4.3-1.2-.6-.9-2-1.1c-3.8,1.6-5.6-.7-7.8-.8s-.5-1.7-1.9-1.4a3.38,3.38,0,0,1-2.8-.8c-.7-.4-2.4.8-3.8.3s-.9-1.7-3-1.8-2.1-3.4-3.7-5.7,3.3-2.9.9-3.7a1.61,1.61,0,0,1-.7-.4c-1.5-1.3-.5-4.5-.6-5.3s-2-.2-2.2-2.1-1.7-.9-2.8-.5-2.6-1.2-2.7-1.6-1.8.1-2.7-1-.9-.9-2.4-1.3-1.4-2.7-1.9-3.7a1.27,1.27,0,0,1,0-1.2,8.3,8.3,0,0,0,3.8.7c1.8-.3,8.4-6.7,9.9-6.8s0,2.9,1.7,2.8,1.1-3.4,2.6-2.7.8,2.3,2.1,2.3a4.09,4.09,0,0,1,3.6,2.2c.6,1.4,1.6-.8,2.2-.2s1.3,2.4,1.9,2.2,1.2-2,1.6-1.6.9,1.6,1.5.5,2.4-3.1,3.1-3.1,2.7.1,2.8-1a1.49,1.49,0,0,1,1.6-1.5c.7,0,6.3-1,7.5,2.8.3,1,2,1.1,2.1,1.8s-.9.8.2,1.5.7,2.3,1.3,2.9,1.4-.6,1.8.8-.3,2.5.5,3a7.21,7.21,0,0,1,2.5,3.5c.3,1.3,1.3.4,2.1-.2a2.41,2.41,0,0,1,3.3,2c.2,1.9.3-1,1.2-1s2.1,2.7,3,2.5,2.6-.9,2.9.4.2,2.1,1.1,1.7,1-1.9,1.8-.8c0,0,.4,1.2.9,1.1s1.2-.6,2.3,1.1,2.7,4.4,3.6,6.1c1,1.2,1-3.1,1-4.2s1.6-7.2,2.4-6.4-.1,2.3.8,2.2.3-4.2.9-4.5,2.5.4,2.5-.3-.9-2.4-.1-2.9,1.2,0,1.3-.7,3-2.4,4.8-2.3,7.3-.2,9.9,4.2,2.3,6.7,3.5,8.3,1.7,1.5,1.7,2.5-.5,1.6.8,1.7C238.45,354.21,238.15,356.41,238.15,356.41Z" transform="translate(0.85 -0.24)" fill="#697f36"/><path d="M197.05,361.41c-.8,3.1-3.6,5.7-6.4,7.5-3.3,2.1-10.5.3-12.3.1s-2-1.1-3.2-2.1-3.1-.4-4.3-1.2-.6-.9-2-1.1c-3.8,1.6-5.6-.7-7.8-.8s-.5-1.7-1.9-1.4a3.38,3.38,0,0,1-2.8-.8c-.7-.4-2.4.8-3.8.3s-.9-1.7-3-1.8-2.1-3.4-3.7-5.7,3.3-2.9.9-3.7a1.61,1.61,0,0,1-.7-.4c.9-2.1,2.9-6.5,5.5-7.7a4.47,4.47,0,0,0-.9,2.7s4-3.6,6.3-4.7c.3-.2.3,1.5.3,1.5s2.2-1.8,2.7.4c.4.7,1.1-.4,1.5.5s.3,4.9.8,3.5,2.6-5,3.6-5,4.2.6,3.3-.4-3.1-1.2-3.1-1.2,4.1-1.4,4.7.2,1.9-1.9,2.4.4,2.6.9,2.8,2.4,1.5-.5,2,2.3,1.7,2,1.6,3.1-1,1.8-.1,1.9.9-1.8.9-1.8a21.71,21.71,0,0,1,.1,3.9,10.56,10.56,0,0,0,1.2-2.9,24.67,24.67,0,0,1-.3,3.9,3.46,3.46,0,0,1,2.6-.7,15,15,0,0,0-2.3,1.5c0,.2,2.4.4,2.5.9a8.52,8.52,0,0,0-2.3.4,7.68,7.68,0,0,1,1.5,1.1c.3.4.4,2.3.8,2.2a1.37,1.37,0,0,0,.9-1.3,10.53,10.53,0,0,1,.3,1.8s1.1-1.1,1.8-.2-.1,1.8.7,1.8.6.2,1.1.8,2.8,1.4,3.3,1.1.9-.9,1.7-1.5A2.56,2.56,0,0,1,197.05,361.41Z" transform="translate(0.85 -0.24)" fill="#445025"/><path d="M255.45,347c0,3.2-3.8,6.8-4.4,6.8s0,.7-.2,1.6-2.2-.3-2.2.4a.92.92,0,0,1-1.5.8c-.7-.5-1.1.9-1.5,1.3s-1.3,0-1.9-.5-.8,1.4-1.1,1.5-.8-.7-1.3-.9-.4,1.2-1.3,1.7-1.1-.7-1.7-1.1-1.7,1.7-2.1,1.1-.6-.2-1.4.3-.6-.2-2.7.2-2.7-.3-3.3-1.3-.9,0-1.9,0-1.1-.8-1.6-1.3-.6.7-1.2.7-.3.9-.6,1.8-1-.4-1.5,1.2-1.2,1.2-2.2,1.6-.3,1.7-1.1,1.8-2.1-.2-2.5.5-4.9-.2-5.1-.5-2.1.6-2.4-.1a1.87,1.87,0,0,0-2.2-1.2c-1.3.1-1-.3-1.3-1s-1.6-.8-3-.8c.3-1.2,1.2-3.6,3-3.4,2.3.4,4.4,4.3,5.5,3.6s2.2-1,2.7-.1,1.7-1.1,1.9-1.9,1.7-.9,2.3-1.6-.3-1.8.8-2.4,3.1-.7,3.8-1.4,2.5-3.5,5.8-2.8,5.5,6,8.2,5.2,8.8-2.8,8.6-11.5c3.2.6,6.5,1.4,7.7.5a11.23,11.23,0,0,0,3.3-8.2,35.63,35.63,0,0,1,.7,5.2C256.55,344.61,255.45,343.71,255.45,347Z" transform="translate(0.85 -0.24)" fill="#445025"/><path d="M130.25,333.61" transform="translate(0.85 -0.24)" fill="#2e5025"/><path d="M232.75,319.41c-.6,3.2-3.6.8-5.1,1.1s-.7,5.9-4,9.5-9-2.9-11.6-4.1-5.2,2-6,8-5.1,3.8-5.1,3.8a35.43,35.43,0,0,0,.3-5c0-3.1-1.9-11.5-1.2-12.3s1.1-4,2-4.5.8.8,1.5.8.2-1.3.9-1.5,1.6,2.2,2.1,3.1.5-.2.2-1.7.7-2.2,2.2-1a4.08,4.08,0,0,0,3.7.8c.6-.2.4-4.6.4-5.6s.4-1,.6-1.3-.1-1.7.2-2.2,1,1,1.2-.5,1.7-1.7,3.2-1.7,2.6,3.7,3.5,4.1a4.91,4.91,0,0,1,2.2,1.9c.7,1,1.1.4,1.1-.6,0-.6.6-1.1,1.1-1.4l.1.1c1,1.4.2,1.8.8,2.7s1.5,0,1.8.5.2,2.9.7,2.2,1.9-.8,2-.2.7,1.7.9.5a1.51,1.51,0,0,1,.6-1.2A28.68,28.68,0,0,1,232.75,319.41Z" transform="translate(0.85 -0.24)" fill="#697f36"/><path d="M176.55,303.51c0,4.5-5.5,6.4-7.4,7.5s-.5,7.4-3,9.9-4.7-.2-5.7-1.9a21.74,21.74,0,0,0-5.7-6.6c-2.1-1.6-2.7-5.1-2.9-7.4a5.4,5.4,0,0,0,1.2-.4c1.5-.5,2.8,1.9,3.4,2.7s.7.9,1.4-.6,1.6-.6,2.2-.1,1.8,2.2,1.5.7-1.4-4-.3-4.9,3.8,2.5,4.2,2.4.1-2.3.6-2.3,1.4,2.7,1.8,2.8.2-1.2.7-1.2,1,1.2,1.7,1.1-.2-2.7.1-3.2,1.8.5,1.5-.5c-.2-.7.5-3.2,1.6-5.2.7.6,1.8,1.4,2.4,2C176.75,299.11,176.55,298.91,176.55,303.51Z" transform="translate(0.85 -0.24)" fill="#697f36"/><path d="M178.85,306.11s3.9-4.7,4.4-3.9-.3,1.3.4,1.5a1.65,1.65,0,0,0,1.9-1.4c.2-1,1.6-1.3,1.7-.1s.8,2.6.9,1.7.7-2.8,1.3-2.8,1.2,1.2,1.3.1.7-1,1-1.3.4-.9,1-1.9a2.46,2.46,0,0,1,2-1.3c.6,0,1.4-1.1,3.3-.9s3,3.2,4,2.8,1.6-2.9,2.9-2.5,3.5,4.1,4.6,3.7,2.6-.6,2.6-.6-1.4,2.9-2.3,3.3a3.27,3.27,0,0,0,1.9-.1s-1.6,1.6-2.3,1.3a6.74,6.74,0,0,0,1.1,3.1,13.71,13.71,0,0,1-2.8-1.9,14.51,14.51,0,0,1,0,3.8c-.3-2.1-.7-3.7-.7-3.7s-1.3,3.9-2.5,2.7-.6-4.9-2.4-5.7-5,1.3-7.1,4.6-6.1,7.5-9,3.5S182.75,304.31,178.85,306.11Z" transform="translate(0.85 -0.24)" fill="#697f36"/><path d="M956.45,398.41H954a15.83,15.83,0,0,1-3.9-.4,2.18,2.18,0,0,1-.5-.4,1.51,1.51,0,0,0-1.8-.2h0c-.1,0-.2.1-.3.1a2,2,0,0,1-.9.2,30.54,30.54,0,0,1-3.7.4,5.8,5.8,0,0,0,1.5-2c.6-1.3.7-4.6.2-8.8s-.3-7.3.4-16-1.3-10.9-1.3-10.9l1.2-1.4,2.7-3.3.6,1.9,1.4,4.2,1.9-7.8,1.9,1.4-1.1,3.8-1.7,6.2s-.6,14.6.1,23.6C951.25,397.81,956.45,398.41,956.45,398.41Z" transform="translate(0.85 -0.24)" fill="#8e6341"/><path d="M946.45,397.71a30.54,30.54,0,0,1-3.7.4,5.8,5.8,0,0,0,1.5-2c.6-1.3.7-4.6.2-8.8s-.3-7.3.4-16-1.3-10.9-1.3-10.9l1.2-1.4c2.6,4.3,1.2,13.5.9,15.6a110.54,110.54,0,0,0,.8,16.7A15.17,15.17,0,0,1,946.45,397.71Z" transform="translate(0.85 -0.24)" fill="#533624"/><path d="M953.85,398.31a15.83,15.83,0,0,1-3.9-.4,2.18,2.18,0,0,1-.5-.4c-1.8-3.3-1.1-12.6-1.1-12.6a50.62,50.62,0,0,0,2.2,10.5A4.73,4.73,0,0,0,953.85,398.31Z" transform="translate(0.85 -0.24)" fill="#533624"/><polygon points="954.1 355.08 953 358.88 950.1 363.98 949 357.28 950.4 361.48 952.2 353.68 954.1 355.08" fill="#533624"/><path d="M946.05,358.91a39.72,39.72,0,0,1,.9,11.8c-.6,5.7-.9,8.4-.1,14.7,0-3.1,0-9.2.5-14A31.83,31.83,0,0,0,946.05,358.91Z" transform="translate(0.85 -0.24)" fill="#533624"/><path d="M948.75,366.41s-1.7,14.2.1,16.3c.8.8.9-4.4.9-6s-.1-9.8.6-12.7c-.5,1.6-.8,6.8-1,10s.2,7.8-.4,7.9c-.2,0-.8-1-.5-7.1S948.75,366.41,948.75,366.41Z" transform="translate(0.85 -0.24)" fill="#533624"/><path d="M947.65,397.31c-.1,0-.2.1-.3.1h0a21.46,21.46,0,0,0,0-6.3A31.75,31.75,0,0,1,947.65,397.31Z" transform="translate(0.85 -0.24)" fill="#533624"/><path d="M990.15,345.91c0,2.3-2.6,4.8-3.1,4.8s0,.5-.2,1.1-1.6-.2-1.6.3-.5,1-1,.6-.8.6-1.1.9-.9,0-1.3-.3-.6,1-.8,1.1-.5-.5-.9-.6-.3.9-.9,1.2-.8-.5-1.2-.8-1.2,1.2-1.5.8c-.1-.2-.2-.2-.3-.2s-.3.2-.7.4c-.6.3-.4-.2-1.9.1a1.91,1.91,0,0,1-2.4-.9c-.5-.7-.6,0-1.3,0s-.8-.5-1.2-.9-.4.5-.8.5-.2.6-.4,1.3-.7-.3-1.1.9-.8.9-1.5,1.1-.2,1.2-.8,1.3-1.5-.2-1.7.4-3.5-.1-3.6-.3-1.5.4-1.7-.1-.6-.9-1.6-.8-.7-.2-.9-.7-1.1-.6-2.1-.6h-.1c-1,0-1-1.4-1.3-1.7s-.5.5-1.1.7-.4-.4-.8-.9-.2.6-.2.6c0,.4-.1.7-.1,1.1-.5,2.2-2.5,4-4.5,5.3-2.3,1.5-7.4.2-8.6.1s-1.4-.8-2.3-1.5-2.2-.3-3.1-.9-.5-.6-1.4-.8c-2.7,1.1-3.9-.5-5.5-.6s-.4-1.2-1.4-1a2.83,2.83,0,0,1-2-.5c-.5-.3-1.7.5-2.6.2s-.6-1.2-2.1-1.3-1.5-2.4-2.6-4,2.3-2,.6-2.6c-.2-.1-.3-.2-.5-.3-1-.9-.3-3.2-.4-3.7s-1.4-.1-1.6-1.4-1.2-.6-2-.4-1.8-.9-1.9-1.1-1.3.1-1.9-.7-.6-.6-1.7-.9-1-1.9-1.3-2.6a1.35,1.35,0,0,1,0-.9,8.94,8.94,0,0,1,1.3-2.3c.7-1-.5-1.6-.9-2.4s-.6-6.1.5-6.9,1.3-.9,1.2-2.7.9-.7,2.7-.4.1-.8.1-2.1,2.3-.9,3-.9-.8-.8-1-2,2.3.2,2.6-.4.4-.6,1.2-.8,2.4-.5,3.3.3c.5.5.7.6.9.5a2.94,2.94,0,0,0,.9-.3c1.1-.3,2,1.3,2.4,1.9s.5.6,1-.4,1.2-.4,1.6-.1,1.3,1.6,1.1.5-1-2.8-.2-3.5,2.7,1.8,2.9,1.7,0-1.6.4-1.6,1,1.9,1.3,2,.1-.8.5-.8.7.8,1.2.8-.2-1.9.1-2.2,1.3.4,1-.4c-.2-.5.3-2.3,1.1-3.7a5.52,5.52,0,0,1,1.2-1.6c1.3-.9,7.4.4,8.2.8s.2-2.2.2-3,.4-.3.9-.5,0-2.1.4-2.7.3-.1,1.4-.6,2.3-2.9,6-2.6,5.2,4.7,5.7,5.6.2,3.1.2,3.7,1-.6,1.8,0,.8.7,1,1.4.5-.7.9-.7,1.1,1.2,1.3,1.4,0-.8.6-1,1,1.2,1.3,1.4.2-.9.6-.9.8,1,1.1,1.1.2-.7.5-.6,1.4,1.8,1.9,2.2a5.83,5.83,0,0,1,1.3,2.1c.4.9.7,1.5.6,1.9a1.33,1.33,0,0,0-.2,1.4.1.1,0,0,0,.1.1c.7,1,.1,1.3.6,1.9s1.1,0,1.3.4.1,2.1.5,1.6,1.3-.6,1.4-.1.5,1.2.6.3c.1-.5.2-.7.4-.8a1,1,0,0,1,1,.3c.5.5.8.1,1.5.1s.8,1.6,1.2,1.6a6,6,0,0,1,1.6.8c.2.1,0,1,.2,1.7s1.1-.2,1.1.5-.4,1.8.2,2.3.8,2,.9,2,.1.5.3.8.5-.1.8.2.4,1.2.7,1.4.8-.6,1.1-.3.5,1.8.8,1.4,1.2-.5,1.2-.2.4.8.8.6.6.9.9,1.6.8.4,1.3,1.4a4.88,4.88,0,0,1,.3.7,25.16,25.16,0,0,1,.5,3.7C991,344.21,990.15,343.61,990.15,345.91Z" transform="translate(0.85 -0.24)" fill="#8ba33c"/><path d="M978,352.61l-1.6,2.1c-.2,0-.3.2-.7.4-.6.3-.4-.2-1.9.1a1.91,1.91,0,0,1-2.4-.9c-.5-.7-.6,0-1.3,0s-.8-.5-1.2-.9-.4.5-.8.5-.2.6-.4,1.3-.7-.3-1.1.9-.8.9-1.5,1.1-.2,1.2-.8,1.3-1.5-.2-1.7.4-3.5-.1-3.6-.3-1.5.4-1.7-.1-.6-.9-1.6-.8-.7-.2-.9-.7-1.1-.6-2.1-.6h-.1c-1,0-1-1.4-1.3-1.7s-.5.5-1.1.7-.4-.4-.8-.9-.2.6-.2.6c0,.4-.1.7-.1,1.1-.5,2.2-2.5,4-4.5,5.3-2.3,1.5-7.4.2-8.6.1s-1.4-.8-2.3-1.5-2.2-.3-3.1-.9-.5-.6-1.4-.8c-2.7,1.1-3.9-.5-5.5-.6s-.4-1.2-1.4-1a2.83,2.83,0,0,1-2-.5c-.5-.3-1.7.5-2.6.2s-.6-1.2-2.1-1.3-1.5-2.4-2.6-4,2.3-2,.6-2.6c-.2-.1-.3-.2-.5-.3-1-.9-.3-3.2-.4-3.7s-1.4-.1-1.6-1.4-1.2-.6-2-.4-1.8-.9-1.9-1.1-1.3.1-1.9-.7-.6-.6-1.7-.9-1-1.9-1.3-2.6a1.35,1.35,0,0,1,0-.9,6.18,6.18,0,0,0,2.7.5c1.2-.2,5.9-4.7,7-4.8s0,2.1,1.2,2,.8-2.4,1.9-1.9.6,1.6,1.5,1.6a2.75,2.75,0,0,1,2.5,1.5c.4,1,1.1-.6,1.5-.1s.9,1.7,1.3,1.5.8-1.4,1.1-1.1.7,1.1,1.1.4,1.7-2.2,2.2-2.2,1.9,0,2-.7a1,1,0,0,1,1.1-1c.5,0,4.4-.7,5.3,2,.2.7,1.4.8,1.5,1.2s-.6.5.1,1,.5,1.6.9,2.1,1-.4,1.2.5-.2,1.8.4,2.1a4.42,4.42,0,0,1,1.8,2.5c.2.9.9.3,1.5-.1a1.83,1.83,0,0,1,2.4,1.4c.1,1.4.2-.7.9-.7s1.5,1.9,2.1,1.8,1.8-.6,2.1.3.1,1.5.8,1.2.7-1.4,1.3-.6c0,0,.3.9.7.8s.9-.4,1.6.8,1.9,3.1,2.6,4.3c.7.8.7-2.1.7-2.9s1.1-5.1,1.7-4.5-.1,1.6.6,1.6.2-2.9.7-3.2,1.8.3,1.8-.2-.6-1.7,0-2,.9,0,.9-.5,2.1-1.7,3.4-1.6,5.1-.1,6.9,2.9,1.6,4.7,2.5,5.8,1.2,1.1,1.2,1.8-.3,1.1.5,1.2C978.15,351,978,352.61,978,352.61Z" transform="translate(0.85 -0.24)" fill="#697f36"/><path d="M949.05,356.11c-.5,2.2-2.5,4-4.5,5.3-2.3,1.5-7.4.2-8.6.1s-1.4-.8-2.3-1.5-2.2-.3-3.1-.9-.5-.6-1.4-.8c-2.7,1.1-3.9-.5-5.5-.6s-.4-1.2-1.4-1a2.83,2.83,0,0,1-2-.5c-.5-.3-1.7.5-2.6.2s-.6-1.2-2.1-1.3-1.5-2.4-2.6-4,2.3-2,.6-2.6c-.2-.1-.3-.2-.5-.3.6-1.5,2-4.5,3.9-5.5a3,3,0,0,0-.6,1.9,29.76,29.76,0,0,1,4.4-3.3c.2-.2.2,1,.2,1s1.6-1.3,1.9.3c.3.5.8-.3,1,.3s.2,3.4.5,2.5,1.9-3.5,2.6-3.5,3,.4,2.3-.3a3.86,3.86,0,0,0-2.2-.8s2.9-1,3.3.1,1.3-1.3,1.7.3,1.9.6,2,1.7,1.1-.3,1.4,1.6,1.2,1.4,1.1,2.2-.7,1.3-.1,1.4.7-1.3.7-1.3a18.64,18.64,0,0,1,.1,2.7,5.46,5.46,0,0,0,.8-2.1,17.23,17.23,0,0,1-.2,2.7,2.41,2.41,0,0,1,1.8-.5s-1.6.9-1.6,1.1,1.7.3,1.8.6a5.24,5.24,0,0,0-1.6.3,4.82,4.82,0,0,1,1,.8c.2.3.3,1.6.6,1.6a.82.82,0,0,0,.6-.9c.1.4.2,1.3.2,1.3s.8-.8,1.3-.2-.1,1.3.5,1.3.4.2.8.5,2,1,2.3.8.6-.6,1.2-1.1A2.41,2.41,0,0,1,949.05,356.11Z" transform="translate(0.85 -0.24)" fill="#445025"/><path d="M990.15,345.91c0,2.3-2.6,4.8-3.1,4.8s0,.5-.2,1.1-1.6-.2-1.6.3-.5,1-1,.6-.8.6-1.1.9-.9,0-1.3-.3-.6,1-.8,1.1-.5-.5-.9-.6-.3.9-.9,1.2-.8-.5-1.2-.8-1.2,1.2-1.5.8-.4-.1-1,.2-.4-.2-1.9.1a1.91,1.91,0,0,1-2.4-.9c-.5-.7-.6,0-1.3,0s-.8-.5-1.2-.9-.4.5-.8.5-.2.6-.4,1.3-.7-.3-1.1.9-.8.9-1.5,1.1-.2,1.2-.8,1.3-1.5-.2-1.7.4-3.5-.1-3.6-.3-1.5.4-1.7-.1-.6-.9-1.6-.8-.7-.2-.9-.7-1.1-.6-2.1-.6c.2-.8.9-2.6,2.1-2.4,1.6.3,3.1,3,3.9,2.5s1.6-.7,1.9-.1,1.2-.8,1.4-1.4,1.2-.6,1.6-1.1-.2-1.3.5-1.7,2.2-.5,2.6-1a4.24,4.24,0,0,1,4.1-2c2.4.4,3.9,4.2,5.8,3.7s6.2-2,6.1-8.1c2.2.4,4.6,1,5.4.4a7.6,7.6,0,0,0,2.3-5.7,25.16,25.16,0,0,1,.5,3.7C990.85,344.31,990.15,343.71,990.15,345.91Z" transform="translate(0.85 -0.24)" fill="#445025"/><path d="M902.05,336.61" transform="translate(0.85 -0.24)" fill="#2e5025"/><path d="M974.15,326.61c-.4,2.3-2.5.5-3.6.8s-.5,4.1-2.8,6.7-6.3-2.1-8.2-2.9-3.6,1.4-4.2,5.6-3.6,2.7-3.6,2.7a27.35,27.35,0,0,0,.2-3.5c0-2.1-1.3-8.1-.9-8.6s.8-2.8,1.4-3.2.5.5,1,.5.1-.9.6-1.1,1.1,1.6,1.5,2.1.3-.2.2-1.2.5-1.6,1.5-.7a2.74,2.74,0,0,0,2.6.5c.4-.1.3-3.2.3-4s.3-.7.5-.9-.1-1.2.2-1.5.7.7.8-.4,1.2-1.2,2.3-1.2,1.8,2.6,2.5,2.9a3.85,3.85,0,0,1,1.6,1.3c.5.7.8.3.8-.4a1.33,1.33,0,0,1,.8-1,.1.1,0,0,0,.1.1c.7,1,.1,1.3.6,1.9s1.1,0,1.3.4.1,2.1.5,1.6,1.3-.6,1.4-.1.5,1.2.6.3c.1-.5.2-.7.4-.8A33.21,33.21,0,0,1,974.15,326.61Z" transform="translate(0.85 -0.24)" fill="#697f36"/><path d="M934.65,315.31c0,3.2-3.9,4.5-5.2,5.3s-.3,5.2-2.1,7-3.3-.2-4-1.3a16.15,16.15,0,0,0-4-4.7c-1.4-1.1-1.9-3.6-2.1-5.2a2.94,2.94,0,0,0,.9-.3c1.1-.3,2,1.3,2.4,1.9s.5.6,1-.4,1.2-.4,1.6-.1,1.3,1.6,1.1.5-1-2.8-.2-3.5,2.7,1.8,2.9,1.7,0-1.6.4-1.6,1,1.9,1.3,2,.1-.8.5-.8.7.8,1.2.8-.2-1.9.1-2.2,1.3.4,1-.4c-.2-.5.3-2.3,1.1-3.7.5.4,1.3,1,1.7,1.4S934.65,312.11,934.65,315.31Z" transform="translate(0.85 -0.24)" fill="#697f36"/><path d="M936.25,317.21s2.7-3.3,3.1-2.8-.2.9.3,1,1.2-.3,1.4-1,1.1-.9,1.2-.1.5,1.8.7,1.2.5-2,.9-2,.8.9.9.1.5-.7.7-.9.3-.7.7-1.3a1.64,1.64,0,0,1,1.4-.9c.4,0,1-.8,2.3-.7s2.1,2.3,2.8,2,1.1-2.1,2.1-1.7,2.4,2.9,3.2,2.6,1.8-.4,1.8-.4-1,2.1-1.6,2.3a2.11,2.11,0,0,0,1.3-.1s-1.1,1.1-1.6.9a4,4,0,0,0,.8,2.2,12.21,12.21,0,0,1-2-1.4,11.06,11.06,0,0,1,0,2.7,22,22,0,0,0-.5-2.6s-.9,2.8-1.8,1.9-.4-3.5-1.7-4-3.5.9-5,3.2-4.3,5.3-6.3,2.5S939.05,315.91,936.25,317.21Z" transform="translate(0.85 -0.24)" fill="#697f36"/><path d="M1025,396.41V486h-.3a.9.9,0,0,0-.5.1c-1.8.2-4.3.5-7.4.9-2.1.3-4.6.6-7.3.9h0q-2.25.3-4.8.6l-2.5.3a6.75,6.75,0,0,0-1.4.2l-2.3.3c-6.2.8-13.4,1.6-21.3,2.6-.6.1-1.3.1-1.9.2-5.2.6-10.7,1.3-16.6,2-1,.1-2,.2-3,.4a.9.9,0,0,0-.5.1c-1,.1-2.1.3-3.2.4-1.5.2-3,.4-4.6.5l-7.3.9c-2.4.3-4.7.5-7.1.8l-5,.6c-.4,0-.8.1-1.1.1-2.2.3-4.4.5-6.6.8s-4.4.5-6.7.8-4.6.5-6.9.8-4.7.5-7,.8c-5.9.7-12,1.4-18.2,2.1-3.7.4-7.5.8-11.3,1.3-6.4.7-12.8,1.4-19.5,2.2-1.5.2-3,.3-4.5.5-10.5,1.2-21.3,2.4-32.3,3.6l-8.5.9-2.7.3h0c-1.1.1-2.3.2-3.4.4h0l-3.1.3h-.1c-13.6,1.5-27.6,2.9-41.8,4.4l-14.1,1.5c-2.4.2-4.8.5-7.2.7-4.4.5-8.9.9-13.3,1.4-11.7,1.2-23.4,2.4-35.3,3.5-2.5.3-5,.5-7.6.8-6.4.6-12.7,1.3-19.1,1.9h-.1c-13.9,1.3-27.9,2.7-41.9,3.9h-.4c-7.3.7-14.6,1.3-21.8,2-4.2.4-8.3.8-12.5,1.1l-9.6.9a26.6,26.6,0,0,0-2.8.3h0l-13.8,1.2c-3.3.3-6.7.6-10,.8s-6.6.5-9.9.8l-7.2.6h0c-2.3.2-4.5.4-6.8.5-16.9,1.4-33.6,2.6-49.9,3.8l-13.8.9c-6.8.5-13.6.9-20.2,1.3-2.2.1-4.4.3-6.6.4s-4.4.3-6.6.4-4.4.3-6.5.4l-4.9.3c-4.6.3-9.2.5-13.7.7-.6,0-1.2.1-1.8.1h-.2c-16.3.8-31.8,1.5-46.4,1.9-2.8.1-5.6.2-8.3.2-1.5,0-3,.1-4.5.1-1.8,0-3.5.1-5.3.1h-.8c-2.3,0-4.6.1-6.8.1s-4.5.1-6.7.1h-10.5c-15.9,0-30.1-.4-42.3-1.1-7.7-.5-15.2-1-22.5-1.6-2-.2-4.1-.3-6.1-.5h-.1c-1.7-.1-3.4-.3-5-.4-2.9-.3-5.7-.5-8.5-.8-.3,0-.7-.1-1-.1-3.3-.3-6.5-.6-9.7-1-2.5-.3-5-.5-7.5-.8-7-.8-13.8-1.5-20.5-2.4-29.8-3.7-56.2-8-79-12.4h0c-64-12.4-99.9-25.5-105.6-27.7V394.71c4-.9,9.5-1,11.6-1.5,6.1-1.3,12.1-2.7,18.2-4,6.6-1.4,13.3-2.9,20-4.2,3.7-.8,7.4-1.4,11.2-2.1h0c16.7-2.9,33.6-4.6,50.4-3.4,13.9,1,27.2,4.8,40.4,9.8s26.4,11.3,39.7,17.2h0c.8.4,1.6.7,2.4,1.1s1.8.8,2.8,1.2c.4.2.8.3,1.2.5a24.43,24.43,0,0,0,2.4,1c7.2,3.2,14.6,6.3,22,9.1,2.1.8,4.1,1.5,6.2,2.2,1.5.5,3.1,1,4.6,1.5,2.8.9,5.7,1.7,8.5,2.5a122.51,122.51,0,0,0,15.8,3.1h0c3.4.4,6.8.7,10.3.8,2.8.1,5.9.1,9.2,0h0c50.5-1.1,146.3-17.6,180.6-25.6a425,425,0,0,1,46.4-8.4q4.95-.6,9.9-.9c3-.2,5.9-.4,8.8-.5,12.6-.4,24,.5,33.1,3.4,7.9,2.5,22.5-2.8,40.1-10.9h0c6.7-3.1,13.8-6.6,21.1-10.2,22.6-11.2,47.5-23.8,68.6-29.7a83.4,83.4,0,0,1,21.8-3.5c16.1,0,41,4.1,68.3,9.7h.1l1.2.3c12,2.4,24.5,5.2,36.8,8,.5.1,1,.2,1.4.3,4.1.9,8.3,1.9,12.4,2.8h.1c.3.1.6.1.9.2h0a.37.37,0,0,0,.3.1h0l1.3.3c.4.1.8.2,1.1.3h.2l1.3.3a.37.37,0,0,1,.3.1c5,1.2,10,2.3,14.8,3.4h0c.1,0,.3.1.4.1,9.3,2.2,18.3,4.2,26.6,6.1h0c2.3.5,4.4,1,6.6,1.4h0c3.5.8,6.8,1.5,10.1,2.2,1.9.4,3.7.8,5.5,1.1,1.6.3,3.1.6,4.6.9l3.3.6,1.7.3c1.1.2,2.1.4,3.1.5,6,.9,12.5,1.9,19.3,2.8.2,0,.5.1.7.1,1.2.2,2.4.3,3.6.5l2.1.3c3.4.5,6.8.9,10.3,1.3.5.1,1.1.1,1.6.2.2,0,.4.1.6.1h0a1.27,1.27,0,0,1,.6.1c.3,0,.6.1.8.1a.6.6,0,0,1,.4.1c.6.1,1.2.1,1.8.2C983.65,392.11,1017.25,395.61,1025,396.41Z" transform="translate(0.85 -0.24)" fill="#658f3d"/><path d="M645.45,430.21c-39.7,2.1-140.3,20.8-142.3,30.4s75.8,17.6,75.8,17.6-107.4-1.1-107.9-13.3,127.3-42.1,144.7-43.2,6.1-4.8-15-3.7c-30-4.6-5.3-26.9,15-41.4,22.6-11.2,47.5-23.8,68.6-29.7,9.6-1.4,16.5-1.9,16.5-1.9s-34.1,12.3-59.2,26.7-14.6,25.1,15.8,28.3C688.05,403,685.15,428.11,645.45,430.21Z" transform="translate(0.85 -0.24)" fill="#85a03d"/><path d="M512,478.91s-1-6.7,3-8c.3-2.5,1.7-5.1,3-5s4,2.4,4.2,5.3c.1-8.5,2.2-21.5,4.9-21.3.8,1,.2,4.2.2,4.2s.9-10.6,4.7-8c2.9,1.7.8,5.5.8,5.5s3.4-1.8,4.2,1.2a5.33,5.33,0,0,1-.8,4.8,17.14,17.14,0,0,1,3.9,9.7c.4,5.9.8,5.5,1.6,4.7s1.1-7,3.6-5.3a7.26,7.26,0,0,1,2.6,4.9s2.9,2.7,3.7-.8,1.9-5,3-4.3c.1-2.3,1-8.8,3.7-8.2s4.5,7.5,4.4,10.1c1,1.6,4.6-9.7,6-9.3s1.4,1.3,1.4,1.3,1.6-8.4,4.7-6.5c1-3,4-5.2,5-3.1s.2,6.5.2,8.8-3.8,2.2-3.8,2.2-1.3,4.9.5,5.5,2.5-3.5,4.2-4.4,3.3.7,3.3.7,1.4-5.2,3.1-3.9,1.3,4.1,1.3,4.1,2.3,3,5.1.5,3.6-5.6,6.6-4.7,2.4.5,2.6-.8,3.4-4.2,5.6-.9,2.7,7.1-.6,8.6,7-.1,10.5,4.2-.3,7.4-.3,7.4S523.65,487.71,512,478.91Z" transform="translate(0.85 -0.24)" fill="#85a03d"/><path d="M1025,472.61V486h-.3a.9.9,0,0,0-.5.1c-1.8.2-4.3.5-7.4.9-2.1.3-4.6.6-7.3.9h0q-2.25.3-4.8.6l-2.5.3a6.75,6.75,0,0,0-1.4.2l-2.3.3c-6.2.8-13.4,1.6-21.3,2.6-.6.1-1.3.1-1.9.2-5.2.6-10.7,1.3-16.6,2-1,.1-2,.2-3,.4a.9.9,0,0,0-.5.1c-1,.1-2.1.3-3.2.4-1.5.2-3,.4-4.6.5l-7.3.9c-2.4.3-4.7.5-7.1.8l-5,.6c-.4,0-.8.1-1.1.1-2.2.3-4.4.5-6.6.8s-4.4.5-6.7.8-4.6.5-6.9.8-4.7.5-7,.8c-5.9.7-12,1.4-18.2,2.1-3.7.4-7.5.9-11.3,1.3-6.4.7-12.8,1.4-19.5,2.2-1.5.2-3,.3-4.5.5-10.5,1.2-21.3,2.4-32.3,3.6l-8.5.9-2.7.3h0c-1.1.1-2.3.2-3.4.4h0l-3.1.3h-.1c-13.6,1.5-27.6,2.9-41.8,4.4l-14.1,1.5c-2.4.2-4.8.5-7.2.7-4.4.5-8.9.9-13.3,1.4-11.7,1.2-23.4,2.4-35.3,3.5-2.5.3-5,.5-7.6.8-6.4.6-12.7,1.3-19.1,1.9h-.1c-13.9,1.3-27.9,2.7-41.9,3.9h-.4c-7.3.7-14.6,1.3-21.8,2-4.2.4-8.3.8-12.5,1.1l-9.6.9a26.6,26.6,0,0,0-2.8.3h0l-13.8,1.2c-3.3.3-6.7.6-10,.8s-6.6.5-9.9.8l-7.2.6h0c-2.3.2-4.5.4-6.8.5-16.9,1.4-33.6,2.6-49.9,3.8l-13.8.9c-6.8.5-13.6.9-20.2,1.3-2.2.1-4.4.3-6.6.4s-4.4.3-6.6.4-4.4.3-6.5.4l-4.9.3c-4.6.2-9.2.5-13.7.7-.6,0-1.2.1-1.8.1h-.2c-16.3.8-31.8,1.5-46.4,1.9-2.8.1-5.6.2-8.3.2-1.5,0-3,.1-4.5.1-1.8,0-3.5.1-5.3.1h-.8c-2.3,0-4.6.1-6.8.1s-4.5.1-6.7.1c0-1,.1-2,.1-2.9.3-7.9.6-14,.7-16.9a14.88,14.88,0,0,1,.1-1.9,1.55,1.55,0,0,0,.6-.2c1.1-.2,3.5-.8,7.1-1.6.2-.1.5-.1.7-.2h0c9.9-2.3,27.3-6.2,47.5-10.4h0c32.4-6.8,71.6-14.2,96.5-16.4,48.6-4.3,143.5,18.1,184.9,2.1s142.7-49.1,229.5-45.9c6.5.2,14.6.8,24,1.8l5.5.6c2.5.3,5.1.5,7.8.8h0c2.4.3,4.8.5,7.3.8,7.4.9,15.3,1.9,23.6,3h0c2.8.4,5.7.7,8.6,1.1C981.45,466.11,1002.65,469.21,1025,472.61Z" transform="translate(0.85 -0.24)" fill="#ffca62"/><path d="M1025,444.61V486h-.3a.9.9,0,0,0-.5.1c-1.8.2-4.3.5-7.4.9-2.1.3-4.6.6-7.3.9h0q-2.25.3-4.8.6l-2.5.3a6.75,6.75,0,0,0-1.4.2l-2.3.3c-6.2.8-13.4,1.6-21.3,2.6-.6.1-1.3.1-1.9.2-5.2.6-10.7,1.3-16.6,2-1,.1-2,.2-3,.4a.9.9,0,0,0-.5.1c-1,.1-2.1.3-3.2.4-1.5.2-3,.4-4.6.5l-7.3.9c-2.4.3-4.7.5-7.1.8l-5,.6c-.4,0-.8.1-1.1.1-2.2.3-4.4.5-6.6.8s-4.4.5-6.7.8-4.6.5-6.9.8-4.7.5-7,.8c-5.9.7-12,1.4-18.2,2.1-3.7.4-7.5.9-11.3,1.3-6.4.7-12.8,1.4-19.5,2.2-1.5.2-3,.3-4.5.5-10.5,1.2-21.3,2.4-32.3,3.6l-8.5.9-2.7.3h0c-1.1.1-2.3.2-3.4.4h0l-3.1.3h-.1c-13.6,1.5-27.6,2.9-41.8,4.4l-14.1,1.5c-2.4.2-4.8.5-7.2.7-4.4.5-8.9.9-13.3,1.4-11.7,1.2-23.4,2.4-35.3,3.5-2.5.3-5,.5-7.6.8-6.4.6-12.7,1.3-19.1,1.9h-.1c-13.9,1.3-27.9,2.7-41.9,3.9h-.4c-7.3.7-14.6,1.3-21.8,2-4.2.4-8.3.8-12.5,1.1l-9.6.9a26.6,26.6,0,0,0-2.8.3h0l-13.8,1.2c-3.3.3-6.7.6-10,.8s-6.6.5-9.9.8l-7.2.6h0c-2.3.2-4.5.4-6.8.5-16.9,1.4-33.6,2.6-49.9,3.8l-13.8.9c-6.8.5-13.6.9-20.2,1.3-2.2.1-4.4.3-6.6.4s-4.4.3-6.6.4-4.4.3-6.5.4l-4.9.3c-4.6.2-9.2.5-13.7.7-.6,0-1.2.1-1.8.1h-.2c-16.3.8-31.8,1.5-46.4,1.9-2.8.1-5.6.2-8.3.2-1.5,0-3,.1-4.5.1-1.8,0-3.5.1-5.3.1h-.8c-2.3,0-4.6.1-6.8.1s-4.5.1-6.7.1h-10.5c-15.9,0-30.1-.4-42.3-1.1-7.7-.5-15.2-1-22.5-1.6-2-.2-4.1-.3-6.1-.5h-.1c-1.7-.1-3.4-.3-5-.4-2.9-.3-5.7-.5-8.5-.8-.3,0-.7-.1-1-.1-3.3-.3-6.5-.6-9.7-1-2.5-.3-5-.5-7.5-.8-7-.8-13.8-1.5-20.5-2.4l5-6.3h0l.3-.3,2.2-2.8,2.3-2.8,5.6-7,13.2-16.5.9-1.1s3.2-.3,8.9-.9l2.6-.3h0l3-.3h0c9.8-1,24.1-2.4,40.8-4.1l12-1.2c3.6-.4,7.3-.7,11-1.1h0c2.3-.3,4.6-.5,6.9-.7,4.6-.5,9.2-.9,13.9-1.4.3,0,.6-.1.9-.1h0c46.7-4.8,99.2-10.2,132.8-14.2,20.2-2.4,42.4-2.8,65.6-2.6,18.9.1,38.6.6,58.4.7h7.4c13.7,0,27.5-.4,41.2-1.1,27-1.6,53.8-5.1,79.3-12.5,82.7-24.2,100-29.2,218.9-24.9C971,441.41,1004.45,443.21,1025,444.61Z" transform="translate(0.85 -0.24)" fill="#85a03d"/><path d="M898.45,486s-2.2-7.5,3.8-8.5c1.6-7.8,3.2-14.2,5.9-14.6.5-6,3-11.7,5.9-7.5s-2.4,23.1-2.4,23.1,11.4-27.7,18.9-24.2c.5,8.2-8.4,23.1-8.4,23.1s4.7-.1,5.4-2.6,4.4-4.5,5.1-1.3,1.5,5.5,3.3,3.7,11.6-14.7,13.1-10.7c1.8-3.7,11.7-8.9,13.1-4.1.3,1.9-.4,2-.4,2s2.8,2.1,1.8,4.4-9.8,8.8-9.8,8.8,10.5-2,10.5,2.5a8.9,8.9,0,0,1-4,1.3s.7,2.3-.1,2.5c1.9.9,14.5,1.6,14.7,5.2C974.25,492.81,902.35,499.81,898.45,486Z" transform="translate(0.85 -0.24)" fill="#c3db6c"/><path d="M211.05,446.21s-2.2-7.5,3.8-8.5c1.6-7.8,3.2-14.2,5.9-14.6.5-6,3-11.7,5.9-7.5s-2.4,23.1-2.4,23.1,11.4-27.7,18.9-24.2c.5,8.2-8.4,23.1-8.4,23.1s4.7-.1,5.4-2.6,4.4-4.5,5.1-1.3,1.5,5.5,3.3,3.7,11.6-14.7,13.1-10.7c1.8-3.7,11.7-8.9,13.1-4.1.3,1.9-.4,2-.4,2s2.8,2.1,1.8,4.4-9.8,8.8-9.8,8.8,10.5-2,10.5,2.5a8.9,8.9,0,0,1-4,1.3s.7,2.3-.1,2.5c1.9.9,14.5,1.6,14.7,5.2C287,453,215.05,460,211.05,446.21Z" transform="translate(0.85 -0.24)" fill="#85a03d"/><path d="M502.85,395.61q4.95-.6,9.9-.9a109,109,0,0,0-24.5,11.4,98,98,0,0,0-23.6,19.9c-10.8,12.7-19.7,26.4-32.7,35.5a122,122,0,0,1-41.6,18.3c-3.1.8-6.2,1.4-9.4,2-14.6,2.6-29.4,1.7-43.9,5a151.21,151.21,0,0,0-23.1,7.4c-3.4,1.4-6.7,2.8-10,4.3-8.8,4.1-17.8,8.4-25.6,15.1-1,.8-2.1,2.3-1.5,3.7l-6.1-.3c1.3,0,5.8-6.7,7-7.9,2.5-2.6,5.2-5.1,7.9-7.5a116.21,116.21,0,0,1,17-12.3c12.3-7.2,25.4-12.2,38.9-13.1,41-2.7,82.7-9.9,108.5-46.4C463.85,409.81,485.75,400.21,502.85,395.61Z" transform="translate(0.85 -0.24)" fill="#85a03d"/><path d="M908.55,382.11c6.2,1,12.9,2,20,2.9-10.2-1.3-32.3-2.5-53.6,6-29,11.5-28.8,40.5-59.2,41.8s-69.3-1.1-69.3-1.1,28.8-12.3,47.6-10.4,20.3,1.3,31.2-7.5c9.4-7.6,26.4-30.5,75.3-33.2C903.35,381.31,906.05,381.71,908.55,382.11Z" transform="translate(0.85 -0.24)" fill="#85a03d"/><path d="M934.25,385.91a17.57,17.57,0,0,0-2.1-.4l2.1.3Z" transform="translate(0.85 -0.24)" fill="#85a03d"/><path d="M966.25,549.61H221.55c-.3-16.3.7-46.9.7-46.9l8,.8c33,3.4,159.1,15.8,201.2,13,48.7-3.2,137.8-10.7,194.6-4.3s209.2-52.2,270.8-29.8a148.71,148.71,0,0,1,16.5,7.2C950.85,509.11,963,538.71,966.25,549.61Z" transform="translate(0.85 -0.24)" fill="#a8bd63"/><path d="M272.05,521.51s-10.7-4.1-9.3-19.4c1.5-6,7.3,5,7.3,5s-5.9-30.6,1.5-35.2c5.1-3.7,4.5,13.2,4.5,13.2s2.2-5.3,3.6-2.3,1.1,29.3,1.1,29.3,4.1,3.7,4.1-2.3,3.4-8.5,4.3-5.9-.1,8.7-.1,8.7,3.5-3.7,4.9-.5c.4-4.3,1.5-15.6,3.5-13.3,1.5-4.4,8.8-17.9,13.1-12.6.7,2.5-.4,3.6-.4,3.6s2.6-1.8,2.6,3.7-5.9,2.7-5.5,6.8-1.6,7.8-2.3,7.3-1.8,10,0,10c2.4-3.2,9.3-10.5,11.2-8.2s-4.3,9.2-4.3,9.2,4.4,1.5,5.9,0,3.2-2.2,3.8-1.5c.1-3.2,6.2-5.8,7.8-3.1s-3.9,6.1-5,6c-.6,1.1-2.2,3.8-2.8,3.6,2.5,2.1,6.7,2.3,7.4,5.6C321,528.71,285.85,536.11,272.05,521.51Z" transform="translate(0.85 -0.24)" fill="#b5ca63"/><path d="M1025,477.91v71.8H-.85V474h2.2c.9,0,2-.1,3.4-.1a17,17,0,0,0,2.2-.1h10.1c13.9-.1,34.8.1,59.2,1.5.6,0,1.2.1,1.8.1,1.9.1,3.9.3,5.8.4l4,.3c.7.1,1.5.1,2.2.2l4.4.3c.7.1,1.4.1,2.1.2,9.4.8,19.1,1.8,29,3,.5.1,1,.1,1.5.2,3.1.4,6.2.8,9.3,1.3.3,0,.7.1,1,.1,3.2.5,6.4.9,9.6,1.4,4,.6,8,1.3,12,2,2,.4,4,.7,5.9,1.1.4.1.7.1,1.1.2,4.3.8,8.5,1.7,12.7,2.6a389.42,389.42,0,0,1,49.3,14.1h0a20.94,20.94,0,0,0,2.3.8c3.9,1.4,7.8,2.7,11.8,4l3,.9,9,2.7,3,.9c2.5.7,5,1.4,7.6,2h0c2.4.6,4.9,1.3,7.4,1.8,1.6.4,3.2.8,4.8,1.1q8.55,1.95,17.1,3.6l3.1.6c6.4,1.2,12.8,2.3,19.2,3.2l8.5,1.2c.3,0,.6.1.9.1.5.1.9.1,1.4.2h0c.2,0,.5.1.7.1,1.8.2,3.6.5,5.4.7,2,.3,4.1.5,6.1.7s4,.5,6,.7c1.2.1,2.4.3,3.5.4,2.8.3,5.6.5,8.3.8,3.2.3,6.4.5,9.6.8l4.7.3c6.9.5,13.7.8,20.1,1,2.3.1,4.6.2,6.9.2,1,0,2,0,3,.1,2.5.1,4.9.1,7.3.1,30,.3,52.2-1.5,59.3-3.5,18.6-5.3,65.7-15.3,120.8-4.6s196.2-28.4,242.4-28.4c2.4,0,5.1,0,8.1-.1a10.87,10.87,0,0,0,1.8-.1c1.7-.1,3.6-.1,5.5-.2.7,0,1.5-.1,2.3-.1,7.7-.4,16.5-1,26-1.7l4.5-.3c.9-.1,1.7-.1,2.6-.2l4-.3c3.1-.3,6.2-.5,9.4-.8,2.7-.2,5.5-.5,8.2-.7h0l9.8-.9c2.7-.3,5.3-.5,8-.8,1.5-.1,3-.3,4.6-.4l8.8-.9c1.8-.2,3.5-.4,5.3-.5,7.8-.8,15.5-1.6,22.9-2.4l3.1-.3c1.5-.2,3-.3,4.5-.5,1.7-.2,3.4-.4,5.1-.5,1.3-.1,2.7-.3,4-.4l5.4-.6c1.3-.1,2.6-.3,3.9-.4.3,0,.6-.1.8-.1,1.3-.1,2.6-.3,3.9-.4.7-.1,1.4-.1,2.1-.2,1.3-.1,2.5-.3,3.8-.4,3.4-.4,6.6-.7,9.5-1.1.6-.1,1.1-.1,1.6-.2a2.77,2.77,0,0,0,.9-.1c.8-.1,1.7-.2,2.4-.3C1018.35,478.61,1022.05,478.21,1025,477.91Z" transform="translate(0.85 -0.24)" fill="#906f50"/><path d="M701.15,349.21c-7.6,3.5-15.2,7.3-22.6,11.2a205.76,205.76,0,0,0-21.7,12.8,59.87,59.87,0,0,0-5,3.8,22.41,22.41,0,0,0-4.3,4.4,4.6,4.6,0,0,0-1.1,2.6v.6l.2.7.3.6c.1.2.3.4.4.6a7.1,7.1,0,0,0,2.3,1.9,23.94,23.94,0,0,0,2.8,1.3c3.9,1.5,8,2.4,12,3.6a40.43,40.43,0,0,1,11.7,5.1,16.43,16.43,0,0,1,4.6,4.5,16.24,16.24,0,0,1,2.4,6.1,15.87,15.87,0,0,1-.3,6.5,15.08,15.08,0,0,1-3.1,5.7,21.77,21.77,0,0,1-4.8,4.3,60.52,60.52,0,0,1-5.5,3.2,80.59,80.59,0,0,1-11.9,4.4c-16.3,4.6-33.1,6.5-49.8,8.2,8.3-1,16.7-2.2,25-3.6a207.93,207.93,0,0,0,24.6-5.5,83,83,0,0,0,11.7-4.5,36,36,0,0,0,5.4-3.1,22.52,22.52,0,0,0,4.6-4.1,14.29,14.29,0,0,0,2.8-5.3,15.11,15.11,0,0,0,.3-6,14.28,14.28,0,0,0-2.2-5.6,14.7,14.7,0,0,0-4.4-4.2,44.87,44.87,0,0,0-11.4-5c-4-1.2-8.1-2.2-12.1-3.7a15.5,15.5,0,0,1-2.9-1.4,10,10,0,0,1-2.6-2.1,1.79,1.79,0,0,1-.5-.7c-.1-.3-.3-.5-.4-.8l-.3-.8a2.77,2.77,0,0,1-.1-.9,6.63,6.63,0,0,1,1.3-3.1,28,28,0,0,1,4.5-4.6c1.6-1.3,3.4-2.6,5.1-3.8a206.07,206.07,0,0,1,21.9-12.5Q689.6,354.16,701.15,349.21Z" transform="translate(0.85 -0.24)" fill="#85a03d"/><path d="M594.65,387.91c-1.5,2.1-2.9,4.1-4.3,6.3a53.15,53.15,0,0,0-3.7,6.6,46.45,46.45,0,0,0-2.8,7,14.87,14.87,0,0,0-.5,3.6,4.23,4.23,0,0,0,1.1,3.1,4.73,4.73,0,0,0,1.3,1.1,8.27,8.27,0,0,0,1.6.9,15.81,15.81,0,0,0,3.4,1.3,36.53,36.53,0,0,0,7.4.9l7.6.4c2.5.2,5.1.3,7.6.3-2.5.2-5.1.3-7.6.3l-7.6-.1a34,34,0,0,1-7.7-.7,16.27,16.27,0,0,1-3.7-1.3,9.5,9.5,0,0,1-1.7-1,9.14,9.14,0,0,1-1.6-1.3,5.75,5.75,0,0,1-1.3-3.9,12.26,12.26,0,0,1,.6-3.9,30.15,30.15,0,0,1,1.3-3.6c.5-1.2,1.1-2.3,1.7-3.5a54.69,54.69,0,0,1,4.1-6.5A70.06,70.06,0,0,1,594.65,387.91Z" transform="translate(0.85 -0.24)" fill="#85a03d"/><path d="M512.75,398.91a153.75,153.75,0,0,0-16.5,8.8,101.67,101.67,0,0,0-15.1,10.9c-1.1,1.1-2.3,2.1-3.3,3.2s-2.1,2.2-3,3.5l-1.4,1.8-1.3,1.9-2.7,3.9a164.07,164.07,0,0,1-11.6,14.8c-8.3,9.4-17.7,17.9-28.6,24.2a84.56,84.56,0,0,1-17.1,7.7,72.49,72.49,0,0,1-18.4,3.2,76,76,0,0,0,18.2-4,80.88,80.88,0,0,0,16.8-8,122.35,122.35,0,0,0,28-24.2c4.1-4.6,7.9-9.6,11.6-14.6.9-1.3,1.8-2.5,2.7-3.8l1.3-1.9,1.4-1.9c.9-1.3,2.1-2.4,3.1-3.6s2.3-2.2,3.5-3.2C490.05,409.61,501.25,403.71,512.75,398.91Z" transform="translate(0.85 -0.24)" fill="#85a03d"/><path d="M11.35,421.71s98.9-27.2,149.6-4.3,87.2,46.9,128.5,33.1c-43.4,12.8-81.9,3.7-141.9-11.7S54.75,420.61,11.35,421.71Z" transform="translate(0.85 -0.24)" fill="#85a03d"/><path d="M9.75,429.11a327.26,327.26,0,0,1,72,2.7,331,331,0,0,1,35.4,7.1c11.6,3.1,23.2,6.2,34.9,9.2,23.3,6,46.7,11.5,70.6,14.2a179.58,179.58,0,0,0,35.9.8,96.48,96.48,0,0,0,17.7-3.1,61.91,61.91,0,0,0,16.5-7.1,60.7,60.7,0,0,1-16.4,7.4,106.6,106.6,0,0,1-17.7,3.5c-12,1.3-24.1.8-36.1-.4a358.35,358.35,0,0,1-35.7-5.7c-11.8-2.4-23.5-5.2-35.2-8.2s-23.2-6.2-34.9-9.3a328.2,328.2,0,0,0-35.2-7.3,331.52,331.52,0,0,0-35.8-3.7A332.56,332.56,0,0,0,9.75,429.11Z" transform="translate(0.85 -0.24)" fill="#85a03d"/><path d="M880.05,380.31a88.28,88.28,0,0,0-18.3,3.5,63.74,63.74,0,0,0-16.8,7.6c-1.3.8-2.5,1.8-3.7,2.7a12.17,12.17,0,0,0-1.7,1.5l-1.7,1.6c-2.2,2.2-4.3,4.5-6.6,6.7s-4.5,4.3-6.9,6.3a53.59,53.59,0,0,1-7.7,5.5,32.1,32.1,0,0,1-8.9,3.4,43.36,43.36,0,0,1-9.5.3,128.66,128.66,0,0,0-18.6.8,92.57,92.57,0,0,0-9.2,1.3c-3,.6-6,1.5-9,2.3a91.27,91.27,0,0,0-8.9,2.7,30.55,30.55,0,0,0-8.1,4.5,26.85,26.85,0,0,1,7.9-4.9c2.9-1.2,5.9-2.2,8.8-3.1s6-1.8,9-2.5,6.2-1.1,9.3-1.5a146.61,146.61,0,0,1,18.7-1.1,46.93,46.93,0,0,0,9.2-.4,28.59,28.59,0,0,0,8.4-3.2,48.46,48.46,0,0,0,7.5-5.3c2.4-2,4.6-4.1,6.9-6.2l6.6-6.6,1.8-1.6a13,13,0,0,1,1.8-1.5c1.3-.9,2.5-1.9,3.9-2.7a63,63,0,0,1,17.3-7.3A73.37,73.37,0,0,1,880.05,380.31Z" transform="translate(0.85 -0.24)" fill="#85a03d"/><path d="M893.75,400.71a2.51,2.51,0,0,0-.4-.7c-1.2-1.9-2-.7-2.5-1.9s-4.8.1-6.3-1.7-3.1-.5-5.5.7-2.4,1.5-4.7,1.3-3-1.1-5.3.2-1.7,1.6-2.9,3.2-7.1-.5-8.3,1.9,3,9.3,3,9.3l-43.4,12.4,18.9.3,26-8s2.8,3.2,6.7,3.2,3.8-1.5,7.3,0,4.7,2.7,7.1,1.5,6.9-2.9,7.6-5.1a33.7,33.7,0,0,0,1.2-6v-2s3.2,1.2,4-3.1A5.64,5.64,0,0,0,893.75,400.71Z" transform="translate(0.85 -0.24)" fill="#436731"/><path d="M836.75,425.71h-3.6c-2.3-.1-4.9-.2-5.5-.6a3.51,3.51,0,0,0-.8-.5,2.23,2.23,0,0,0-2.6-.3h0c-.1.1-.2.1-.4.2a13,13,0,0,1-1.3.3c-2.1.4-5.2.6-5.2.6a9.11,9.11,0,0,0,2.1-2.9c.9-1.9,1-6.6.3-12.6s-.5-10.4.5-22.7-1.8-15.6-1.8-15.6l1.7-2.1,3.9-4.6.9,2.7,1.9,6,2.6-11.1,2.6,2-1.5,5.4-2.5,8.8s-.9,20.8.1,33.5C829.35,425,836.75,425.71,836.75,425.71Z" transform="translate(0.85 -0.24)" fill="#8e6341"/><path d="M822.65,424.71c-2.1.4-5.2.6-5.2.6a9.11,9.11,0,0,0,2.1-2.9c.9-1.9,1-6.6.3-12.6s-.5-10.4.5-22.7-1.8-15.6-1.8-15.6l1.7-2.1c3.8,6.1,1.7,19.2,1.3,22.2s.3,18.8,1.2,23.8A28,28,0,0,1,822.65,424.71Z" transform="translate(0.85 -0.24)" fill="#533624"/><path d="M833.15,425.71c-2.3-.1-4.9-.2-5.5-.6a3.51,3.51,0,0,0-.8-.5c-2.5-4.6-1.6-17.9-1.6-17.9a66.38,66.38,0,0,0,3.2,15A6.51,6.51,0,0,0,833.15,425.71Z" transform="translate(0.85 -0.24)" fill="#533624"/><polygon points="833.1 364.28 831.6 369.68 827.4 376.88 825.9 367.38 827.8 373.38 830.4 362.38 833.1 364.28" fill="#533624"/><path d="M822,369.71a58.41,58.41,0,0,1,1.3,16.8c-.8,8.2-1.2,11.9-.2,21a163.08,163.08,0,0,1,.7-20C824.55,380.61,823.35,373,822,369.71Z" transform="translate(0.85 -0.24)" fill="#533624"/><path d="M825.75,380.41s-2.4,20.2.1,23.2c1.2,1.1,1.3-6.3,1.3-8.5s-.1-13.9.9-18.1c-.7,2.3-1.1,9.7-1.4,14.2s.3,11-.5,11.2c-.3.1-1.1-1.5-.7-10.1S825.75,380.41,825.75,380.41Z" transform="translate(0.85 -0.24)" fill="#533624"/><path d="M824.25,424.31c-.1.1-.2.1-.4.2h0a29,29,0,0,0-.1-8.9A28,28,0,0,1,824.25,424.31Z" transform="translate(0.85 -0.24)" fill="#533624"/><path d="M884.75,351.21c0,3.2-3.8,6.8-4.4,6.8s0,.7-.2,1.6-2.2-.3-2.2.4a.92.92,0,0,1-1.5.8c-.7-.5-1.1.9-1.5,1.3s-1.3,0-1.9-.5-.8,1.4-1.1,1.5-.8-.7-1.3-.9-.4,1.2-1.3,1.7-1.1-.7-1.7-1.1-1.7,1.7-2.1,1.1c-.2-.3-.3-.3-.5-.3s-.5.3-.9.5c-.8.4-.6-.2-2.7.2s-2.7-.3-3.3-1.3-.9,0-1.9,0-1.1-.8-1.6-1.3-.6.7-1.2.7-.3.9-.6,1.8-1-.5-1.5,1.2-1.2,1.2-2.2,1.6-.3,1.7-1.1,1.8-2.1-.2-2.5.5-4.9-.2-5.1-.5-2.1.6-2.4-.1a1.87,1.87,0,0,0-2.2-1.2c-1.3.1-1-.3-1.3-1s-1.6-.8-3-.8h-.1c-1.4,0-1.5-2-1.9-2.5s-.8.7-1.6,1-.5-.6-1.1-1.2-.3.8-.3.8a7.72,7.72,0,0,1-.2,1.5c-.8,3.1-3.6,5.7-6.4,7.5-3.3,2.1-10.5.3-12.3.1s-2-1.1-3.2-2.1-3.1-.4-4.3-1.2-.6-.9-2-1.1c-3.8,1.6-5.6-.7-7.8-.8s-.5-1.7-1.9-1.4a3.38,3.38,0,0,1-2.8-.8c-.7-.4-2.4.8-3.8.3s-.9-1.7-3-1.8-2.1-3.4-3.7-5.7,3.3-2.9.9-3.7a1.61,1.61,0,0,1-.7-.4c-1.5-1.3-.5-4.5-.6-5.3s-2-.2-2.2-2.1-1.7-.9-2.8-.5-2.6-1.2-2.7-1.6-1.8.1-2.7-1-.9-.9-2.4-1.3-1.4-2.7-1.9-3.7a1.27,1.27,0,0,1,0-1.2,11.37,11.37,0,0,1,1.8-3.2c1.1-1.4-.7-2.3-1.3-3.4s-.8-8.7.7-9.7,1.9-1.2,1.7-3.9,1.3-1,3.9-.6.1-1.1.2-3.1,3.3-1.2,4.2-1.3-1.1-1.1-1.5-2.8,3.2.2,3.7-.6.5-.9,1.7-1.1,3.4-.8,4.6.4c.7.6.9.8,1.3.8a5.4,5.4,0,0,0,1.2-.4c1.5-.5,2.8,1.9,3.4,2.7s.7.9,1.4-.6,1.6-.6,2.2-.1,1.8,2.2,1.5.7-1.4-4-.3-4.9,3.8,2.5,4.2,2.4.1-2.3.6-2.3,1.4,2.7,1.8,2.8.2-1.2.7-1.2,1,1.2,1.7,1.1-.2-2.7.1-3.2,1.8.5,1.5-.5c-.2-.7.5-3.2,1.6-5.2a6.35,6.35,0,0,1,1.8-2.3c1.8-1.3,10.6.5,11.7,1.2s.2-3.2.3-4.2.5-.5,1.3-.7,0-3,.5-3.8.4-.2,2-.8,3.3-4.1,8.5-3.6,7.4,6.7,8.1,7.9.3,4.4.3,5.2,1.4-.8,2.5,0,1.1,1,1.4,2,.7-1,1.3-1,1.5,1.7,1.9,1.9,0-1.1.8-1.5,1.5,1.7,1.9,2.1.3-1.3.8-1.3,1.1,1.5,1.6,1.6.2-1,.7-.8,2,2.5,2.8,3.1a5.79,5.79,0,0,1,1.8,2.9c.5,1.3,1.1,2.2.8,2.7a1.89,1.89,0,0,0-.3,2l.1.1c1,1.4.2,1.8.8,2.7s1.5,0,1.8.5.2,2.9.7,2.2,1.9-.8,2-.2.7,1.7.9.5a1.51,1.51,0,0,1,.6-1.2,1.23,1.23,0,0,1,1.4.5c.8.8,1.1.1,2.2.1s1.1,2.3,1.7,2.2a8.17,8.17,0,0,1,2.3,1.1c.3.2,0,1.4.3,2.4s1.6-.3,1.6.7-.6,2.5.3,3.2,1.1,2.8,1.3,2.9.2.7.4,1.2.8-.1,1.2.3.6,1.8,1,2.1,1.1-.9,1.6-.5.7,2.5,1.1,2,1.6-.7,1.8-.2.5,1.1,1.1.9.9,1.3,1.3,2.2,1.1.6,1.8,2a10.37,10.37,0,0,1,.4,1,35.63,35.63,0,0,1,.7,5.2C885.85,348.81,884.75,347.91,884.75,351.21Z" transform="translate(0.85 -0.24)" fill="#8ba33c"/><path d="M867.35,360.71l-2.3,3c-.2.1-.5.3-.9.5-.8.5-.6-.2-2.7.2s-2.7-.3-3.3-1.3-.9,0-1.9,0-1.1-.8-1.6-1.3-.6.7-1.2.7-.3.9-.6,1.8-1-.4-1.5,1.2-1.2,1.2-2.2,1.6-.3,1.7-1.1,1.8-2.1-.2-2.5.5-4.9-.2-5.1-.5-2.1.6-2.4-.1a1.87,1.87,0,0,0-2.2-1.2c-1.3.1-1-.3-1.3-1s-1.6-.8-3-.8h-.1c-1.4,0-1.5-2-1.9-2.5s-.8.7-1.6,1-.5-.6-1.1-1.2-.3.8-.3.8a7.72,7.72,0,0,1-.2,1.5c-.8,3.1-3.6,5.7-6.4,7.5-3.3,2.1-10.5.3-12.3.1s-2-1.1-3.2-2.1-3.1-.4-4.3-1.2-.6-.9-2-1.1c-3.8,1.6-5.6-.7-7.8-.8s-.5-1.7-1.9-1.4a3.38,3.38,0,0,1-2.8-.8c-.7-.4-2.4.8-3.8.3s-.9-1.7-3-1.8-2.1-3.4-3.7-5.7,3.3-2.9.9-3.7a1.61,1.61,0,0,1-.7-.4c-1.5-1.3-.5-4.5-.6-5.3s-2-.2-2.2-2.1-1.7-.9-2.8-.5-2.6-1.2-2.7-1.6-1.8.1-2.7-1-.9-.9-2.4-1.3-1.4-2.7-1.9-3.7a1.27,1.27,0,0,1,0-1.2,8.3,8.3,0,0,0,3.8.7c1.8-.3,8.4-6.7,9.9-6.8s0,2.9,1.7,2.8,1.1-3.4,2.6-2.7.8,2.3,2.1,2.3a4.09,4.09,0,0,1,3.6,2.2c.6,1.4,1.6-.8,2.2-.2s1.3,2.4,1.9,2.2,1.2-2,1.6-1.6.9,1.6,1.5.5,2.4-3.1,3.1-3.1,2.7.1,2.8-1a1.49,1.49,0,0,1,1.6-1.5c.7,0,6.3-1,7.5,2.8.3,1,2,1.1,2.1,1.8s-.9.8.2,1.5.7,2.3,1.3,2.9,1.4-.6,1.8.8-.3,2.5.5,3a7.21,7.21,0,0,1,2.5,3.5c.3,1.3,1.3.4,2.1-.2s3.2.1,3.3,2,.3-1,1.2-1,2.1,2.7,3,2.5,2.6-.9,2.9.4.2,2.1,1.1,1.7,1-1.9,1.8-.8c0,0,.4,1.2.9,1.1s1.2-.6,2.3,1.1,2.7,4.4,3.6,6.1c1,1.2,1-3.1,1-4.2s1.6-7.2,2.4-6.4-.1,2.3.8,2.2.3-4.2.9-4.5,2.5.4,2.5-.3-.9-2.4-.1-2.9,1.2,0,1.3-.7,3-2.4,4.8-2.3,7.3-.2,9.9,4.2,2.3,6.7,3.5,8.3,1.7,1.5,1.7,2.5-.5,1.6.8,1.7C867.65,358.51,867.35,360.71,867.35,360.71Z" transform="translate(0.85 -0.24)" fill="#697f36"/><path d="M826.25,365.61c-.8,3.1-3.6,5.7-6.4,7.5-3.3,2.1-10.5.3-12.3.1s-2-1.1-3.2-2.1-3.1-.4-4.3-1.2-.6-.9-2-1.1c-3.8,1.6-5.6-.7-7.8-.8s-.5-1.7-1.9-1.4a3.38,3.38,0,0,1-2.8-.8c-.7-.4-2.4.8-3.8.3s-.9-1.7-3-1.8-2.1-3.4-3.7-5.7,3.3-2.9.9-3.7a1.61,1.61,0,0,1-.7-.4c.9-2.1,2.9-6.5,5.5-7.7a4.47,4.47,0,0,0-.9,2.7s4-3.6,6.3-4.7c.3-.2.3,1.5.3,1.5s2.2-1.8,2.7.4c.4.7,1.1-.4,1.5.5s.3,4.9.8,3.5,2.6-5,3.6-5,4.2.6,3.3-.4-3.1-1.2-3.1-1.2,4.1-1.4,4.7.2,1.9-1.9,2.4.4,2.6.9,2.8,2.4,1.5-.5,2,2.3,1.7,2,1.6,3.1-1,1.8-.1,1.9.9-1.8.9-1.8a21.71,21.71,0,0,1,.1,3.9,10.56,10.56,0,0,0,1.2-2.9,24.67,24.67,0,0,1-.3,3.9,3.46,3.46,0,0,1,2.6-.7,15,15,0,0,0-2.3,1.5c0,.2,2.4.4,2.5.9a8.52,8.52,0,0,0-2.3.4,7.68,7.68,0,0,1,1.5,1.1c.3.4.4,2.3.8,2.2a1.37,1.37,0,0,0,.9-1.3,10.53,10.53,0,0,1,.3,1.8s1.1-1.1,1.8-.2-.1,1.8.7,1.8.6.2,1.1.8,2.8,1.4,3.3,1.1.9-.9,1.7-1.5A2.55,2.55,0,0,1,826.25,365.61Z" transform="translate(0.85 -0.24)" fill="#445025"/><path d="M884.65,351.21c0,3.2-3.8,6.8-4.4,6.8s0,.7-.2,1.6-2.2-.3-2.2.4a.92.92,0,0,1-1.5.8c-.7-.5-1.1.9-1.5,1.3s-1.3,0-1.9-.5-.8,1.4-1.1,1.5-.8-.7-1.3-.9-.4,1.2-1.3,1.7-1.1-.7-1.7-1.1-1.7,1.7-2.1,1.1-.6-.2-1.4.3-.6-.2-2.7.2-2.7-.3-3.3-1.3-.9,0-1.9,0-1.1-.8-1.6-1.3-.6.7-1.2.7-.3.9-.6,1.8-1-.4-1.5,1.2-1.2,1.2-2.2,1.6-.3,1.7-1.1,1.8-2.1-.2-2.5.5-4.9-.2-5.1-.5-2.1.6-2.4-.1a1.87,1.87,0,0,0-2.2-1.2c-1.3.1-1-.3-1.3-1s-1.6-.8-3-.8c.3-1.2,1.2-3.6,3-3.4,2.3.4,4.4,4.3,5.5,3.6s2.2-1,2.7-.1,1.7-1.1,1.9-1.9,1.7-.9,2.3-1.6-.3-1.8.8-2.4,3.1-.7,3.8-1.4,2.5-3.5,5.8-2.8,5.5,6,8.2,5.2,8.8-2.8,8.6-11.5c3.2.6,6.5,1.4,7.7.5a11.23,11.23,0,0,0,3.3-8.2,35.63,35.63,0,0,1,.7,5.2C885.75,348.91,884.65,348,884.65,351.21Z" transform="translate(0.85 -0.24)" fill="#445025"/><path d="M759.45,337.91" transform="translate(0.85 -0.24)" fill="#2e5025"/><path d="M862,323.71c-.6,3.2-3.6.8-5.1,1.1s-.7,5.9-4,9.5-9-2.9-11.6-4.1-5.2,2-6,8-5.1,3.8-5.1,3.8a35.43,35.43,0,0,0,.3-5c0-3.1-1.9-11.5-1.2-12.3s1.1-4,2-4.5.8.8,1.5.8.2-1.3.9-1.5,1.6,2.2,2.1,3.1.5-.2.2-1.7.7-2.2,2.2-1a4.08,4.08,0,0,0,3.7.8c.6-.2.4-4.6.4-5.6s.4-1,.6-1.3-.1-1.7.2-2.2,1,1,1.2-.5,1.7-1.7,3.2-1.7,2.6,3.7,3.5,4.1a4.91,4.91,0,0,1,2.2,1.9c.7,1,1.1.4,1.1-.6,0-.6.6-1.1,1.1-1.4l.1.1c1,1.4.2,1.8.8,2.7s1.5,0,1.8.5.2,2.9.7,2.2,1.9-.8,2-.2.7,1.7.9.5a1.51,1.51,0,0,1,.6-1.2A22.94,22.94,0,0,1,862,323.71Z" transform="translate(0.85 -0.24)" fill="#697f36"/><path d="M805.75,307.81c0,4.5-5.5,6.4-7.4,7.5s-.5,7.4-3,9.9-4.7-.2-5.7-1.9a21.74,21.74,0,0,0-5.7-6.6c-2.1-1.6-2.7-5.1-2.9-7.4a5.4,5.4,0,0,0,1.2-.4c1.5-.5,2.8,1.9,3.4,2.7s.7.9,1.4-.6,1.6-.6,2.2-.1,1.8,2.2,1.5.7-1.4-4-.3-4.9,3.8,2.5,4.2,2.4.1-2.3.6-2.3,1.4,2.7,1.8,2.8.2-1.2.7-1.2,1,1.2,1.7,1.1-.2-2.7.1-3.2,1.8.5,1.5-.5c-.2-.7.5-3.2,1.6-5.2.7.6,1.8,1.4,2.4,2C806,303.31,805.75,303.21,805.75,307.81Z" transform="translate(0.85 -0.24)" fill="#697f36"/><path d="M808.05,310.41s3.9-4.7,4.4-3.9-.3,1.3.4,1.5a1.65,1.65,0,0,0,1.9-1.4c.2-1,1.6-1.3,1.7-.1s.8,2.6.9,1.7.7-2.8,1.3-2.8,1.2,1.2,1.3.1.7-1,1-1.3.4-.9,1-1.9a2.46,2.46,0,0,1,2-1.3c.6,0,1.4-1.1,3.3-.9s3,3.2,4,2.8,1.6-2.9,2.9-2.5,3.5,4.1,4.6,3.7,2.6-.6,2.6-.6-1.4,2.9-2.3,3.3a3.27,3.27,0,0,0,1.9-.1s-1.6,1.6-2.3,1.3a6.74,6.74,0,0,0,1.1,3.1,13.71,13.71,0,0,1-2.8-1.9,14.51,14.51,0,0,1,0,3.8c-.3-2.1-.7-3.7-.7-3.7s-1.3,3.9-2.5,2.7-.6-4.9-2.4-5.7-5,1.3-7.1,4.6-6.1,7.5-9,3.5S812.05,308.51,808.05,310.41Z" transform="translate(0.85 -0.24)" fill="#697f36"/><path d="M694.35,547.31c4.8-4.7,9.8-9.1,15-13.3,2.6-2.1,5.2-4.2,8-6.1a94.29,94.29,0,0,1,8.4-5.6,56.44,56.44,0,0,1,9.2-4.6,18.53,18.53,0,0,1,5.4-1.2,7.52,7.52,0,0,1,1.5,0,6.64,6.64,0,0,1,1.5.3,19.75,19.75,0,0,1,2.6.8l1.3.5,1.2.6c.8.4,1.5.9,2.3,1.4,1.4,1.1,2.8,2.2,4,3.3,2.5,2.3,4.7,4.4,7.5,5.5.7.2,1.4.5,2.1.7l1.1.2,1.1.1c.4,0,.8.1,1.1.1h2.4l1.2-.1q4.95-.45,9.9-1.2c6.6-.8,13.3-1.6,20.1-1.3,3.4.1,6.7.4,10,.8s6.6.8,9.9,1c6.6.5,13.3.3,19.9.2s13.3-.4,20-.5,13.3-.3,19.9-.5,13.2-.7,19.7-1.6c3.3-.4,6.5-.9,9.7-1.6,1.6-.4,3.2-.7,4.8-1.1l2.4-.6,2.5-.6c.8-.2,1.7-.3,2.6-.5a24.77,24.77,0,0,1,2.7-.3,13,13,0,0,1,5.8.8,20.21,20.21,0,0,1,4.8,2.8,48.52,48.52,0,0,0,4,2.8,63,63,0,0,0,8.5,4.6c1.5.6,3,1.3,4.5,1.8s3,.9,4.6,1.3a43.44,43.44,0,0,0,9.6.8,53.8,53.8,0,0,0,9.7-1.3c3.2-.6,6.5-1.4,9.9-1.7a17.52,17.52,0,0,1,5.1.3,10.16,10.16,0,0,1,4.5,2.3l-.3.3a12.12,12.12,0,0,0-9.3-1.6c-3.2.5-6.4,1.6-9.6,2.4a65.44,65.44,0,0,1-10,1.9,39.51,39.51,0,0,1-10.3-.3,47,47,0,0,1-5.1-1.2l-1.2-.4-1.2-.4-2.4-.9a60.77,60.77,0,0,1-9.2-4.6c-1.5-.9-2.9-1.9-4.2-2.8a21.71,21.71,0,0,0-3.8-2.2,9.13,9.13,0,0,0-4.1-.4,18.1,18.1,0,0,0-2.3.3c-.8.2-1.5.3-2.3.5l-4.8,1.2c-1.6.4-3.3.8-5,1.1-3.3.6-6.7,1.2-10,1.5-6.7.7-13.4,1-20.1,1.2-13.4.3-26.7-.2-40-.5-6.7-.1-13.4-.4-20-1s-13.2-1.8-19.8-1.8a82.2,82.2,0,0,0-9.9.6c-3.3.4-6.5,1-9.8,1.6l-9.9,1.8-1.2.2a5.7,5.7,0,0,1-1.3.1l-1.3.1h-2.8l-1.4-.2a13.43,13.43,0,0,1-2.7-.7c-3.5-1.3-6.3-3.8-8.7-6a27.46,27.46,0,0,0-7.6-5.3,17.23,17.23,0,0,0-2.1-.7c-.4-.1-.7-.1-1-.2a3.35,3.35,0,0,0-1,0,18.13,18.13,0,0,0-4.4.9,62.81,62.81,0,0,0-8.8,4c-5.7,3.2-11.2,6.9-16.7,10.7s-10.8,7.8-16,11.9Z" transform="translate(0.85 -0.24)" fill="#55381c"/><path d="M8.35,543.21c2-2.1,4.2-4,6.4-5.9s4.5-3.7,6.9-5.4a82.33,82.33,0,0,1,15.2-8.8,44.19,44.19,0,0,1,17.2-4,22.82,22.82,0,0,1,4.5.4c1.5.3,2.9.6,4.3.9a74.61,74.61,0,0,1,8.4,2.6c2.8,1,5.4,2.2,8.1,3.4s5.3,2.5,8,3.5a18.69,18.69,0,0,0,8.4,1.2,16,16,0,0,0,4.2-1c1.4-.5,2.7-1.1,4-1.6a155,155,0,0,1,16.7-5.4,167.61,167.61,0,0,1,17.1-3.6,170.61,170.61,0,0,1,35-2c5.8.3,11.7.9,17.5,1.7s11.5,1.8,17.3,2.6c11.5,1.6,23.1,3.1,34.7,3.8a144.31,144.31,0,0,0,17.4.1,49.6,49.6,0,0,0,8.6-1.3c2.8-.7,5.6-1.7,7.6-3.8l.1.1c-2,2.2-4.8,3.4-7.6,4.3a50.12,50.12,0,0,1-8.6,1.6,127.85,127.85,0,0,1-17.5.4c-11.7-.5-23.3-1.7-34.9-3.3-5.8-.8-11.5-1.7-17.3-2.6a166.36,166.36,0,0,0-17.3-1.9c-5.8-.3-11.6-.4-17.4-.2a165.87,165.87,0,0,0-17.3,1.5,139.85,139.85,0,0,0-33.7,8.4c-1.3.5-2.7,1.2-4,1.7a20.88,20.88,0,0,1-4.3,1.1,20.14,20.14,0,0,1-8.8-1,72.24,72.24,0,0,1-8.1-3.3c-2.7-1.2-5.4-2.2-8.1-3.2s-5.5-1.7-8.3-2.4l-4.2-.9a29.66,29.66,0,0,0-4.2-.3,43.57,43.57,0,0,0-16.6,3.7,89.69,89.69,0,0,0-15.2,8.3,129.48,129.48,0,0,0-13.8,10.6Z" transform="translate(0.85 -0.24)" fill="#55381c"/><path d="M427.35,540.91l6.4.1h12.8l6.4-.1a194.71,194.71,0,0,0,25.4-1.9c1-.2,2.1-.3,3.1-.5l3.1-.7c2-.6,3.9-1.2,6-2,1-.4,2.1-.7,3.1-1l3.1-.9c2.1-.5,4.2-1,6.3-1.4a170.23,170.23,0,0,1,25.6-3,112.23,112.23,0,0,1,25.9,1.3c8.5,1.2,17,2.9,25.3,4.4,4.2.8,8.4,1.3,12.6,1.8l6.4.6,6.4.6a108.75,108.75,0,0,0,25.5-.1l.1.3c-8.3,2.2-17.1,2.5-25.7,2.2-4.3-.1-8.6-.4-12.9-.7s-8.6-.9-12.9-1.5c-8.5-1.4-16.9-3.3-25.3-4.8-4.2-.7-8.4-1.4-12.6-1.8s-8.4-.6-12.7-.7a108.25,108.25,0,0,0-25.4,2.3,57.24,57.24,0,0,0-12.1,4c-1.9.9-4,1.7-6,2.5l-3.2.9a9.36,9.36,0,0,1-1.6.4l-1.6.3A81,81,0,0,1,466,543c-4.3.2-8.6.3-12.9.2a200.87,200.87,0,0,1-25.7-2.1Z" transform="translate(0.85 -0.24)" fill="#55381c"/><path d="M112.55,513.51c-3.3,1.1-20.6,1-20.6,1s-2.2.5-1.6-2.8c.6-3,2.1-3.6,3.1-5.4.1-.2.2-.3.3-.5,1-2.2,5-4.5,10-2.3,4.2,1.9,8,3.5,9.6,4.6a3.81,3.81,0,0,1,.6.5C114.65,509.61,115.75,512.41,112.55,513.51Z" transform="translate(0.85 -0.24)" fill="#af7b48"/><path d="M112.55,513.51c-3.3,1.1-20.6,1-20.6,1s-2.2.5-1.6-2.8c.6-3,2.1-3.6,3.1-5.4,1.3,1.2,5.4,4.5,10,4.5,3.9,0,7.8-1.7,9.9-2.7a3.81,3.81,0,0,1,.6.5C114.65,509.61,115.75,512.41,112.55,513.51Z" transform="translate(0.85 -0.24)" fill="#806339"/><path d="M112.55,513.51c-3.3,1.1-20.6,1-20.6,1s-1.9.4-1.7-2.2a1.42,1.42,0,0,0,1.7,1.4s17.4.1,20.6-1a2.86,2.86,0,0,0,2.2-2.2A2.73,2.73,0,0,1,112.55,513.51Z" transform="translate(0.85 -0.24)" fill="#5f3b17"/><path d="M953,513.51c3.3,1.1,20.6,1,20.6,1s2.2.5,1.6-2.8c-.6-3-2.1-3.6-3.1-5.4-.1-.2-.2-.3-.3-.5-1-2.2-5-4.5-10-2.3-4.2,1.9-8,3.5-9.6,4.6a3.81,3.81,0,0,0-.6.5C950.75,509.61,949.65,512.41,953,513.51Z" transform="translate(0.85 -0.24)" fill="#af7b48"/><path d="M953,513.51c3.3,1.1,20.6,1,20.6,1s2.2.5,1.6-2.8c-.6-3-2.1-3.6-3.1-5.4-1.3,1.2-5.4,4.5-10,4.5-3.9,0-7.8-1.7-9.9-2.7a3.81,3.81,0,0,0-.6.5C950.75,509.61,949.65,512.41,953,513.51Z" transform="translate(0.85 -0.24)" fill="#806339"/><path d="M953,513.51c3.3,1.1,20.6,1,20.6,1s1.9.4,1.7-2.2a1.42,1.42,0,0,1-1.7,1.4s-17.4.1-20.6-1a2.86,2.86,0,0,1-2.2-2.2A2.73,2.73,0,0,0,953,513.51Z" transform="translate(0.85 -0.24)" fill="#5f3b17"/><path d="M1006.65,492.51c1.9.6,12,.6,12,.6s1.3.3.9-1.7c-.4-1.8-1.2-2.1-1.8-3.1-.1-.1-.1-.2-.2-.3-.6-1.3-2.9-2.7-5.8-1.3a61.82,61.82,0,0,0-5.6,2.7,1.38,1.38,0,0,0-.4.3C1005.35,490.31,1004.65,491.91,1006.65,492.51Z" transform="translate(0.85 -0.24)" fill="#af7b48"/><path d="M1006.65,492.51c1.9.6,12,.6,12,.6s1.3.3.9-1.7c-.4-1.8-1.2-2.1-1.8-3.1-.8.7-3.1,2.6-5.8,2.6a14.31,14.31,0,0,1-5.8-1.6,1.38,1.38,0,0,0-.4.3C1005.35,490.31,1004.65,491.91,1006.65,492.51Z" transform="translate(0.85 -0.24)" fill="#806339"/><path d="M1006.65,492.51c1.9.6,12,.6,12,.6s1.1.2,1-1.3a.81.81,0,0,1-1,.8s-10.1,0-12-.6a1.69,1.69,0,0,1-1.3-1.3A1.5,1.5,0,0,0,1006.65,492.51Z" transform="translate(0.85 -0.24)" fill="#5f3b17"/><path d="M796.75,513.31c1.3.4,8.4.4,8.4.4s.9.2.6-1.1-.8-1.5-1.3-2.2c0-.1-.1-.1-.1-.2-.4-.9-2-1.8-4.1-.9a36.13,36.13,0,0,0-3.9,1.9c-.1.1-.2.1-.3.2A1.23,1.23,0,0,0,796.75,513.31Z" transform="translate(0.85 -0.24)" fill="#af7b48"/><path d="M796.75,513.31c1.3.4,8.4.4,8.4.4s.9.2.6-1.1-.8-1.5-1.3-2.2a6.5,6.5,0,0,1-4,1.8,10,10,0,0,1-4-1.1c-.1.1-.2.1-.3.2A1.23,1.23,0,0,0,796.75,513.31Z" transform="translate(0.85 -0.24)" fill="#806339"/><path d="M796.75,513.31c1.3.4,8.4.4,8.4.4s.8.2.7-.9a.61.61,0,0,1-.7.6s-7,0-8.4-.4a1.17,1.17,0,0,1-.9-.9A1.17,1.17,0,0,0,796.75,513.31Z" transform="translate(0.85 -0.24)" fill="#5f3b17"/><path d="M823.75,546.31c1.3.4,8.4.4,8.4.4s.9.2.6-1.1-.8-1.5-1.3-2.2c0-.1-.1-.1-.1-.2-.4-.9-2-1.8-4.1-.9a36.13,36.13,0,0,0-3.9,1.9c-.1.1-.2.1-.3.2C823,544.71,822.45,545.91,823.75,546.31Z" transform="translate(0.85 -0.24)" fill="#af7b48"/><path d="M823.75,546.31c1.3.4,8.4.4,8.4.4s.9.2.6-1.1-.8-1.5-1.3-2.2a6.5,6.5,0,0,1-4,1.8,10,10,0,0,1-4-1.1c-.1.1-.2.1-.3.2C823,544.71,822.45,545.91,823.75,546.31Z" transform="translate(0.85 -0.24)" fill="#806339"/><path d="M823.75,546.31c1.3.4,8.4.4,8.4.4s.8.2.7-.9a.61.61,0,0,1-.7.6s-7,0-8.4-.4a1.17,1.17,0,0,1-.9-.9A1.22,1.22,0,0,0,823.75,546.31Z" transform="translate(0.85 -0.24)" fill="#5f3b17"/><path d="M199.75,534.21c-1.7.6-10.5.5-10.5.5s-1.1.2-.8-1.4,1-1.8,1.6-2.7a.37.37,0,0,0,.1-.3c.5-1.1,2.6-2.3,5.1-1.2,2.1,1,4.1,1.8,4.9,2.3q.3.15.3.3A1.56,1.56,0,0,1,199.75,534.21Z" transform="translate(0.85 -0.24)" fill="#af7b48"/><path d="M199.75,534.21c-1.7.6-10.5.5-10.5.5s-1.1.2-.8-1.4,1-1.8,1.6-2.7a8.37,8.37,0,0,0,5.1,2.3,11,11,0,0,0,5-1.4q.3.15.3.3A1.48,1.48,0,0,1,199.75,534.21Z" transform="translate(0.85 -0.24)" fill="#806339"/><path d="M199.75,534.21c-1.7.6-10.5.5-10.5.5s-1,.2-.9-1.1a.71.71,0,0,0,.9.7s8.8,0,10.5-.5a1.68,1.68,0,0,0,1.1-1.1A1.5,1.5,0,0,1,199.75,534.21Z" transform="translate(0.85 -0.24)" fill="#5f3b17"/><path d="M31.85,490.51c-1.7.6-10.5.5-10.5.5s-1.1.2-.8-1.4,1-1.8,1.6-2.7a.37.37,0,0,0,.1-.3c.5-1.1,2.6-2.3,5.1-1.2,2.1,1,4.1,1.8,4.9,2.3q.3.15.3.3A1.48,1.48,0,0,1,31.85,490.51Z" transform="translate(0.85 -0.24)" fill="#af7b48"/><path d="M31.85,490.51c-1.7.6-10.5.5-10.5.5s-1.1.2-.8-1.4,1-1.8,1.6-2.7a8.37,8.37,0,0,0,5.1,2.3,11,11,0,0,0,5-1.4q.3.15.3.3A1.4,1.4,0,0,1,31.85,490.51Z" transform="translate(0.85 -0.24)" fill="#806339"/><path d="M31.85,490.51c-1.7.6-10.5.5-10.5.5s-1,.2-.9-1.1a.71.71,0,0,0,.9.7s8.8,0,10.5-.5A1.68,1.68,0,0,0,33,489C33.05,489.51,32.85,490.11,31.85,490.51Z" transform="translate(0.85 -0.24)" fill="#5f3b17"/><path d="M307.55,545.41c-1.7.6-10.5.5-10.5.5s-1.1.2-.8-1.4,1-1.8,1.6-2.7a.37.37,0,0,0,.1-.3c.5-1.1,2.6-2.3,5.1-1.2,2.1,1,4.1,1.8,4.9,2.3q.3.15.3.3A1.48,1.48,0,0,1,307.55,545.41Z" transform="translate(0.85 -0.24)" fill="#af7b48"/><path d="M307.55,545.41c-1.7.6-10.5.5-10.5.5s-1.1.2-.8-1.4,1-1.8,1.6-2.7a8.37,8.37,0,0,0,5.1,2.3,11,11,0,0,0,5-1.4q.3.15.3.3A1.4,1.4,0,0,1,307.55,545.41Z" transform="translate(0.85 -0.24)" fill="#806339"/><path d="M307.55,545.41c-1.7.6-10.5.5-10.5.5s-1,.2-.9-1.1a.71.71,0,0,0,.9.7s8.8,0,10.5-.5a1.68,1.68,0,0,0,1.1-1.1C308.75,544.41,308.55,545.11,307.55,545.41Z" transform="translate(0.85 -0.24)" fill="#5f3b17"/><path d="M530.15,542.41c-1.7.6-10.5.5-10.5.5s-1.1.2-.8-1.4,1-1.8,1.6-2.7a.37.37,0,0,0,.1-.3c.5-1.1,2.6-2.3,5.1-1.2,2.1,1,4.1,1.8,4.9,2.3q.3.15.3.3C531.25,540.51,531.85,541.91,530.15,542.41Z" transform="translate(0.85 -0.24)" fill="#af7b48"/><path d="M530.15,542.41c-1.7.6-10.5.5-10.5.5s-1.1.2-.8-1.4,1-1.8,1.6-2.7a8.37,8.37,0,0,0,5.1,2.3,11,11,0,0,0,5-1.4q.3.15.3.3A1.4,1.4,0,0,1,530.15,542.41Z" transform="translate(0.85 -0.24)" fill="#806339"/><path d="M530.15,542.41c-1.7.6-10.5.5-10.5.5s-1,.2-.9-1.1a.71.71,0,0,0,.9.7s8.8,0,10.5-.5a1.68,1.68,0,0,0,1.1-1.1C531.35,541.51,531.15,542.11,530.15,542.41Z" transform="translate(0.85 -0.24)" fill="#5f3b17"/><path d="M1025,477.91v5.2c-14.9,2.5-37.9,6.1-58.2,8.6h-.1c-6.1.8-12.1,1.4-17.4,1.9a1.27,1.27,0,0,0-.6.1c-5.1.5-9.8.8-13.6.9-3.5.1-7.7.2-12.4.4h0c-35.5,1.4-101.4,5.2-130.3,7.4-25,1.9-93.6,16.7-134.7,24.2h-.1c-12.6,2.3-22.5,3.9-27.9,4.2-3.5.2-8.4.1-14.3-.2h-.1c-31.9-1.8-93.3-9.8-130.5-4.4-46.7,10.2-110,8-156,2.8-3.2-.4-6.4-.7-9.5-1.1-14.1-1.8-26.2-3.9-35-5.9-4.9-1.1-10.6-2.4-16.9-3.9h0c-13.1-3-28.7-6.7-45.2-10.5-3.2-.8-6.4-1.5-9.7-2.3-34.4-8-70.9-16.5-94.8-21.7-38.5-8.5-104-3.6-118.4-2.4V474h2.2c.9,0,2-.1,3.4-.1a17,17,0,0,0,2.2-.1h10.1c13.9-.1,34.8.1,59.2,1.5.6,0,1.2.1,1.8.1,1.9.1,3.9.3,5.8.4l4,.3c.7.1,1.5.1,2.2.2l4.4.3c.7.1,1.4.1,2.1.2,9.4.8,19.1,1.8,29,3,.5.1,1,.1,1.5.2,3.1.4,6.2.8,9.3,1.3.3,0,.7.1,1,.1,3.2.5,6.4.9,9.6,1.4,4,.6,8,1.3,12,2,2,.4,4,.7,5.9,1.1.4.1.7.1,1.1.2,4.3.8,8.5,1.7,12.7,2.6a389.42,389.42,0,0,1,49.3,14.1h0a20.94,20.94,0,0,0,2.3.8c3.9,1.4,7.8,2.7,11.8,4l3,.9,9,2.7,3,.9c2.5.7,5,1.4,7.6,2h0c2.4.6,4.9,1.3,7.4,1.8,1.6.4,3.2.8,4.8,1.1q8.55,1.95,17.1,3.6l3.1.6c6.4,1.2,12.8,2.3,19.2,3.2,2.9.4,5.7.9,8.5,1.2.3,0,.6.1.9.1.5.1.9.1,1.4.2h0c.2,0,.5.1.7.1,1.8.2,3.6.5,5.4.7,2,.3,4.1.5,6.1.7s4,.5,6,.7c1.2.1,2.4.3,3.5.4,2.8.3,5.6.5,8.3.8,3.2.3,6.4.5,9.6.8l4.7.3c6.9.5,13.7.8,20.1,1,2.3.1,4.6.2,6.9.2,1,0,2,0,3,.1,2.5.1,4.9.1,7.3.1,30,.3,52.2-1.5,59.3-3.5,18.6-5.3,65.7-15.3,120.8-4.6s196.2-28.4,242.4-28.4c2.4,0,5.1,0,8.1-.1a10.87,10.87,0,0,0,1.8-.1c1.7-.1,3.6-.1,5.5-.2.7,0,1.5-.1,2.3-.1,7.7-.4,16.5-1,26-1.7l4.5-.3c.9-.1,1.7-.1,2.6-.2l4-.3c3.1-.3,6.2-.5,9.4-.8,2.7-.2,5.5-.5,8.2-.7h0l9.8-.9c2.7-.3,5.3-.5,8-.8,1.5-.1,3-.3,4.6-.4l8.8-.9c1.8-.2,3.5-.4,5.3-.5,7.8-.8,15.5-1.6,22.9-2.4l3.1-.3c1.5-.2,3-.3,4.5-.5,1.7-.2,3.4-.4,5.1-.5,1.3-.1,2.7-.3,4-.4l5.4-.6c1.3-.1,2.6-.3,3.9-.4.3,0,.6-.1.8-.1,1.3-.1,2.6-.3,3.9-.4.7-.1,1.4-.1,2.1-.2,1.3-.1,2.5-.3,3.8-.4,3.4-.4,6.6-.7,9.5-1.1.6-.1,1.1-.1,1.6-.2a2.77,2.77,0,0,0,.9-.1c.8-.1,1.7-.2,2.4-.3C1018.35,478.61,1022.05,478.21,1025,477.91Z" transform="translate(0.85 -0.24)" fill="#7c5b3f"/><path d="M496.75,215.71s-10.2-19.1-15.8-17,1.2,27.8,1.2,27.8Z" transform="translate(0.85 -0.24)" fill="#fbae61"/><path d="M736,303s10.1-4.3,18.3,5.3,6,21.6,16.9,34.5c6.9,8.1,14.5,5.2,22.3,2.3,8.1-3,14.3-3.7,15,1.7.2,1.6-1.2,11.8-9.4,21.6-9.1,10.9-21.9,19-42.3,12.6-18.7-5.8-25.5-29.1-25.5-29.1Z" transform="translate(0.85 -0.24)" fill="#875c53"/><path d="M614.35,279.61s20.6-14.4,15.4-26.7c-5.5-13.1-21.2-.4-25.1-4.5-4.3-4.6,14.9-18.2,2.5-29.9s-23.4,7-28,2.3,8.5-16.1-1.1-26.1-23.6,1.2-27.8,4.8c-3.1,2.7-8.8,7.5-16.4,9.7s-20.2-1.5-30.9-.8-26.1,9.1-28.3,23.3-3.7,21-6.1,22.2-9.3.7-9.2,5.6,7,5.8,16.3,4.6,22-8.8,27-16,8.9-18,8.9-18l102.8,49.5Z" transform="translate(0.85 -0.24)" fill="#875c53"/><path d="M542.55,356.21s-13.9,10.1-21.1,12.8-17.3.4-23.7,7.8-2,13.4-4.3,20.4-12.1,18.2-10.3,28.3c2.4,13.3,14.5,18.9,14.5,18.9S508,433,507,423.21s-1.3-14.5-.3-19.3,5.9-13.4,9.9-15,18.9-2.2,25.4-3,18.8-2.8,18.8-2.8l-18.2-26.9Z" transform="translate(0.85 -0.24)" fill="url(#linear-gradient)"/><path d="M696.35,315l-63.2,63.5-2.6,13.2s10.8-2.6,14.3-4,8.5-3,8.5-3,1.9,2.2,3.5,7.7c1.9,6.7,1.9,11.2,1.4,12-1.4,2.4-11.6,7.5-15.7,8s-14.6-.4-19,7.7c-3.4,6.3-1.2,8.8-1.4,10.3-.4,2.2-4.8,3.8-2.9,7.8s22.5.2,22.5.2.9-5.7,2-5.9c2.8-.6,7.6-2.2,10.3-6.3s25.9-7.4,28-12.5c3-7.4-1.8-16.4-2.7-25.2s-1.5-16.3-.9-17.8c7.6-5.2,17.4-15.9,17.4-15.9l16.5-34.5-16-5.3Z" transform="translate(0.85 -0.24)" fill="url(#linear-gradient-2)"/><path d="M533.65,294.61l8.7,14.1,34.9-32.2-36.2-26.8-13,26Z" transform="translate(0.85 -0.24)" fill="#b3885d"/><path d="M540.15,305.11a100.32,100.32,0,0,1,3.2,9.7c.8,3.3,1.4,8.2,1.4,8.2s-10.4,7.1-11.1,17.4c-.7,9.6,2.2,25.1,7.1,32.8s12.4,13.4,19.7,15.3c8,2.1,17.8,6.6,36.1,6.9,12.7.2,30.4,1.4,51.3-11.2s36.5-40.4,39.1-46.1,8-14.9,11.2-12.7-4.9,8.6-6.3,20,2.5,24.7,18.9,28.4c17.4,3.9,38.7-6.1,40.5-38.5s-18.6-53.4-36.5-61c-13.9-5.9-28.8-5.4-37.6-2.2-4.8,1.7-8.7,5.9-12.9,7.5-3.4,1.4-18.5,3-26.6,3.1-9.5.1-7.6-3.6-16.5-8.5s-11.4-3.1-14.8-6c-4.5-3.8-22.7-26.7-46.5-40.2-20.7-11.7-31.9-11.9-31.9-11.9s1.5-5.5-.5-13.9c-1.2-5.3-6.5-14-9.6-14-2.9-.1-7.6,8.1-8.4,15.5-1,9,1.9,14.7,1.9,14.7s.7,18.1-8.7,31.2,33.3,3.8,39.5,6,11.8,14.6,11.8,25.8c.2,14.4-14,23-13.8,23.7Z" transform="translate(0.85 -0.24)" fill="#fbae61"/><path d="M575.45,386.31s-1.6,5.7-2.6,6.6-7.2,9-10.1,12.3-6.4,7.9-8,9.4-8.2,5.8-7.3,13c1.4,11,6.9,11.7,8.5,17.4,1.3,4.7,2.8,11.3,6.4,16.3,4.1,5.7,9.6,8.5,17.8,7.9s11.9-17.5,11.9-17.5-8-9.7-11.2-8.9-3.6,4.1-5.5,3.1c-2.3-1.2-3.4-6.1-4.2-8.7s-2.7-5.7-1.8-7,11-7.6,16.2-11.6c8.7-6.8,31.1-27.1,31.1-27.1s13.4-43.9-19-36.2c-27.9,6.4-22.2,31-22.2,31Z" transform="translate(0.85 -0.24)" fill="url(#linear-gradient-3)"/><path d="M720.75,312.61c-8.2-.8-29.5,12.7-29.6,43.4-.1,16.4-1.3,29.8-2.1,34.2s-2.1,10.3-3.1,11.2a47.91,47.91,0,0,0-10.7,12.4c-4.3,7.3-2.4,14.6-3.7,16.7s-6.4,7.2-10.7,12.2c-2.9,3.4-13.5,3.7-17.3,8.7a13.61,13.61,0,0,0-2.8,10.1s-7.8,2.6-9.7,8.1,3.9,11.9,8.5,12.2,14.4,1.2,15.3.1c2.8-3.5.1-10.3.1-10.3s4.5-.3,8.2-6.2,9-9.8,13.4-14,21.1-18.3,24-24.7c3.9-8.5,1.7-16,4.4-21.2s8.4-10.9,19-21c8.5-8.1,18.6-15.3,24.7-34.2,8.8-27-22.9-37.2-27.9-37.7Z" transform="translate(0.85 -0.24)" fill="url(#linear-gradient-4)"/><path d="M544.45,253.31c-3.2,1.5-5.5,1.4-5.1,4.1s8.9,8.6,7.7,21.3-8.7,20.1-15.9,23.1A48.15,48.15,0,0,1,516,305l-9.7,12.8s1.4,9.9-5,15c-4.7,3.7-7.8,2.9-7.8,2.9s-4.1,4.1-9.3,2.9c-6.7-1.6-18.8-9-18.9-26.9-.1-16.5,11.4-27.5,13.7-33.9,1.1-3-.4-14.3-.4-14.3s15.6-5,22.9-14.8c5.2-7,9.4-17,9.4-20.9s47.8,10.6,47.8,10.6Z" transform="translate(0.85 -0.24)" fill="url(#radial-gradient)"/><path d="M514.25,260.71a7.61,7.61,0,0,1-2.1,10.3c-2.6,1.7-8.4.4-10.2-3.1-2-4.2-1.3-7.9,1.9-9.9S512,257.11,514.25,260.71Z" transform="translate(0.85 -0.24)" fill="#2f2927"/><path d="M474.05,314.51c-2.1,2.3-1.6,6.6,1.2,10.7s5.8,5.9,8.4,3.9,1-7.1-1.1-11.1-6.3-5.8-8.5-3.5Z" transform="translate(0.85 -0.24)" fill="#533327"/><path d="M495,318c-.1-.8-4.7-7.6-.2-10.5,3-1.9,6.6.3,6.6,4.7,0,4.2-1.7,5.8-1.7,5.8s.6,2.1-.4,10.1c-.7,6-2.9,6.9-4.3,8.2-1,.9-6.3,3.2-5.6,1.7s4.5-6.7,5.1-11.4A76.82,76.82,0,0,0,495,318Z" transform="translate(0.85 -0.24)" fill="#533327"/><path d="M506.85,423.91s-2.8,6.3-4.5,9.8a45.18,45.18,0,0,1-6.7,9.5s5.8,7.1,12.5,9.3,8.3-9.4,6.8-18.9c-.8-4.8-2-7.7-4.1-9.1-1.3-.9-4-.6-4-.6Z" transform="translate(0.85 -0.24)" fill="#6c4834"/><path d="M578.85,443.81c2.3,3.4,4.8,8.3,4.9,13.1a20.2,20.2,0,0,1-4.2,12.2,45.43,45.43,0,0,0,14.1.3c5.7-.7,9.1-2.2,9.9-3.9s-1.7-10.3-6.6-17-8.7-7.1-10.9-7.6c-3.2-.7-7.2,2.9-7.2,2.9Z" transform="translate(0.85 -0.24)" fill="#6c4834"/><path d="M631.15,437.51a54.1,54.1,0,0,1-12.5-1.1,46.94,46.94,0,0,0-1,10.1c0,5.8.1,10.6,2.5,11.3s8.9-1.2,15.3-6.2c3.3-2.6,6.1-7.9,6.7-9.3s.2-5.8.2-5.8-6.2.8-11.2,1Z" transform="translate(0.85 -0.24)" fill="#6c4834"/><path d="M632.75,466.91c-1.5.8-3.7,5.7-5.5,9.1s-3.9,8.1-3.6,9.6c.5,2.4,4,3.7,13.8,2.8s15.6-4.4,16.3-4.9a9.84,9.84,0,0,0,1.7-2.4,49.94,49.94,0,0,0-10.8-8.9c-7-4.4-11.9-5.3-11.9-5.3Z" transform="translate(0.85 -0.24)" fill="#6c4834"/><path d="M570.75,391.41a39.51,39.51,0,0,1-5.9-6c-3.2-4.3-4.5-7.3-5.8-14.3-.9-4.8,1.7-14.1-5.1-14.4-5.1-.2-7.4,3-6.3,11.9,1,7.3,5.9,15.7,6.8,16.7s2.7,2.5,7.2,4.2a29.85,29.85,0,0,0,9.1,1.9Z" transform="translate(0.85 -0.24)" fill="#b3885d"/><path d="M831.65,118.91s21.3-1.3,18-30.2S836,59.31,832,44.81s-4.1-28.9-6.1-29.9c-1.5-.8-13.2,8.1-13.2,8.1s-10.8,9.1-11.7,6.6c-1.2-3.5,9.1-20,10.6-23.3s.9-8.7-6.1-4.6c-6.3,3.7-43.6,34-42.9,57.6s28.9,50,28.9,50l17-17Z" transform="translate(0.85 -0.24)" fill="#503c38"/><path d="M872.85,157.11s19.6,11.3,24.7,15.2,12.8,10.1,12.8,10.1-3.5,9-7.1,11.2a24.46,24.46,0,0,1-8.1,2.9s-6.1,6.4-10.3,6.8a13.72,13.72,0,0,1-7.8-1.9s-5.6,2-7.9,1.9-9.3-5.6-9.3-5.6l13-40.6Z" transform="translate(0.85 -0.24)" fill="url(#linear-gradient-5)"/><path d="M842.75,104.71s9.3.8,13.9-14.5,3.5-27.6,12.3-36.7,17.4-11,26.9-11.7,45.3-2,54.3-2.7,16.4-3,17.2-1.2c.6,1.4-10,19.4-10,19.4s-23.8.3-24.3,5.4,17.8,2.3,17.9,4.9c.2,3.5-15.4,23.3-21,28.9s-10.1,6.3-12,9.1-10,27.7-19.6,36.5a38.89,38.89,0,0,1-21.8,9.5s7.3,10.1,4.9,18.8-6.6,20-11.7,26c-3.6,4.2-9.2,7.9-14.9,3.8-6.3-4.5-5.9-13.7-4.4-19.3a21.61,21.61,0,0,0,.7-9.3s-9,9.4-14.4,14c-5.7,4.9-10.9,13-18.3,4.1-8.3-10,.6-15.9,4-20.3s4.6-6.3,4.6-6.3l-12-25.6,27.7-32.8Z" transform="translate(0.85 -0.24)" fill="#71544d"/><path d="M795,89.11c-3.7,3.7-13.4,13.7-.5,24.8s13.3,17.8,16.7,22.5,6.2,9.3,8.4,11.6,7.7,7,9.5,6.5-1.9-13.9-1-14.7,10.8,6.1,12.3,5.1-1.8-14.1-1-14.7,9.6,5.4,10.8,4.4c1.7-1.4-5.1-28.3-5.7-29.7-.3-.7-9.6-7.6-17.5-12.9-7-4.8-9.9-7-16.5-7.9-6.1-.9-12.7,2.2-15.5,5Z" transform="translate(0.85 -0.24)" fill="#ffeac8"/><path d="M793.15,130.21c.8-1.9,1.7-4,6.6-7.7s12.7-9.1,12.9-10.8-10.4-.6-13.5-.8-6.8-.7-8.8-2.4a4.69,4.69,0,0,1-1.9-2.9s-7.7,5.3-8.7,11.5c-1,6.8,1.3,11.7,5.8,15s6.5,4.2,7.7,3.5c1.6-.7-.1-5.4-.1-5.4Z" transform="translate(0.85 -0.24)" fill="#fdb813"/><path d="M790,128a15.7,15.7,0,0,1,4.8-9.4c3.3-3.2,9-7.7,10.6-7.7h4.4a12.25,12.25,0,0,1-3.5,4.1,76.42,76.42,0,0,0-8.8,6.9,13.29,13.29,0,0,0-4.1,8.3s1.4,4,.3,5.3c-1,1.1-4-5.7-3.7-7.5Z" transform="translate(0.85 -0.24)" fill="#f78e1e"/><path d="M802.85,104.11c.1,1.2,1.1,3.5,4.4,2.8,2.7-.6,4.8-4.3,3.9-7-.7-2.1-2.5-2.6-3.7-1.8s-4.9,3.4-4.6,6Z" transform="translate(0.85 -0.24)" fill="#30302f"/><path d="M894.65,194.31c-.4.2-3.3,5.3-8.6,6.7s-7.4-1.4-8.5-1.4-4.9,2.3-8.3,2c-2.7-.3-7.2-4.1-7.2-4.1l-1.9,3s4.3,4.6,9.1,4.9a13.14,13.14,0,0,0,7.9-1.9,16.67,16.67,0,0,0,9.7,1.4,14.15,14.15,0,0,0,9.6-7.4s5.7-.6,9.6-3.5,7.2-10.4,4.7-11.6-3.9,5.2-7,7.6c-3.1,2.6-8,3.7-9.1,4.3Z" transform="translate(0.85 -0.24)" fill="#71544d"/><path d="M797.25,194.61c-.9-2,2.9-12,13-11.6s14.8,7.9,13.9,15.3-5.8,9.8-7,9-2.5-6.2-2.5-6.2l-5.2-6.5C809.45,194.51,799.15,198.71,797.25,194.61Z" transform="translate(0.85 -0.24)" fill="#fdb813"/><path d="M836.45,206.11c-1.4-2.7,1.6-8.6,5.7-10.8,5.2-2.7,9-2.8,14.9,1.9,7.9,6.4,1.7,17.7-1.8,19.2-4.9,2-3.7,0-3.6-2.4s-2.2-8.7-2.2-8.7Z" transform="translate(0.85 -0.24)" fill="#fdb813"/><path d="M817.05,196.41c.7,2.7,1.4,10.6-.4,10.5-1.2-.1-2.8-4.7-3.4-6.5s-5-4.4-6.6-4.4-7.2,1.1-7.3,0c-.3-2.1,6.3-5.2,8.9-5.2C810.65,190.81,816.35,193.51,817.05,196.41Z" transform="translate(0.85 -0.24)" fill="#f48220"/><path d="M836.35,205.71c.1,1.9,5.3.6,7.4.8s4.8,1.3,6,3.7c.6,1.2,1.1,6.7,2.2,6.8,2.2.2,2.8-7.4,2.5-8.1-.8-2.1-3.7-7.2-9.5-7.7-2.9-.2-8.6,3.5-8.6,4.5Z" transform="translate(0.85 -0.24)" fill="#f48220"/><path d="M805.55,384.61l-57,16.5s5.5,31.5,7.6,42.8,3.1,21.2,2.1,24.7-11.3,10.4-9.5,17.2,17.7,8.4,34.4,6.3,19.6-8,20-16.9-5.8-25-5-29.3,7.6-13.9,8.4-24.4-1-36.9-1-36.9Z" transform="translate(0.85 -0.24)" fill="url(#linear-gradient-6)"/><path d="M682,323.51l-52.5-70.3s-21.4,8.4-22.7,39,6.7,48,5.8,60.5-11.8,24.5-11.1,44.3,11.5,48.8,11.5,53.7-1.7,32,4.5,37.8c5.7,5.3,18.7,6.7,30,5.9s23.8-3.1,23.8-12-14.9-7.8-16.1-12.6c-.6-2.3,1.7-3.4,3.1-9,.8-3.1-.1-7.8-.1-7.8s20.3-27.9,24.6-47.4-6.9-38.5-7.7-44.8,6.9-37.3,6.9-37.3Z" transform="translate(0.85 -0.24)" fill="url(#linear-gradient-7)"/><path d="M649,301.71c-2.8-4.5-14.1-4.1-22.1-16.8s-6.7-26.4-2.5-34.1c3.5-6.3,7.9-8.4,7.9-8.4l.2-6a17.25,17.25,0,0,1-7.2-13.1c-.6-9.1,2.5-13.3,11-20.1a190.06,190.06,0,0,1,16.2-11.6s-.8-8.3,1.5-13.5,12.4-16.7,30.1-16.6,31.5,11,42.1,22.3,11.6,21.4,11.4,24-9,15.7-9,15.7l20.7,26.5,46,26.9,34.4,45.6,41.8,35,11.6,54.5s11.9,12.7,15.7,30.3,3.9,43.1-2.2,47.4-19.4,11.8-43.6,10.7c-19-.9-18.5-5.1-18.1-8.5.5-4.2,12.8-15.9,14.2-17.7s1.1-20.5-3.3-23.2-12.7-3.9-22.7-16.2-12.6-29.7-12.6-29.7a72.92,72.92,0,0,1-21.8,3.7c-16.5.3-39.9-7.6-39.9-7.6s-49.1-21.7-60.5-36.7a176.81,176.81,0,0,1-12-17.4s-10.9-5.1-18.7-20.8c-8-15.9-5.8-20.1-8.6-24.6Z" transform="translate(0.85 -0.24)" fill="url(#linear-gradient-8)"/><path d="M690.55,225.91c.6-4.4,2.9-7.6-2.6-10.9s-25.2-2.3-33.5-1.9-24-.1-22.6,6.6c.3,1.7.6,4.8,3,7,7.1,6.6,20.9,7.6,20.9,7.6Z" transform="translate(0.85 -0.24)" fill="#454a4f"/><path d="M654.65,228.41c2.6.5,5.5-12.1,22.6-11.4s20.8,11,20.8,11-13.9,19.7-19.4,32.6-10.8,29-13.8,30-18.7-.4-28.8-8.6c-8.1-6.6-11.2-14.9-9.6-24.4a17.65,17.65,0,0,1,5-9.4c1-1,6,5.5,9.1,4.3s2.6-3.1,1.5-4.4-6.2-4.8-6.2-4.8,2.4-3.7,5.9-2.1c3,1.4,6,6,6,6s5.6-5.8,8-6.2c3.9-.7,6.6,3.2,6.6,3.2s-8.4,2.7-9.4,5.1.8,5.5,6.6,3.4,8.4-3.3,8.4-3.3.3-9.2-8.5-11.6c-6.2-1.7-11.5,4.5-11.5,4.5s-3.8-3.8-5.9-4.5a8.74,8.74,0,0,0-3.9-.2s-2.9-6.2-3.9-9.1-2.2-7.3-2.2-7.3,6.3-2.5,12.1-.2,7.9,6.9,10.5,7.4Z" transform="translate(0.85 -0.24)" fill="#afafb0"/><path d="M669.25,227.91c-2.6,2.5-3.2,6.9-.5,9s6.4,1.2,8.9-1.5,2.9-6.9.7-8.6c-2.1-1.5-5.9-1.9-9.1,1.1Z" transform="translate(0.85 -0.24)" fill="#010101"/><path d="M647.55,235.31c-2.5,2.3-5.9.1-7.1-1.5-1.7-2.4-2.3-5.9-1.3-7.4s4.6-2,7.1.3S649.65,233.41,647.55,235.31Z" transform="translate(0.85 -0.24)" fill="#010101"/><path d="M646.05,266a159.24,159.24,0,0,0,16.2-.2c1.2-.1,3.6-1.6,6.6.1a3.4,3.4,0,0,1-1.7,6.4c-3.9.1-4.7-.6-4.7-.6s-5.9,1.2-16.4.3c-9.8-.9-13.3-3.1-13.3-3.1s-4.5,1.8-5.4-1.5a3.48,3.48,0,0,1,4.8-4.3c2.4,1.1,5.3,2.6,13.9,2.9Z" transform="translate(0.85 -0.24)" fill="#010101"/><path d="M806.45,349.11c3.6,7.4,12.4,15.8,18.7,14.2s7.3-4.4,12.1-6.8a19.12,19.12,0,0,1,9.3-2s-7.7,9.2-9.5,18.7-6,35.2,11.5,46.8,34.5-7.9,34.5-7.9,5-31.4,1.6-53.2-14.8-41.8-25-47.9c-6.8-4.1-10.5-2.9-19.5-5.9a111.49,111.49,0,0,1-27-13.8c-8-5.9-16.7-12.6-16.7-12.6.3-1.6,8.4,22.1,7.9,36.9C804.05,325.31,803,342,806.45,349.11Z" transform="translate(0.85 -0.24)" fill="url(#linear-gradient-9)"/><path d="M797.85,280.21s3.9,25.5,2.4,43.5c-1.6,18.9-13.4,30.6-13.9,35.2-.9,7.6-5.3,47-13.5,49-11.3,2.8-34.5-68.6-34.5-68.6l59.5-59.1Z" transform="translate(0.85 -0.24)" fill="#454a4f"/><path d="M723.15,231.91s3.7-1.4,7.7-3.4a19.2,19.2,0,0,0,5.7-4.9s18.1-3.2,36,13.3,28.6,36.7,24.2,68.3-17.7,50.5-17.7,50.5,1.5,26.3-3.9,44.6-27.6,56.1-28.5,66,11.3,12,14.6,20.5c2.9,7.5-2.5,13.5-20.2,13.7s-36.3.8-37.1-7.2c-1.3-13.5,8.5-15.9,8-32.3s-12-33.7-13.5-59.4,3.6-33.6,3.6-33.6-1.5-36.3,3.5-60.4,22.5-43.2,21.7-55.3a70.63,70.63,0,0,0-4.1-20.4Z" transform="translate(0.85 -0.24)" fill="#5f6366"/><path d="M718.25,281.61c.1-.2.1-.3.2-.5.8-2.2,1.6-4.5,1.2-6.7a1.68,1.68,0,0,0-.8-1.4,2,2,0,0,0-1.8.2c-3.3,1.9-4.4,6.3-6.5,9.2-3.1,4.2-6.6,8.3-11.1,11-7.6,4.7-17.6,6.9-26.3,8.2a3.37,3.37,0,0,0-2.2.9c-3,3.7,14.4,7.1,29.3,4.5-2.6,8,3,18.4,5.7,26.3,1.8,5.3,1.3,11,.4,16.4-.2,1.1-2.3,8.8.2,8.7,1,0,2.3-4.3,2.7-5a92.69,92.69,0,0,0,4.4-8.2,39.17,39.17,0,0,0,2.6-17.6c-.5-6-2.3-11.7-2.9-17.7-.7-9.5,1.7-19.2,4.9-28.3Z" transform="translate(0.85 -0.24)" fill="url(#linear-gradient-10)"/><path d="M727.65,236.61a20.38,20.38,0,0,1,3.1-5.8c2.2-3.7,8.6-6.8,8.7-16.9,0-8.4-4.8-17.9-4.8-17.9s-2.3,16.2-6.7,19.9-9.8,5.1-15.6,5.3c-11.7.3-4.5,8.6.2,14.4,5.1,6.2,8.1,13.4,10,21.2,3-6.1,2.4-13.8,5.1-20.2Z" transform="translate(0.85 -0.24)" fill="url(#linear-gradient-11)"/><path d="M624.85,475.41c-1.2-10,5.2-17.5,1.2-27.5-2.2-5.5-5.9-10.3-8.6-15.7-7.2-14.5-4.9-29.9-.1-44.7,3.1-9.5,7.4-19.6,4.4-29.2,2.1,4.4,4.2,8.9,6.3,13.3a89.5,89.5,0,0,0-3.5-47c-3.7-10.4-9.3-20-12-30.7-1.8-7.1-1.4-19.6,2.3-28.3-4.2,6-7.8,14.5-8.3,26.5-1.3,30.6,6.7,48,5.8,60.5s-11.8,24.5-11.1,44.3,11.5,48.8,11.5,53.7-1.7,32,4.5,37.8c4.3,4,12.7,5.7,21.4,6C633,491.31,625.65,482.11,624.85,475.41Z" transform="translate(0.85 -0.24)" fill="#5f6366"/><path d="M866.25,426.31l-17.4-31.6-43.1,16.5a11.1,11.1,0,0,0-1.7,7.4c.2,2.1,1.1,8,1.1,8l-8,1.2s-11.5,9.6-7.8,24.6c2.8,11.4,5.8,17.4,5.8,17.4l-1.6,11.2s25.6,11.1,50.6,10.5c31.9-.9,43.9-17.8,43.9-17.8l-8.7-39.4Z" transform="translate(0.85 -0.24)" fill="#845b55"/><path d="M792.35,429.91a14.18,14.18,0,0,0-4,10.9c.7,4.5,7.7,17,15.3,16.5s4-15.9,1.6-21.4-7-11.5-12.9-6Z" transform="translate(0.85 -0.24)" fill="#b5885e"/><path d="M771.55,490.11c-.3,3.8,4,3.7,12,3.7s27.4-1.4,27.4-1.4l-1.6-10.6s-4.8.3-11.5-3.3a8.72,8.72,0,0,1-3.6-3.4S772.15,482.41,771.55,490.11Z" transform="translate(0.85 -0.24)" fill="#b5885e"/><path d="M829.35,418.61a20.3,20.3,0,0,0-14.9,7.1c-4,4.7-12.4,27.3-6.3,30.4s10.3-7.9,12.6-13.1c2.1-4.7,5.9-10.1,9.2-11.9a55.88,55.88,0,0,0,6.1-3.7l-6.7-8.8Z" transform="translate(0.85 -0.24)" fill="#fecd89"/><path d="M815.15,479.61a20.51,20.51,0,0,0-5.9,1c-3,1-19.5,9.1-19.4,13.4s10.3,4.4,22.8,4.2,15.9-2.6,16.9-3.7,5.1-6.4,3.7-7.2C832,486.81,815.15,479.61,815.15,479.61Z" transform="translate(0.85 -0.24)" fill="#fecd89"/><path d="M861.75,399.61s9.8-8.5,13.6-16.7a41,41,0,0,0,3.7-16s18.5-4.9,13.9-27.8c-3.9-19.4-19.6-15.3-19.6-15.3s-10.6-22.1-39.2-28.2-53.6,8-64.2,22.3c-12.2,16.6-10.1,37.8-10.1,37.8s-9.4-.9-13.8,7.5c-4.5,8.7-3,22.8,5.4,29.3s21.4,4.7,21.4,4.7,9.1,9.8,19.5,14.1c10.7,4.5,20.9,5.1,33.3,3.8a55,55,0,0,0,22.3-7.7,15,15,0,0,0,1.7,8c1.4,2.8,6.3,8.2,6.3,8.2s-7.9-4.2-14.3-5.3c-6.9-1.2-11.3-.8-13.9.8-2,1.2.6,10.6,3.5,11.2s7.8-.9,16.4,2.4,19.5,11.2,22.3,12.9,8.5,4.7,8.9,8.5c.3,3-4.4,6.8-12.8-1.7-8-8.2-15.8-16-24.5-17.1s-14.1,1.2-18.1,9.9a225.65,225.65,0,0,0-10.3,28.2c-.9,3.5-3.3,5.4-1.4,8.7,1.3,2.3,16.1,10.9,19.5,10.6,4.4-.4,7.8-9.2,8.9-10.8s3.3-4.9,3.3-4.9,7.7,18.1,23.9,16.6,18.5-11.7,18.5-11.7a91.06,91.06,0,0,0,26-3.2c17.9-5.1,30.1-21.5,34-47.7,2.8-19-.7-46.7-9.6-69.9-3.3-8.5-7.1-18.6-9.6-25.6-6.3-17.9-8.5-30.9,1.7-34.7,5.2-1.9,8.6.4,10.1,3.3,2.1,4.1,2.4,9.2,9,11.8,4.7,1.9,10.6.4,13.2-4,3.3-5.5,2.1-13.4-4.9-22.5-12-15.5-32.1-14-43.1-5.8-11.7,8.8-16.7,20.6-11,42.7,5.4,20.7,17.3,47.2,19.9,60,3.5,17.3,6.6,59.7-14.8,68.3-9.9,4-17.3,2.4-17.3,2.4s-1.7-19.8-8-34.2a52.32,52.32,0,0,0-19.7-23.2Z" transform="translate(0.85 -0.24)" fill="#b5885d"/><path d="M866.05,334.71c-.3.4,1.7,5.8,2.4,11.5.8,6.3,1.1,12.4,1.6,12.6,1,.4,16.5-3.5,14.6-17.8s-17.9-7.2-18.6-6.3Z" transform="translate(0.85 -0.24)" fill="#fecf8d"/><path d="M760.65,364.41c-1.4-1-10.3,1.5-9.2,11.7,1.4,13.2,14.5,13.2,15.7,12.4.6-.4-1.9-6.5-3.5-12.4-1.6-5.7-2.3-11.2-3-11.7Z" transform="translate(0.85 -0.24)" fill="#fecf8d"/><path d="M810.15,336.71c-8.4,2.8-20-10.6-30.2,0-12.4,13,2.3,24.7,3.5,33.8.7,5.6-2.4,9.8.7,19.2,2.6,7.8,17.2,19.5,43.6,14.1,24.8-5,30.6-20.7,29.9-30.6-.7-11-5.9-11.6-6.9-17.2s4.8-27.5-12.2-32.1c-17.6-4.7-19.4,9.8-28.4,12.8Z" transform="translate(0.85 -0.24)" fill="#fecf8d"/><path d="M839.15,350.11c1,6.3.4,10.5-4,11.5-5.3,1.2-8.8-2.4-9.8-8.8-1.3-7.8.3-11.5,4.4-12.3C834.75,339.61,837.85,342.21,839.15,350.11Z" transform="translate(0.85 -0.24)" fill="#060908"/><path d="M803.85,356.21c1.2,6,1.4,11.3-3.4,12.6-4.6,1.2-8.4-1.8-10.1-8.2-2-7.6-1.3-12,3-13.2C797.85,346.11,802.05,347,803.85,356.21Z" transform="translate(0.85 -0.24)" fill="#060908"/><path d="M810.15,366.71c.1,3,5.2,6.6,8.2,6.2,3.2-.5,6.3-6.9,5.2-8.8-1.3-2.4-13.5-.1-13.4,2.6Z" transform="translate(0.85 -0.24)" fill="#060908"/><path d="M798,385.91c.5,4.2,9.4,10.5,25.6,7.3,16.7-3.3,19.2-13.5,19-16s-8.8-3.8-23.3-1.3c-11.4,2-21.7,6.7-21.3,10Z" transform="translate(0.85 -0.24)" fill="#f36c24"/></svg>