<svg id="Layer_1" data-name="Layer 1" xmlns="http://www.w3.org/2000/svg" viewBox="0 0 698.12 656.48"><path d="M51.56,228.75c5.71-108.2,118.91-157.5,221.64-157.5s215.94,49.3,221.64,157.5c.16,4.22.32,8.59.32,12.81A245.89,245.89,0,0,1,478.91,329h71a111.64,111.64,0,0,1,73.13,27.27h2.58A101.42,101.42,0,0,1,727,457.19a34.76,34.76,0,0,1,22.43,32.5v21.09a34.8,34.8,0,0,1-34.77,34.77h-4.45a34.83,34.83,0,0,1-34.77-34.69V489.77a34.81,34.81,0,0,1,22.34-32.5,72.22,72.22,0,0,0-48.28-67.66A112.25,112.25,0,0,1,662,441.17v75.55a64.12,64.12,0,0,1,27,52.5V672.5a55.27,55.27,0,0,1-55.23,55.23h-156a26.3,26.3,0,0,1-26.25-26.25,63.55,63.55,0,0,1,42.9-60.07V615.08h-.55a94.14,94.14,0,0,1-82.5-48.67H403.2v106A55.28,55.28,0,0,1,348,727.66H193.44a26.3,26.3,0,0,1-26.25-26.25,63.15,63.15,0,0,1,44.37-60.63V542.34a125.17,125.17,0,0,1-50.47-83.43,15.66,15.66,0,0,1-.07-3.28,349.77,349.77,0,0,1-49.3-49.93C72.19,356.33,51.25,299.53,51.25,241.56c0-4.22.08-8.59.31-12.81Z" transform="translate(-51.25 -71.25)" fill="#633"/><path d="M273.2,97.5c90.71,0,190.55,41.48,195.32,132.58.23,3.83.31,7.65.31,11.48,0,52-18.91,103-54.69,147.74C379.92,432,331.25,468.05,273.2,493.59c-58-25.54-106.72-61.56-141-104.21C96.41,344.61,77.5,293.59,77.5,241.64c0-3.83.08-7.73.31-11.48C82.66,139.06,182.5,97.5,273.2,97.5Z" transform="translate(-51.25 -71.25)" fill="#c85e4c"/><path d="M165.39,161.72a45.78,45.78,0,0,1,47.42,34H333.52a46,46,0,0,1,13-21.79,45.26,45.26,0,0,1,34.38-12.19,45.87,45.87,0,0,1,42.42,42.42,45.38,45.38,0,0,1-12.19,34.38,46.26,46.26,0,0,1-20.23,12.57v51.57a43.16,43.16,0,0,1-8.28,25.47l-47.74,65.31a43.19,43.19,0,0,1-34.84,17.73H246.25a43.18,43.18,0,0,1-34.84-17.73l-47.66-65.31a43.34,43.34,0,0,1-8.28-25.47V251.09a46,46,0,0,1-20.31-12.57A45.38,45.38,0,0,1,123,204.14,45.93,45.93,0,0,1,165.39,161.72Z" transform="translate(-51.25 -71.25)" fill="#633"/><path d="M149.22,205.94a19.73,19.73,0,0,1,18-18.05,18.63,18.63,0,0,1,14.61,5.16c6.09,6,6.17,14.76,6.17,15.08a12.71,12.71,0,0,0,3.59,9.68,13.31,13.31,0,0,0,9.53,4.07H345.16a13.09,13.09,0,0,0,13.12-13.75c0-.24.63-10.24,6.17-15.08a20.58,20.58,0,0,1,14.61-5.16,19.44,19.44,0,0,1-1.4,38.83,13.1,13.1,0,0,0-13.13,13.12v62.82a16.71,16.71,0,0,1-3.2,9.92l-47.66,65.31a16.78,16.78,0,0,1-13.59,6.95H286.33V360.55a42.89,42.89,0,0,0,16.25-10.08A13.15,13.15,0,0,0,284,331.88a15.24,15.24,0,0,1-21.64,0,13.15,13.15,0,0,0-18.59,18.59A40.68,40.68,0,0,0,260,360.55v24.29H246.17a16.89,16.89,0,0,1-13.59-6.95l-47.66-65.31a16.71,16.71,0,0,1-3.2-9.92V239.84a13.1,13.1,0,0,0-13.13-13.12,19.4,19.4,0,0,1-19.37-20.78ZM227.5,667.27a14.56,14.56,0,0,0,13.28-14.54V558.2a125.87,125.87,0,0,0,44.69,8.21h7.34v74.45a63,63,0,0,0-44.29,57.58h-52A34.08,34.08,0,0,1,227.5,667.27Z" transform="translate(-51.25 -71.25)" fill="#f9dcb2"/><path d="M268.05,520.08a13.66,13.66,0,0,0,10.31,0c64.3-27.42,118.36-67,156.41-114.38a290.85,290.85,0,0,0,31.09-47.42H550a83,83,0,0,1,82.81,82.89V525a14.59,14.59,0,0,0,7.89,13,35.07,35.07,0,0,1,19.07,31.25V672.5a26,26,0,0,1-26,25.94H563.52a34.31,34.31,0,0,1,29.92-30.94A14.74,14.74,0,0,0,606.25,653v-73.6a14.63,14.63,0,0,0-14.61-14.6H576.48a65,65,0,0,1-49.14-22.5,14.51,14.51,0,0,0-11-5.08H388.67a14.64,14.64,0,0,0-14.61,14.61V672.42a26,26,0,0,1-26,25.94H277.81a33.94,33.94,0,0,1,30.94-31.09A14.56,14.56,0,0,0,322,652.73V551.8a14.63,14.63,0,0,0-14.61-14.61H285.47A95.49,95.49,0,0,1,234,522.34a97.3,97.3,0,0,1-35-38.82A453.64,453.64,0,0,0,268.05,520.08Z" transform="translate(-51.25 -71.25)" fill="#f9dcb2"/><path d="M241.56,270.39A14.61,14.61,0,1,1,227,255.78,14.63,14.63,0,0,1,241.56,270.39Zm92.42,0a14.61,14.61,0,1,1-14.6-14.61A14.63,14.63,0,0,1,334,270.39Z" transform="translate(-51.25 -71.25)" fill="#633"/><path d="M510,566.41A94.4,94.4,0,0,0,576.48,594H577v47.43a63.48,63.48,0,0,0-42.81,57H480.78a34.33,34.33,0,0,1,29.92-31,14.67,14.67,0,0,0,12.82-14.53v-52.5a14.64,14.64,0,0,0-14.61-14.61H493.83a64.92,64.92,0,0,1-46.33-19.37Z" transform="translate(-51.25 -71.25)" fill="#f9dcb2"/><path d="M549.92,397.81a43.41,43.41,0,0,1,43.36,43.36,14.61,14.61,0,0,1-29.22,0A14.14,14.14,0,0,0,549.92,427a14.61,14.61,0,0,1,0-29.22Z" transform="translate(-51.25 -71.25)" fill="#633"/><path d="M710.08,484.22h4.45a5.57,5.57,0,0,1,5.55,5.55v21.09a5.57,5.57,0,0,1-5.55,5.55h-4.45a5.57,5.57,0,0,1-5.55-5.55V489.77A5.68,5.68,0,0,1,710.08,484.22Z" transform="translate(-51.25 -71.25)" fill="#c85e4c"/></svg>